<svg id="CryoFind_Logo" data-name="CryoFind Logo" xmlns="http://www.w3.org/2000/svg" width="189.091" height="41.462" viewBox="0 0 189.091 41.462">
  <g id="Group_15" data-name="Group 15" transform="translate(41.995 7.408)">
    <path id="Path_3" data-name="Path 3" d="M86.925,39.184a9.962,9.962,0,0,1-1.014-.625,12.136,12.136,0,0,1-4.708-8.11,14.159,14.159,0,0,1,1.861-9.6c4.041-6.464,13.475-7.8,19.479-3.333a3.641,3.641,0,0,1,1.209,1.316,1.51,1.51,0,0,1-.2,1.682,1.609,1.609,0,0,1-1.714.2,6.786,6.786,0,0,1-1.5-1.028,10.169,10.169,0,0,0-7.974-1.963A9.722,9.722,0,0,0,85.7,22.49,11.888,11.888,0,0,0,84.4,28.8a10.618,10.618,0,0,0,1.817,5.756,9.063,9.063,0,0,0,7.166,3.518,12.281,12.281,0,0,0,7.632-2.767c.619-.488,1.383-1.06,2.115-.765a1.4,1.4,0,0,1,.678,1.661,3.273,3.273,0,0,1-1.154,1.55,15.422,15.422,0,0,1-15.728,1.431Z" transform="translate(-81.028 -14.583)" fill="#fff"/>
    <path id="Path_4" data-name="Path 4" d="M129.3,46.348a2.357,2.357,0,0,1-.4-1.6l0-13.9a3.152,3.152,0,0,1,.122-1.062,1.653,1.653,0,0,1,2.639-.375,2.085,2.085,0,0,1,.4,1.437v1.525a8.2,8.2,0,0,1,7.751-3.861,2.149,2.149,0,0,1,1.1.364A1.285,1.285,0,0,1,141,30.753a3.09,3.09,0,0,1-2.179.4,6.745,6.745,0,0,0-6.259,4.413,13.178,13.178,0,0,0-.47,4.461l.043,4.643a2.461,2.461,0,0,1-.322,1.529,1.723,1.723,0,0,1-1.534.566,1.544,1.544,0,0,1-.885-.325A1.108,1.108,0,0,1,129.3,46.348Z" transform="translate(-104.091 -21.123)" fill="#fff"/>
    <path id="Path_5" data-name="Path 5" d="M159.509,55.856a6.333,6.333,0,0,1-3.027-2.135,1.373,1.373,0,0,1,.315-2.03,1.347,1.347,0,0,1,.8-.28,1.829,1.829,0,0,1,1.365.7,4.781,4.781,0,0,0,2.1,1.365,8.758,8.758,0,0,0,2.974.49,6.086,6.086,0,0,0,4.584-1.7,6.431,6.431,0,0,0,1.644-4.671V45.533a6.674,6.674,0,0,1-2.554,1.872,8.269,8.269,0,0,1-3.324.682,9.12,9.12,0,0,1-6.718-2.4,8.973,8.973,0,0,1-2.414-6.666V34.234a1.348,1.348,0,0,1,.472-1.05,1.7,1.7,0,0,1,1.172-.42,1.677,1.677,0,0,1,1.155.437,1.343,1.343,0,0,1,.49,1.032v4.791a6.923,6.923,0,0,0,1.54,4.794,5.485,5.485,0,0,0,4.3,1.714,5.365,5.365,0,0,0,4.217-1.662,6.823,6.823,0,0,0,1.487-4.706v-5.8a1.979,1.979,0,0,1,.455-1.4,1.633,1.633,0,0,1,1.259-.49,1.525,1.525,0,0,1,1.225.49,2.089,2.089,0,0,1,.42,1.4V47.283a10.236,10.236,0,0,1-1.137,4.916,7.927,7.927,0,0,1-3.254,3.272,10.113,10.113,0,0,1-4.917,1.155A13.113,13.113,0,0,1,159.509,55.856Z" transform="translate(-116.786 -22.571)" fill="#fff"/>
    <path id="Path_6" data-name="Path 6" d="M199.3,46.02a8.351,8.351,0,0,1-3.412-3.219,9.276,9.276,0,0,1,0-9.028,8.355,8.355,0,0,1,3.412-3.219,12.287,12.287,0,0,1,10.55,0,8.383,8.383,0,0,1,3.394,3.219,9.276,9.276,0,0,1,0,9.028,8.379,8.379,0,0,1-3.394,3.219,12.287,12.287,0,0,1-10.55,0Zm10.077-3.149a5.922,5.922,0,0,0,1.784-4.584,5.922,5.922,0,0,0-1.784-4.584,7.834,7.834,0,0,0-9.6,0,5.891,5.891,0,0,0-1.8,4.584,5.891,5.891,0,0,0,1.8,4.584,7.834,7.834,0,0,0,9.6,0Z" transform="translate(-135.796 -21.553)" fill="#fff"/>
    <path id="Path_7" data-name="Path 7" d="M241.206,40.268a1.631,1.631,0,0,1-.437-1.208V20.375a4.363,4.363,0,0,1,1.259-3.307,4.851,4.851,0,0,1,3.5-1.208H258.1q1.644,0,1.644,1.365a1.144,1.144,0,0,1-.437.944,1.881,1.881,0,0,1-1.207.35H245.808a1.632,1.632,0,0,0-1.277.524,2.013,2.013,0,0,0-.473,1.4v5.621h9.658q1.645,0,1.645,1.365a1.184,1.184,0,0,1-.437.98,1.886,1.886,0,0,1-1.208.35h-9.658v10.3a1.709,1.709,0,0,1-2.852,1.208Z" transform="translate(-157.979 -15.048)" fill="#fff"/>
    <path id="Path_8" data-name="Path 8" d="M275.408,46.772a1.672,1.672,0,0,1-.42-1.208V31.009a1.674,1.674,0,0,1,.42-1.208,1.837,1.837,0,0,1,2.379,0,1.674,1.674,0,0,1,.42,1.208V45.565a1.672,1.672,0,0,1-.42,1.208,1.837,1.837,0,0,1-2.379,0Z" transform="translate(-174.463 -21.553)" fill="#fff"/>
    <path id="Path_9" data-name="Path 9" d="M289.067,46.772a1.715,1.715,0,0,1-.4-1.208V31.009q0-1.645,1.574-1.645a1.526,1.526,0,0,1,1.155.437,1.674,1.674,0,0,1,.42,1.208v1.714a8.407,8.407,0,0,1,7.033-3.359,6.809,6.809,0,0,1,5.2,1.942,7.658,7.658,0,0,1,1.837,5.476v8.783a1.633,1.633,0,0,1-.437,1.208,1.813,1.813,0,0,1-2.362,0,1.67,1.67,0,0,1-.42-1.208V36.782a5.036,5.036,0,0,0-1.1-3.534,4.248,4.248,0,0,0-3.272-1.189,5.971,5.971,0,0,0-6.4,6.4v7.1a1.514,1.514,0,0,1-1.645,1.645A1.514,1.514,0,0,1,289.067,46.772Z" transform="translate(-181.052 -21.553)" fill="#fff"/>
    <path id="Path_10" data-name="Path 10" d="M331.177,38.883a7.714,7.714,0,0,1-3.254-3.062,9.264,9.264,0,0,1-1.155-4.724,9.7,9.7,0,0,1,1.1-4.671,7.687,7.687,0,0,1,3.237-3.184,10.658,10.658,0,0,1,5.074-1.137,8.74,8.74,0,0,1,4.042.857,10.208,10.208,0,0,1,3.027,2.432l.035-9.456a1.514,1.514,0,0,1,1.644-1.644,1.528,1.528,0,0,1,1.155.437,1.672,1.672,0,0,1,.42,1.207V38.3a1.672,1.672,0,0,1-.42,1.208,1.528,1.528,0,0,1-1.155.437,1.514,1.514,0,0,1-1.644-1.645V36.59a8.319,8.319,0,0,1-7.173,3.359A10.756,10.756,0,0,1,331.177,38.883Zm10.287-3.289a5.875,5.875,0,0,0,1.82-4.567,5.731,5.731,0,0,0-1.924-4.549A7.13,7.13,0,0,0,336.5,24.8a6.431,6.431,0,0,0-4.759,1.714,6.2,6.2,0,0,0-1.714,4.584,5.945,5.945,0,0,0,1.7,4.584,6.706,6.706,0,0,0,4.741,1.575A7.14,7.14,0,0,0,341.464,35.593Z" transform="translate(-199.407 -14.293)" fill="#fff"/>
  </g>
  <path id="Path_11" data-name="Path 11" d="M17.211,0C10.255,0,0,5.234,0,16.862S10.291,35.651,17.211,41.149c6.919-5.5,17.211-12.659,17.211-24.287S24.167,0,17.211,0ZM28.279,17.4a.4.4,0,0,1-.4.4H26.2a.063.063,0,0,0-.039.111l.812.655a.4.4,0,0,1,.032.592l-.252.252a.4.4,0,0,1-.563,0L24.6,17.814a.065.065,0,0,0-.045-.018H18.618a.044.044,0,0,0-.031.076l4.263,4.11a.065.065,0,0,0,.045.018h2.223a.4.4,0,0,1,.4.4v.356a.4.4,0,0,1-.442.4l-1.008-.11a.063.063,0,0,0-.051.107l1.172,1.172a.4.4,0,0,1,0,.563l-.283.283a.4.4,0,0,1-.563,0l-1.186-1.186a.063.063,0,0,0-.107.051l.111,1.038a.4.4,0,0,1-.4.441h-.357a.4.4,0,0,1-.4-.4V22.859a.063.063,0,0,0-.018-.044L17.9,18.571a.044.044,0,0,0-.076.031v5.966a.065.065,0,0,0,.018.045l1.572,1.571a.4.4,0,0,1,0,.563L19.162,27a.4.4,0,0,1-.592-.032l-.635-.791a.063.063,0,0,0-.111.039v1.658a.4.4,0,0,1-.4.4h-.4a.4.4,0,0,1-.4-.4V26.2a.063.063,0,0,0-.112-.039l-.655.812a.4.4,0,0,1-.591.032l-.252-.252a.4.4,0,0,1,0-.563l1.591-1.591a.063.063,0,0,0,.019-.045V18.582a.044.044,0,0,0-.076-.031l-4.11,4.263a.061.061,0,0,0-.018.044V25.11a.4.4,0,0,1-.4.4h-.357a.4.4,0,0,1-.4-.441l.111-1.038a.063.063,0,0,0-.107-.051l-1.187,1.186a.4.4,0,0,1-.563,0l-.284-.283a.4.4,0,0,1,0-.563l1.173-1.172a.063.063,0,0,0-.051-.107l-1.008.11a.4.4,0,0,1-.442-.4V22.4a.4.4,0,0,1,.4-.4h2.223a.063.063,0,0,0,.044-.018l4.263-4.11a.044.044,0,0,0-.031-.076H9.873a.064.064,0,0,0-.044.018L8.237,19.406a.4.4,0,0,1-.563,0l-.252-.252a.4.4,0,0,1,.032-.592l.812-.655a.063.063,0,0,0-.039-.111H6.548a.4.4,0,0,1-.4-.4V17a.4.4,0,0,1,.4-.4H8.206a.063.063,0,0,0,.039-.111l-.791-.635a.4.4,0,0,1-.032-.592l.251-.251a.4.4,0,0,1,.563,0L9.809,16.58a.064.064,0,0,0,.044.018h5.966a.044.044,0,0,0,.031-.076l-4.244-4.09a.062.062,0,0,0-.045-.018H9.312a.4.4,0,0,1-.4-.4v-.357a.4.4,0,0,1,.441-.4l1.038.111a.063.063,0,0,0,.051-.107L9.256,10.081a.4.4,0,0,1,0-.563l.284-.284a.4.4,0,0,1,.563,0l1.172,1.173a.063.063,0,0,0,.107-.051l-.11-1.009a.4.4,0,0,1,.4-.441h.356a.4.4,0,0,1,.4.4v2.223a.061.061,0,0,0,.018.044l4.11,4.263a.044.044,0,0,0,.076-.031V9.865a.062.062,0,0,0-.019-.044L15.016,8.229a.4.4,0,0,1,0-.563l.252-.252a.4.4,0,0,1,.591.032l.655.812a.063.063,0,0,0,.112-.039V6.541a.4.4,0,0,1,.4-.4h.4a.4.4,0,0,1,.4.4V8.2a.063.063,0,0,0,.111.039l.635-.791a.4.4,0,0,1,.592-.032l.251.251a.4.4,0,0,1,0,.563L17.842,9.8a.064.064,0,0,0-.018.044v5.939a.044.044,0,0,0,.076.031l4.09-4.244a.063.063,0,0,0,.018-.044V9.3a.4.4,0,0,1,.4-.4h.356a.4.4,0,0,1,.4.441l-.11,1.009a.063.063,0,0,0,.107.051l1.172-1.173a.4.4,0,0,1,.563,0l.284.284a.4.4,0,0,1,0,.563l-1.187,1.187a.063.063,0,0,0,.051.107l1.038-.111a.4.4,0,0,1,.441.4v.357a.4.4,0,0,1-.4.4H22.867a.062.062,0,0,0-.044.018l-4.244,4.09a.044.044,0,0,0,.031.076h5.966a.065.065,0,0,0,.045-.018l1.571-1.572a.4.4,0,0,1,.563,0l.251.251a.4.4,0,0,1-.032.592l-.791.635a.063.063,0,0,0,.039.111h1.658a.4.4,0,0,1,.4.4Z" fill="#fff"/>
</svg>
