<svg xmlns="http://www.w3.org/2000/svg" xmlns:xlink="http://www.w3.org/1999/xlink" width="1920" height="1080" viewBox="0 0 1920 1080">
  <defs>
    <clipPath id="clip-General:_Sign_in">
      <rect width="1920" height="1080"/>
    </clipPath>
  </defs>
  <g id="General:_Sign_in" data-name="General: Sign in" clip-path="url(#clip-General:_Sign_in)">
    <rect width="1920" height="1080" fill="#fff"/>
    <path id="Path_108" data-name="Path 108" d="M0,0H1920V1080H0Z" fill="#faf5dd"/>
    <rect id="Rectangle_3" data-name="Rectangle 3" width="450" height="60" rx="25" transform="translate(761 540)" fill="#fff"/>
    <rect id="Rectangle_4" data-name="Rectangle 4" width="450" height="60" rx="22" transform="translate(761 613)" fill="#fff"/>
    <path id="Path_99" data-name="Path 99" d="M30,0H170a30,30,0,0,1,30,30V40a30,30,0,0,1-30,30H30A30,30,0,0,1,0,40V30A30,30,0,0,1,30,0Z" transform="translate(886 771)" fill="#96616b"/>
    <text id="username" transform="translate(782 579)" fill="#3a3335" font-size="30" font-family="Rubik-Regular, Rubik"><tspan x="0" y="0">username</tspan></text>
    <text id="password" transform="translate(782 653)" fill="#3a3335" font-size="30" font-family="Rubik-Regular, Rubik"><tspan x="0" y="0">password</tspan></text>
    <text id="Sign_in" data-name="Sign in" transform="translate(939 816)" fill="#faf6dd" font-size="30" font-family="Rubik-Regular, Rubik"><tspan x="0" y="0">Sign in</tspan></text>
    <text id="don_t_have_an_account_with_us_" data-name="don’t have an account with us?" transform="translate(1282 848)" fill="#707070" font-size="20" font-family="Rubik-Regular, Rubik" text-decoration="underline"><tspan x="0" y="0">don’t have an account with us?</tspan></text>
    <text id="Welcome_" data-name="Welcome!" transform="translate(738 299)" fill="#0c2163" font-size="100" font-family="Baloo-Regular, Baloo"><tspan x="0" y="0">Welcome!</tspan></text>
    <g id="Group_26" data-name="Group 26" transform="translate(60 15)">
      <path id="Path_70" data-name="Path 70" d="M2,0H340a2,2,0,0,1,2,2V137a2,2,0,0,1-2,2H2a2,2,0,0,1-2-2V2A2,2,0,0,1,2,0Z" transform="translate(707 316)" fill="#c7ddf4"/>
      <path id="Path_31" data-name="Path 31" d="M0,0H458V27H0Z" transform="translate(701 452)" fill="#3a3335"/>
      <text id="Transport" transform="translate(720 431)" fill="#031238" font-size="68" font-family="FasterOne-Regular, Faster One"><tspan x="0" y="0">T</tspan><tspan y="0" font-size="48">ransport</tspan></text>
      <path id="Path_32" data-name="Path 32" d="M3,0H47a3,3,0,0,1,3,3L65.228,39.055s15.474,1.808,30.98,5.111c2.357,2.963,1.61,15.3,2.388,22.05-.019,20.435.383,46.381.383,46.381-10.366,1.794-73.845-8.211-75.5-8.211,0,0-10.065-1.582-15.493-3.052S2.821,100.5,0,100.02,0,3,0,3A3,3,0,0,1,3,0Z" transform="translate(1060 352)" fill="#96616b"/>
      <rect id="Rectangle_26" data-name="Rectangle 26" width="35" height="33" transform="translate(1069 359)" fill="#c8ddf4"/>
      <path id="Path_33" data-name="Path 33" d="M543.911,382.51" transform="translate(279 -101)" fill="none" stroke="#707070" stroke-width="1"/>
      <line id="Line_2" data-name="Line 2" x2="10" transform="translate(1065.5 399.5)" fill="none" stroke="#eddfa4" stroke-width="3"/>
      <path id="Path_34" data-name="Path 34" d="M0,0H4.627L6,22.151V63.5H0Z" transform="translate(1153 399.5)" fill="#ded7d7"/>
      <path id="Path_36" data-name="Path 36" d="M31.462.943c11.593,0,23.8,8.078,29.633,18.611,1.571,3.97,1.341,3.479,1.545,4.023-1.333.656-14.913-13.6-31.178-13.6-10.451,0-17.769,4.891-22.983,6.123-.766.181-6.542-.768-6.542-.768s1.153-1.8,1.946-2.857C10.074,3.98,20.493.79,31.462.943Z" transform="translate(1074.247 440)" fill="#81565e"/>
      <text id="Op" transform="translate(1071 442)" fill="#031238" font-size="62" font-family="FasterOne-Regular, Faster One"><tspan x="0" y="0">O</tspan><tspan y="0" font-size="42">p</tspan></text>
      <g id="Group_23" data-name="Group 23" transform="translate(-2490.866 545)">
        <path id="Path_1" data-name="Path 1" d="M30.234.943C41.488.943,53.1,8.782,59.058,19.615,61.773,24.553,62.5,30.375,62.5,35.432c0,15.326-15.47-3.081-32.267-3.081s-32.6,18.407-32.6,3.081c0-6.391.927-13.42,5.521-19.91C9.167,7.027,19.587.79,30.234.943Z" transform="translate(3566.23 -103)" fill="#393737"/>
        <g id="Group_3" data-name="Group 3" transform="translate(3564 -99)">
          <ellipse id="Ellipse_3" data-name="Ellipse 3" cx="32.34" cy="30.97" rx="32.34" ry="30.97" fill="#050404"/>
          <circle id="Ellipse_4" data-name="Ellipse 4" cx="15" cy="15" r="15" transform="translate(17.34 16.769)" fill="#a8a8a8"/>
        </g>
      </g>
      <path id="Path_37" data-name="Path 37" d="M0,0,347.86-2.357V29.662L0,27Z" transform="translate(701 442)" fill="#3a3335"/>
      <g id="Group_24" data-name="Group 24" transform="translate(-2590 545)">
        <path id="Path_1-2" data-name="Path 1" d="M29.493.943c11,0,22.349,7.839,28.168,18.672,2.654,4.937,3.365,10.759,3.365,15.817,0,15.326-15.118-3.081-31.533-3.081S-2.365,50.758-2.365,35.432c0-6.391.906-13.42,5.4-19.91C8.9,7.027,19.087.79,29.493.943Z" transform="translate(3566.23 -103)" fill="#393737"/>
        <g id="Group_3-2" data-name="Group 3" transform="translate(3564 -99)">
          <ellipse id="Ellipse_3-2" data-name="Ellipse 3" cx="31.602" cy="30.97" rx="31.602" ry="30.97" transform="translate(0)" fill="#050404"/>
          <circle id="Ellipse_4-2" data-name="Ellipse 4" cx="15" cy="15" r="15" transform="translate(16.602 16.769)" fill="#a8a8a8"/>
        </g>
      </g>
      <g id="Group_25" data-name="Group 25" transform="translate(-2853 545)">
        <path id="Path_1-3" data-name="Path 1" d="M30.3.943c11.277,0,22.916,7.839,28.883,18.672,2.721,4.937,3.451,10.759,3.451,15.817,0,15.326-15.5-3.081-32.334-3.081S-2.365,50.758-2.365,35.432c0-6.391.929-13.42,5.533-19.91C9.191,7.027,19.632.79,30.3.943Z" transform="translate(3566.23 -103)" fill="#393737"/>
        <g id="Group_3-3" data-name="Group 3" transform="translate(3564 -99)">
          <ellipse id="Ellipse_3-3" data-name="Ellipse 3" cx="32.407" cy="30.97" rx="32.407" ry="30.97" transform="translate(0)" fill="#050404"/>
          <circle id="Ellipse_4-3" data-name="Ellipse 4" cx="15" cy="15" r="15" transform="translate(17.407 16.769)" fill="#a8a8a8"/>
        </g>
      </g>
      <g id="Group_56" data-name="Group 56">
        <path id="Path_71" data-name="Path 71" d="M0,.518C1.091-.035,2.179-.335,2.695.612c1.145,5.985.638,4.951.638,4.951" transform="matrix(0.999, -0.035, 0.035, 0.999, 1107.568, 363.434)" fill="none" stroke="#eddea4" stroke-width="1"/>
        <path id="Path_72" data-name="Path 72" d="M0,7.447H0l3.821-.5c2.967-.676.86-3.91.86-3.91" transform="matrix(0.999, 0.035, -0.035, 0.999, 1108.737, 384.83)" fill="none" stroke="#eddea4" stroke-width="1"/>
        <g id="Rectangle_73" data-name="Rectangle 73" transform="translate(1108.437 368.381) rotate(-8)" fill="#eddea4" stroke="#eddea4" stroke-width="1">
          <rect width="5" height="21" rx="2" stroke="none"/>
          <rect x="0.5" y="0.5" width="4" height="20" rx="1.5" fill="none"/>
        </g>
      </g>
    </g>
  </g>
</svg>
