<svg xmlns="http://www.w3.org/2000/svg" width="43.882" height="35" viewBox="0 0 43.882 35">
  <g id="Group_87" data-name="Group 87" transform="translate(0 0.333)">
    <path id="Icon_ionic-ios-arrow-down" data-name="Icon ionic-ios-arrow-down" d="M21.949,17.442,38.541.917A3.129,3.129,0,0,1,42.97,5.337L24.17,24.06a3.141,3.141,0,0,1-4.324.091L.915,5.35A3.129,3.129,0,0,1,5.344.93Z" transform="translate(43.882 24.635) rotate(180)" fill="#fff"/>
    <path id="Icon_ionic-ios-arrow-down-2" data-name="Icon ionic-ios-arrow-down" d="M16.464,13.362,28.911.7a2.316,2.316,0,0,1,3.322,0,2.439,2.439,0,0,1,0,3.386L18.13,18.431a2.321,2.321,0,0,1-3.244.07L.686,4.1a2.433,2.433,0,0,1,0-3.386,2.316,2.316,0,0,1,3.322,0Z" transform="translate(38.399 34.667) rotate(180)" fill="#fff" opacity="0.5"/>
  </g>
</svg>
