<svg xmlns="http://www.w3.org/2000/svg" width="32" height="32" viewBox="0 0 32 32">
  <g id="Group_33" data-name="Group 33" transform="translate(0.112 0.252)">
    <g id="Rectangle_10" data-name="Rectangle 10" transform="translate(-0.112 -0.252)" fill="none" stroke="#008fbe" stroke-width="1">
      <rect width="32" height="32" rx="5" stroke="none"/>
      <rect x="0.5" y="0.5" width="31" height="31" rx="4.5" fill="none"/>
    </g>
    <path id="Icon_awesome-calendar-alt" data-name="Icon awesome-calendar-alt" d="M0,15.881a1.643,1.643,0,0,0,1.643,1.643H13.691a1.643,1.643,0,0,0,1.643-1.643V6.571H0ZM10.952,9.173a.412.412,0,0,1,.411-.411h1.369a.412.412,0,0,1,.411.411v1.369a.412.412,0,0,1-.411.411H11.363a.412.412,0,0,1-.411-.411Zm0,4.381a.412.412,0,0,1,.411-.411h1.369a.412.412,0,0,1,.411.411v1.369a.412.412,0,0,1-.411.411H11.363a.412.412,0,0,1-.411-.411ZM6.571,9.173a.412.412,0,0,1,.411-.411H8.351a.412.412,0,0,1,.411.411v1.369a.412.412,0,0,1-.411.411H6.982a.412.412,0,0,1-.411-.411Zm0,4.381a.412.412,0,0,1,.411-.411H8.351a.412.412,0,0,1,.411.411v1.369a.412.412,0,0,1-.411.411H6.982a.412.412,0,0,1-.411-.411ZM2.19,9.173A.412.412,0,0,1,2.6,8.762H3.97a.412.412,0,0,1,.411.411v1.369a.412.412,0,0,1-.411.411H2.6a.412.412,0,0,1-.411-.411Zm0,4.381a.412.412,0,0,1,.411-.411H3.97a.412.412,0,0,1,.411.411v1.369a.412.412,0,0,1-.411.411H2.6a.412.412,0,0,1-.411-.411ZM13.691,2.19H12.048V.548A.549.549,0,0,0,11.5,0H10.4a.549.549,0,0,0-.548.548V2.19H5.476V.548A.549.549,0,0,0,4.929,0h-1.1a.549.549,0,0,0-.548.548V2.19H1.643A1.643,1.643,0,0,0,0,3.833V5.476H15.333V3.833A1.643,1.643,0,0,0,13.691,2.19Z" transform="translate(8.792 6.95)" fill="#008fbe"/>
  </g>
</svg>
