<svg xmlns="http://www.w3.org/2000/svg" xmlns:xlink="http://www.w3.org/1999/xlink" width="501" height="113" viewBox="0 0 501 113">
  <defs>
    <filter id="Rectangle_11" x="138" y="0" width="222" height="113" filterUnits="userSpaceOnUse">
      <feOffset dy="3" input="SourceAlpha"/>
      <feGaussianBlur stdDeviation="3" result="blur"/>
      <feFlood flood-opacity="0.161"/>
      <feComposite operator="in" in2="blur"/>
      <feComposite in="SourceGraphic"/>
    </filter>
    <filter id="Rectangle_11-2" x="354" y="17" width="147" height="78" filterUnits="userSpaceOnUse">
      <feOffset dy="3" input="SourceAlpha"/>
      <feGaussianBlur stdDeviation="3" result="blur-2"/>
      <feFlood flood-opacity="0.161"/>
      <feComposite operator="in" in2="blur-2"/>
      <feComposite in="SourceGraphic"/>
    </filter>
    <filter id="Rectangle_11-3" x="0" y="16" width="148" height="79" filterUnits="userSpaceOnUse">
      <feOffset dy="3" input="SourceAlpha"/>
      <feGaussianBlur stdDeviation="3" result="blur-3"/>
      <feFlood flood-opacity="0.161"/>
      <feComposite operator="in" in2="blur-3"/>
      <feComposite in="SourceGraphic"/>
    </filter>
    <filter id="Rectangle_30" x="354" y="12" width="38" height="88" filterUnits="userSpaceOnUse">
      <feOffset dy="3" input="SourceAlpha"/>
      <feGaussianBlur stdDeviation="3" result="blur-4"/>
      <feFlood flood-opacity="0.161"/>
      <feComposite operator="in" in2="blur-4"/>
      <feComposite in="SourceGraphic"/>
    </filter>
    <filter id="Rectangle_30-2" x="110" y="12" width="38" height="88" filterUnits="userSpaceOnUse">
      <feOffset dy="3" input="SourceAlpha"/>
      <feGaussianBlur stdDeviation="3" result="blur-5"/>
      <feFlood flood-opacity="0.161"/>
      <feComposite operator="in" in2="blur-5"/>
      <feComposite in="SourceGraphic"/>
    </filter>
  </defs>
  <g id="Group_94" data-name="Group 94" transform="translate(80 -423)">
    <g id="Group_67" data-name="Group 67" transform="translate(-148 212)">
      <g id="Group_36" data-name="Group 36" transform="translate(214.837 217.055)">
        <g transform="matrix(1, 0, 0, 1, -146.84, -6.06)" filter="url(#Rectangle_11)">
          <rect id="Rectangle_11-4" data-name="Rectangle 11" width="204" height="95" rx="7" transform="translate(147 6)" fill="#fff"/>
        </g>
        <text id="Cryo_Machine_2" data-name="Cryo Machine 2" transform="translate(102.163 39.945)" font-size="15" font-family="Nunito-Regular, Nunito"><tspan x="-52.38" y="0">Cryo Machine 2</tspan></text>
        <text id="Duration:_30_minutes" data-name="Duration: 30 minutes" transform="translate(104.163 61.945)" font-size="14" font-family="Nunito-Light, Nunito" font-weight="300"><tspan x="-64.631" y="0">Duration: 30 minutes</tspan></text>
        <text id="Price:_35_25" data-name="Price: $35 $25" transform="translate(102.163 80.945)" font-size="14" font-family="Nunito-Light, Nunito" font-weight="300"><tspan x="-45.598" y="0">Price: </tspan><tspan y="0" text-decoration="line-through">$35</tspan><tspan y="0" xml:space="preserve"> $25</tspan></text>
      </g>
      <g id="Group_66" data-name="Group 66" transform="translate(430.837 234.055)">
        <g transform="matrix(1, 0, 0, 1, -362.84, -23.06)" filter="url(#Rectangle_11-2)">
          <rect id="Rectangle_11-5" data-name="Rectangle 11" width="129" height="60" rx="7" transform="translate(363 23)" fill="#fff"/>
        </g>
        <text id="Cryo_Machine_1" data-name="Cryo Machine 1" transform="translate(63.163 15.945)" font-size="9" font-family="Nunito-Regular, Nunito" opacity="0.4"><tspan x="-31.428" y="0">Cryo Machine 1</tspan></text>
        <text id="Duration:_30_minutes-2" data-name="Duration: 30 minutes" transform="translate(62.163 27.945)" font-size="8" font-family="Nunito-Light, Nunito" font-weight="300" opacity="0.4"><tspan x="-36.932" y="0">Duration: 30 minutes</tspan></text>
        <text id="Price:_35_25-2" data-name="Price: $35 $25" transform="translate(66.163 40.945)" font-size="9" font-family="Nunito-Light, Nunito" font-weight="300" opacity="0.4"><tspan x="-29.313" y="0">Price: </tspan><tspan y="0" text-decoration="line-through">$35</tspan><tspan y="0" xml:space="preserve"> $25</tspan></text>
        <text id="First_Visit_Discount_" data-name="First Visit Discount!" transform="translate(66.163 49.945)" fill="#008fbe" font-size="5" font-family="Nunito-Light, Nunito" font-weight="300" opacity="0.4"><tspan x="-21.135" y="0">First Visit Discount!</tspan></text>
      </g>
    </g>
    <g id="Group_34" data-name="Group 34" transform="translate(-71.657 445.055)">
      <g transform="matrix(1, 0, 0, 1, -8.34, -22.06)" filter="url(#Rectangle_11-3)">
        <rect id="Rectangle_11-6" data-name="Rectangle 11" width="130" height="61" rx="7" transform="translate(9 22)" fill="#fff"/>
      </g>
      <text id="Cryo_Machine_1-2" data-name="Cryo Machine 1" transform="translate(63.657 15.945)" font-size="9" font-family="Nunito-Regular, Nunito" opacity="0.4"><tspan x="-31.428" y="0">Cryo Machine 1</tspan></text>
      <text id="Duration:_30_minutes-3" data-name="Duration: 30 minutes" transform="translate(62.657 28.945)" font-size="8" font-family="Nunito-Light, Nunito" font-weight="300" opacity="0.4"><tspan x="-36.932" y="0">Duration: 30 minutes</tspan></text>
      <text id="Price:_35_25-3" data-name="Price: $35 $25" transform="translate(66.657 41.945)" font-size="9" font-family="Nunito-Light, Nunito" font-weight="300" opacity="0.4"><tspan x="-29.313" y="0">Price: </tspan><tspan y="0" text-decoration="line-through">$35</tspan><tspan y="0" xml:space="preserve"> $25</tspan></text>
      <text id="First_Visit_Discount_2" data-name="First Visit Discount!" transform="translate(60.657 50.945)" fill="#008fbe" font-size="5" font-family="Nunito-Light, Nunito" font-weight="300" opacity="0.4"><tspan x="-21.135" y="0">First Visit Discount!</tspan></text>
    </g>
    <g id="Group_38" data-name="Group 38" transform="translate(-9 212)">
      <g transform="matrix(1, 0, 0, 1, -71, 211)" filter="url(#Rectangle_30)">
        <rect id="Rectangle_30-3" data-name="Rectangle 30" width="20" height="70" rx="2" transform="translate(363 18)" fill="#008fbe"/>
      </g>
      <path id="Icon_awesome-arrow-right" data-name="Icon awesome-arrow-right" d="M5.465,3.486,6.1,2.85a.686.686,0,0,1,.972,0l5.577,5.574a.686.686,0,0,1,0,.972L7.074,14.973a.686.686,0,0,1-.972,0l-.637-.637a.689.689,0,0,1,.011-.984l3.457-3.293H.688A.687.687,0,0,1,0,9.37V8.452a.687.687,0,0,1,.688-.688H8.933L5.476,4.47A.684.684,0,0,1,5.465,3.486Z" transform="translate(295.15 255.353)" fill="#fff"/>
    </g>
    <g id="Group_39" data-name="Group 39" transform="translate(351 740) rotate(180)">
      <g transform="matrix(-1, 0, 0, -1, 431, 317)" filter="url(#Rectangle_30-2)">
        <rect id="Rectangle_30-4" data-name="Rectangle 30" width="20" height="70" rx="2" transform="translate(139 88) rotate(180)" fill="#008fbe"/>
      </g>
      <path id="Icon_awesome-arrow-right-2" data-name="Icon awesome-arrow-right" d="M5.465,3.486,6.1,2.85a.686.686,0,0,1,.972,0l5.577,5.574a.686.686,0,0,1,0,.972L7.074,14.973a.686.686,0,0,1-.972,0l-.637-.637a.689.689,0,0,1,.011-.984l3.457-3.293H.688A.687.687,0,0,1,0,9.37V8.452a.687.687,0,0,1,.688-.688H8.933L5.476,4.47A.684.684,0,0,1,5.465,3.486Z" transform="translate(295.15 255.353)" fill="#fff"/>
    </g>
  </g>
</svg>
