<svg xmlns="http://www.w3.org/2000/svg" xmlns:xlink="http://www.w3.org/1999/xlink" width="38" height="88" viewBox="0 0 38 88">
  <defs>
    <filter id="Rectangle_30" x="0" y="0" width="38" height="88" filterUnits="userSpaceOnUse">
      <feOffset dy="3" input="SourceAlpha"/>
      <feGaussianBlur stdDeviation="3" result="blur"/>
      <feFlood flood-opacity="0.161"/>
      <feComposite operator="in" in2="blur"/>
      <feComposite in="SourceGraphic"/>
    </filter>
  </defs>
  <g id="Group_39" data-name="Group 39" transform="translate(321 305) rotate(180)">
    <g transform="matrix(-1, 0, 0, -1, 321, 305)" filter="url(#Rectangle_30)">
      <rect id="Rectangle_30-2" data-name="Rectangle 30" width="20" height="70" rx="2" transform="translate(29 76) rotate(180)" fill="#008fbe"/>
    </g>
    <path id="Icon_awesome-arrow-right" data-name="Icon awesome-arrow-right" d="M5.465,3.486,6.1,2.85a.686.686,0,0,1,.972,0l5.577,5.574a.686.686,0,0,1,0,.972L7.074,14.973a.686.686,0,0,1-.972,0l-.637-.637a.689.689,0,0,1,.011-.984l3.457-3.293H.688A.687.687,0,0,1,0,9.37V8.452a.687.687,0,0,1,.688-.688H8.933L5.476,4.47A.684.684,0,0,1,5.465,3.486Z" transform="translate(295.15 255.353)" fill="#fff"/>
  </g>
</svg>
