<svg id="Group_14" data-name="Group 14" xmlns="http://www.w3.org/2000/svg" width="24.515" height="29.306" viewBox="0 0 24.515 29.306">
  <path id="Path_1" data-name="Path 1" d="M12.258,0C7.3,0,0,3.728,0,12.009s7.33,13.381,12.258,17.3c4.928-3.916,12.258-9.016,12.258-17.3S17.212,0,12.258,0Z" fill="#007fb2"/>
  <path id="Path_2" data-name="Path 2" d="M27.344,19.3H26.163a.045.045,0,0,1-.028-.079l.563-.453a.284.284,0,0,0,.023-.422l-.179-.179a.284.284,0,0,0-.4,0l-1.119,1.119a.045.045,0,0,1-.032.013H20.741a.031.031,0,0,1-.022-.054l3.022-2.913a.043.043,0,0,1,.031-.013h1.6a.284.284,0,0,0,.283-.283v-.254a.283.283,0,0,0-.314-.282l-.739.079a.045.045,0,0,1-.036-.076l.845-.845a.284.284,0,0,0,0-.4l-.2-.2a.284.284,0,0,0-.4,0l-.835.835a.045.045,0,0,1-.076-.037l.079-.718a.283.283,0,0,0-.282-.314h-.253a.284.284,0,0,0-.283.283v1.583a.045.045,0,0,1-.013.031L20.235,18.74a.031.031,0,0,1-.054-.022V14.489a.046.046,0,0,1,.013-.032l1.12-1.12a.283.283,0,0,0,0-.4l-.179-.179a.284.284,0,0,0-.422.023l-.453.563a.045.045,0,0,1-.079-.028V12.135a.284.284,0,0,0-.283-.283h-.286a.284.284,0,0,0-.283.283v1.2a.045.045,0,0,1-.079.028l-.467-.578a.283.283,0,0,0-.421-.023l-.179.179a.283.283,0,0,0,0,.4l1.133,1.134a.044.044,0,0,1,.013.031v4.23a.031.031,0,0,1-.054.022l-2.927-3.036a.043.043,0,0,1-.013-.031V14.1a.284.284,0,0,0-.283-.283H15.8a.283.283,0,0,0-.282.314l.078.718a.045.045,0,0,1-.076.037l-.835-.835a.283.283,0,0,0-.4,0l-.2.2a.283.283,0,0,0,0,.4l.845.845a.045.045,0,0,1-.037.076l-.739-.079a.283.283,0,0,0-.314.282v.254a.284.284,0,0,0,.283.283h1.6a.045.045,0,0,1,.032.013l3.022,2.913a.032.032,0,0,1-.022.054H14.5a.044.044,0,0,1-.031-.013l-1.12-1.119a.283.283,0,0,0-.4,0l-.179.179a.284.284,0,0,0,.023.422l.563.453a.045.045,0,0,1-.028.079H12.15a.284.284,0,0,0-.283.283v.286a.284.284,0,0,0,.283.283h1.2a.045.045,0,0,1,.028.079L12.8,20.7a.284.284,0,0,0-.023.422l.179.179a.283.283,0,0,0,.4,0l1.134-1.134a.045.045,0,0,1,.031-.013h4.23a.031.031,0,0,1,.022.054l-3.036,2.927a.045.045,0,0,1-.031.013H14.119a.284.284,0,0,0-.283.283v.253a.283.283,0,0,0,.314.282l.718-.079a.045.045,0,0,1,.037.076l-.835.835a.284.284,0,0,0,0,.4l.2.2a.284.284,0,0,0,.4,0l.845-.845a.045.045,0,0,1,.076.036l-.079.739a.283.283,0,0,0,.282.314h.254a.284.284,0,0,0,.283-.283v-1.6a.044.044,0,0,1,.013-.031l2.927-3.036a.031.031,0,0,1,.054.022v4.249a.045.045,0,0,1-.013.032l-1.133,1.133a.284.284,0,0,0,0,.4l.179.179a.284.284,0,0,0,.421-.023l.467-.578a.045.045,0,0,1,.079.028v1.2a.284.284,0,0,0,.283.283H19.9a.284.284,0,0,0,.283-.283V26.148a.045.045,0,0,1,.079-.028l.453.563a.284.284,0,0,0,.422.023l.179-.179a.284.284,0,0,0,0-.4l-1.12-1.119a.046.046,0,0,1-.013-.032V20.726a.031.031,0,0,1,.054-.022l2.913,3.022a.045.045,0,0,1,.013.031v1.6a.284.284,0,0,0,.283.283H23.7a.284.284,0,0,0,.282-.314l-.079-.739a.045.045,0,0,1,.076-.036l.845.845a.284.284,0,0,0,.4,0l.2-.2a.284.284,0,0,0,0-.4l-.835-.835a.045.045,0,0,1,.037-.076l.718.079a.283.283,0,0,0,.314-.282v-.253a.284.284,0,0,0-.283-.283H23.792a.046.046,0,0,1-.032-.013l-3.036-2.927a.031.031,0,0,1,.022-.054h4.229a.046.046,0,0,1,.032.013L26.141,21.3a.284.284,0,0,0,.4,0l.179-.179A.284.284,0,0,0,26.7,20.7l-.578-.466a.045.045,0,0,1,.028-.079h1.2a.284.284,0,0,0,.283-.283v-.286A.284.284,0,0,0,27.344,19.3Z" transform="translate(-7.487 -7.477)" fill="#fff"/>
</svg>
