<svg xmlns="http://www.w3.org/2000/svg" width="301" height="41" viewBox="0 0 301 41">
  <g id="Group_78" data-name="Group 78" transform="translate(-30 -524)">
    <g id="Rectangle_19" data-name="Rectangle 19" transform="translate(30 524)" fill="#fff" stroke="#008fbe" stroke-width="1">
      <rect width="301" height="41" rx="20.5" stroke="none"/>
      <rect x="0.5" y="0.5" width="300" height="40" rx="20" fill="none"/>
    </g>
    <g id="Group_75" data-name="Group 75" transform="translate(21.75)">
      <text id="Log_in_with_Google" data-name="Log in with Google" transform="translate(175 551)" fill="#008fbe" font-size="20" font-family="Nunito-Regular, Nunito"><tspan x="-84.15" y="0">Log in with Google</tspan></text>
      <path id="Icon_awesome-google" data-name="Icon awesome-google" d="M17.75,9.794c0,5.147-3.525,8.81-8.73,8.81A9.02,9.02,0,0,1,9.02.563a8.675,8.675,0,0,1,6.049,2.361L12.614,5.284C9.4,2.185,3.43,4.513,3.43,9.583a5.65,5.65,0,0,0,5.591,5.7,4.878,4.878,0,0,0,5.121-3.888H9.02v-3.1h8.588A7.908,7.908,0,0,1,17.75,9.794Z" transform="translate(58.25 534.438)" fill="#008fbe"/>
    </g>
  </g>
</svg>
