<svg xmlns="http://www.w3.org/2000/svg" width="363" height="72" viewBox="0 0 363 72">
  <g id="Group_108" data-name="Group 108" transform="translate(-26 -240)">
    <rect id="Rectangle_47" data-name="Rectangle 47" width="363" height="72" rx="11" transform="translate(26 240)" fill="rgba(255,255,255,0.71)"/>
    <g id="Group_107" data-name="Group 107">
      <path id="Path_16" data-name="Path 16" d="M6.311,0a6.272,6.272,0,0,1,6.311,6.232c0,3.442-6.311,8.1-6.311,8.1S0,9.674,0,6.232A6.272,6.272,0,0,1,6.311,0Z" transform="translate(36 247)" fill="#fff"/>
      <path id="Path_17" data-name="Path 17" d="M6.311,0C3.76,0,0,1.823,0,5.874s3.774,6.545,6.311,8.461c2.537-1.916,6.311-4.41,6.311-8.461S8.862,0,6.311,0ZM10.37,6.061a.142.142,0,0,1-.146.139H9.608a.022.022,0,0,0-.014.039l.3.228a.134.134,0,0,1,.012.206l-.092.088a.152.152,0,0,1-.207,0l-.583-.554A.024.024,0,0,0,9,6.2H6.827a.015.015,0,0,0-.011.027L8.379,7.658a.024.024,0,0,0,.016.006H9.21a.142.142,0,0,1,.146.139v.124a.143.143,0,0,1-.162.138l-.37-.038a.022.022,0,0,0-.019.037l.43.408a.134.134,0,0,1,0,.2l-.1.1a.152.152,0,0,1-.207,0L8.49,8.354a.023.023,0,0,0-.039.018l.041.361a.142.142,0,0,1-.145.153H8.216a.142.142,0,0,1-.146-.139V7.964a.021.021,0,0,0-.007-.015L6.564,6.47a.016.016,0,0,0-.028.011V8.559a.022.022,0,0,0,.007.016l.576.547a.134.134,0,0,1,0,.2l-.092.088a.151.151,0,0,1-.217-.011l-.233-.276a.023.023,0,0,0-.041.014V9.71a.142.142,0,0,1-.146.139H6.242A.142.142,0,0,1,6.1,9.71V9.126a.023.023,0,0,0-.041-.014l-.24.283a.151.151,0,0,1-.217.011l-.092-.088a.134.134,0,0,1,0-.2l.583-.554A.021.021,0,0,0,6.1,8.552V6.474a.016.016,0,0,0-.028-.011L4.561,7.948a.021.021,0,0,0-.007.015v.784a.142.142,0,0,1-.146.139H4.278a.142.142,0,0,1-.145-.153l.041-.361a.023.023,0,0,0-.039-.018L3.7,8.767a.151.151,0,0,1-.206,0l-.1-.1a.134.134,0,0,1,0-.2l.43-.408A.022.022,0,0,0,3.8,8.026l-.37.038a.143.143,0,0,1-.162-.138V7.8a.142.142,0,0,1,.146-.139H4.23a.024.024,0,0,0,.016-.006L5.809,6.226A.015.015,0,0,0,5.8,6.2H3.62a.024.024,0,0,0-.016.006l-.584.554a.151.151,0,0,1-.206,0l-.092-.088a.134.134,0,0,1,.012-.206l.3-.228A.022.022,0,0,0,3.017,6.2H2.4a.142.142,0,0,1-.146-.139v-.14A.142.142,0,0,1,2.4,5.782h.608a.022.022,0,0,0,.014-.039l-.29-.221a.134.134,0,0,1-.012-.206l.092-.088a.151.151,0,0,1,.206,0l.576.548a.024.024,0,0,0,.016.006H5.8a.015.015,0,0,0,.011-.027L4.256,4.331a.023.023,0,0,0-.016-.006H3.415a.142.142,0,0,1-.146-.139V4.062a.143.143,0,0,1,.162-.138l.38.039a.022.022,0,0,0,.019-.037l-.435-.413a.134.134,0,0,1,0-.2l.1-.1a.151.151,0,0,1,.206,0l.43.409a.023.023,0,0,0,.039-.018l-.04-.351A.141.141,0,0,1,4.278,3.1h.131a.142.142,0,0,1,.146.139v.774a.021.021,0,0,0,.007.015L6.069,5.516A.016.016,0,0,0,6.1,5.506V3.437a.021.021,0,0,0-.007-.015l-.583-.554a.134.134,0,0,1,0-.2L5.6,2.583a.151.151,0,0,1,.217.011l.24.283A.023.023,0,0,0,6.1,2.863V2.279a.142.142,0,0,1,.146-.139H6.39a.142.142,0,0,1,.146.139v.578a.023.023,0,0,0,.041.014l.233-.276a.151.151,0,0,1,.217-.011l.092.088a.134.134,0,0,1,0,.2l-.576.548a.022.022,0,0,0-.007.015V5.5a.016.016,0,0,0,.028.011l1.5-1.478a.021.021,0,0,0,.007-.015V3.241A.142.142,0,0,1,8.216,3.1h.13a.141.141,0,0,1,.145.154l-.04.351a.023.023,0,0,0,.039.018l.43-.409a.152.152,0,0,1,.207,0l.1.1a.134.134,0,0,1,0,.2L8.8,3.925a.022.022,0,0,0,.019.037l.38-.039a.143.143,0,0,1,.162.138v.124a.142.142,0,0,1-.146.139H8.385a.023.023,0,0,0-.016.006L6.813,5.756a.015.015,0,0,0,.011.027H9.012a.024.024,0,0,0,.016-.006L9.6,5.229a.152.152,0,0,1,.207,0l.092.088a.134.134,0,0,1-.012.206l-.29.221a.022.022,0,0,0,.014.039h.608a.142.142,0,0,1,.146.139Z" transform="translate(36 247)" fill="#008fbe"/>
    </g>
    <text id="CRYOFIND" transform="translate(54 258)" fill="#8b8b8b" font-size="12" font-family="'.AppleSystemUIFont'" font-weight="500"><tspan x="0" y="0">CRYOFIND</tspan></text>
    <text id="Your_Favorite_Cryospot_has_a_discount_" data-name="Your Favorite Cryospot has a discount!" transform="translate(36 279)" fill="#1c1b1b" font-size="12" font-family="'.AppleSystemUIFont'" font-weight="600"><tspan x="0" y="0">Your Favorite Cryospot has a discount!</tspan></text>
    <text id="_25_off_when_you_come_in_on_Fridays_Click_here_to_redeem_" data-name="25% off when you come in on Fridays! Click here to redeem
" transform="translate(36 294)" fill="#5a5a5a" font-size="12" font-family="'.AppleSystemUIFont'" font-weight="500"><tspan x="0" y="0">25% off when you come in on Fridays! Click here to redeem</tspan><tspan x="0" y="15"></tspan></text>
  </g>
</svg>
