<svg xmlns="http://www.w3.org/2000/svg" width="16.667" height="12.5" viewBox="0 0 16.667 12.5">
  <path id="Icon_awesome-envelope" data-name="Icon awesome-envelope" d="M16.351,8.628a.2.2,0,0,1,.316.153v6.657A1.563,1.563,0,0,1,15.1,17H1.563A1.563,1.563,0,0,1,0,15.438V8.784a.2.2,0,0,1,.316-.153c.729.566,1.7,1.286,5.016,3.7.687.5,1.846,1.556,3,1.55,1.162.01,2.344-1.068,3-1.55C14.659,9.917,15.622,9.194,16.351,8.628ZM8.334,12.834c.755.013,1.842-.951,2.389-1.348,4.32-3.135,4.649-3.408,5.645-4.19a.779.779,0,0,0,.3-.615V6.063A1.563,1.563,0,0,0,15.1,4.5H1.563A1.563,1.563,0,0,0,0,6.063v.619A.784.784,0,0,0,.3,7.3c1,.778,1.325,1.055,5.645,4.19C6.491,11.883,7.578,12.847,8.334,12.834Z" transform="translate(0 -4.5)" fill="#fff"/>
</svg>
