<svg xmlns="http://www.w3.org/2000/svg" width="16.143" height="16.146" viewBox="0 0 16.143 16.146">
  <path id="Icon_awesome-globe" data-name="Icon awesome-globe" d="M10.954,5.511C10.482,2.6,9.369.563,8.073.563S5.664,2.6,5.192,5.511ZM4.948,8.636a20.4,20.4,0,0,0,.107,2.083h6.032a20.4,20.4,0,0,0,.107-2.083,20.4,20.4,0,0,0-.107-2.083H5.055A20.4,20.4,0,0,0,4.948,8.636Zm10.57-3.125A8.09,8.09,0,0,0,10.375.9,10.987,10.987,0,0,1,12,5.511ZM5.768.9A8.085,8.085,0,0,0,.628,5.511H4.144A10.942,10.942,0,0,1,5.768.9Zm10.1,5.651H12.132c.068.684.107,1.383.107,2.083s-.039,1.4-.107,2.083h3.731a8,8,0,0,0,.28-2.083A8.143,8.143,0,0,0,15.866,6.552ZM3.906,8.636c0-.7.039-1.4.107-2.083H.28a7.892,7.892,0,0,0,0,4.167H4.011C3.945,10.035,3.906,9.336,3.906,8.636Zm1.286,3.125c.472,2.907,1.585,4.948,2.881,4.948s2.409-2.041,2.881-4.948Zm5.186,4.609a8.1,8.1,0,0,0,5.143-4.609H12.005a10.987,10.987,0,0,1-1.628,4.609ZM.628,11.761A8.09,8.09,0,0,0,5.772,16.37a10.987,10.987,0,0,1-1.628-4.609H.628Z" transform="translate(0 -0.563)" fill="#fff"/>
</svg>
