<svg xmlns="http://www.w3.org/2000/svg" xmlns:xlink="http://www.w3.org/1999/xlink" width="1920" height="1080" viewBox="0 0 1920 1080">
  <defs>
    <clipPath id="clip-Style_Guide:_Images_and_Icons">
      <rect width="1920" height="1080"/>
    </clipPath>
  </defs>
  <g id="Style_Guide:_Images_and_Icons" data-name="Style Guide: Images and Icons" clip-path="url(#clip-Style_Guide:_Images_and_Icons)">
    <rect width="1920" height="1080" fill="#fff"/>
    <path id="Path_79" data-name="Path 79" d="M32.25-60A24.647,24.647,0,0,0,7.5-35.25C7.5-21.5,18.5-10.5,32.25,6,46-10.5,57-21.5,57-35.25A24.647,24.647,0,0,0,32.25-60Zm0,16.5a8.239,8.239,0,0,1,8.25,8.25A8.239,8.239,0,0,1,32.25-27,8.239,8.239,0,0,1,24-35.25,8.239,8.239,0,0,1,32.25-43.5Zm0,0" transform="translate(65.5 130)"/>
    <path id="Path_80" data-name="Path 80" d="M229.21,163.5l10.462-17.33a1.28,1.28,0,0,0-1.078-1.93H193.018a3.814,3.814,0,1,0-2.951.038V205.65a1.277,1.277,0,1,0,2.554,0V182.74h45.973a1.242,1.242,0,0,0,1.1-.643,1.255,1.255,0,0,0-.019-1.286ZM191.5,142.026a1.284,1.284,0,0,1-1.268-1.286,1.268,1.268,0,0,1,2.535,0,1.284,1.284,0,0,1-1.268,1.286Z" transform="translate(400.317 -66.927)"/>
    <path id="Path_81" data-name="Path 81" d="M73.3,47.9c-1.5-6.2-3-12.3-3-16.4a9.15,9.15,0,0,1,.1-1.7,4.485,4.485,0,0,0,.1-1.1H71V20.4h-.8A14.187,14.187,0,0,0,67,14a10.137,10.137,0,0,0-4-2.7l-.6,2.1-.1.5A6.758,6.758,0,0,1,65.2,16a11.064,11.064,0,0,1,2.3,4.5H63.1v8.3h4.8c0,.3-.1.5-.1.8a14.083,14.083,0,0,0-.1,2.1c0,4.7,1.6,10.8,3.1,17.1,1.5,6.2,3,12.5,3,17.1a10.06,10.06,0,0,1-1.1,5.2,4.071,4.071,0,0,1-1.4,1.2,5.356,5.356,0,0,1-2.4.5h-.1a3.739,3.739,0,0,1-2.6-.9c-1.1-.9-1.9-2.6-2.4-4.9a38.41,38.41,0,0,1-.7-8,104.162,104.162,0,0,1,.7-11.4c.4-3.5.7-6.5.8-8.4v-.8c0-4.2-1-6.8-2.5-8.4a5.863,5.863,0,0,0-3.6-1.8V14.1c0-2.1-.1-2.2-1.8-2.2H28.1c-1.7,0-1.9.1-1.9,2.2V76.6H23.5v6H61.6v-6H58.3V30.7a4.033,4.033,0,0,1,1.7.9c.9.9,1.8,2.7,1.8,6.5v.8c0,1.6-.4,4.6-.8,8.2a108.23,108.23,0,0,0-.7,11.7c0,4.1.3,7.9,1.5,11a9.574,9.574,0,0,0,2.6,3.9,6.4,6.4,0,0,0,4.4,1.6h.1a8.627,8.627,0,0,0,3.6-.8,6.324,6.324,0,0,0,3.2-3.6,14.208,14.208,0,0,0,.8-5.2c-.1-5.2-1.6-11.5-3.2-17.8ZM66.6,27.2H64.7V21.8h1.9ZM54.4,39.6a.9.9,0,0,1-.9.9H30.7a.9.9,0,0,1-.9-.9V16.9a.9.9,0,0,1,.9-.9H53.5a.9.9,0,0,1,.9.9Z" transform="translate(310 50.7)"/>
    <g id="Group_62" data-name="Group 62" transform="translate(498 -96.2)">
      <path id="Path_87" data-name="Path 87" d="M-378.1,288.5V256a2.733,2.733,0,0,0-2.8-2.8h-46.4a2.8,2.8,0,0,0-2.8,2.8v32.4a2.883,2.883,0,0,0,2.8,2.9h46.4A2.8,2.8,0,0,0-378.1,288.5Z"/>
      <path id="Path_88" data-name="Path 88" d="M-349.3,293.1v-7.4l-.3-.8-8.7-19.7h-18v27.9h-30.9a10.416,10.416,0,0,1,1.8,1,10.594,10.594,0,0,1,1.2,1,10.145,10.145,0,0,1,2.3,3.5c.1.3.2.7.3,1a3.553,3.553,0,0,1,.2,1h26.9a3.553,3.553,0,0,1,.2-1c.1-.3.2-.7.3-1a10.145,10.145,0,0,1,2.3-3.5,10.588,10.588,0,0,1,1.2-1,16.181,16.181,0,0,1,1.8-1,9.04,9.04,0,0,1,3.7-.7,11.061,11.061,0,0,1,3.7.7,10.416,10.416,0,0,1,1.8,1,10.594,10.594,0,0,1,1.2,1,10.145,10.145,0,0,1,2.3,3.5c.1.3.2.7.3,1a3.554,3.554,0,0,1,.2,1h7.6v-7.5Zm-20-14.6v-11h9.3l4.6,11Z"/>
      <path id="Path_89" data-name="Path 89" d="M-414.7,293.1H-426v7.5h5.4a3.553,3.553,0,0,1,.2-1c.1-.3.2-.7.3-1a10.145,10.145,0,0,1,2.3-3.5,10.588,10.588,0,0,1,1.2-1A17.378,17.378,0,0,0-414.7,293.1Z"/>
      <path id="Path_90" data-name="Path 90" d="M-404.8,299.6a3.128,3.128,0,0,0-.5-1,6.638,6.638,0,0,0-5.7-3.3,6.516,6.516,0,0,0-5.7,3.3,3.128,3.128,0,0,0-.5,1c-.1.3-.2.7-.3,1a6.752,6.752,0,0,0-.2,1.4,6.7,6.7,0,0,0,6.7,6.7,6.7,6.7,0,0,0,6.7-6.7,3.644,3.644,0,0,0-.2-1.4C-404.6,300.3-404.7,299.9-404.8,299.6Zm-6.2,6.2a3.757,3.757,0,0,1-3.7-3.7,3.194,3.194,0,0,1,.3-1.4,3.328,3.328,0,0,1,.6-1,4.508,4.508,0,0,1,1.4-1,3.079,3.079,0,0,1,1.3-.3,2.768,2.768,0,0,1,1.3.3,3.587,3.587,0,0,1,1.4,1,2.075,2.075,0,0,1,.6,1,3.194,3.194,0,0,1,.3,1.4A3.41,3.41,0,0,1-411,305.8Z"/>
      <path id="Path_91" data-name="Path 91" d="M-358.8,299.6a3.128,3.128,0,0,0-.5-1,6.638,6.638,0,0,0-5.7-3.3,6.516,6.516,0,0,0-5.7,3.3,3.128,3.128,0,0,0-.5,1c-.1.3-.2.7-.3,1a6.752,6.752,0,0,0-.2,1.4,6.7,6.7,0,0,0,6.7,6.7,6.7,6.7,0,0,0,6.7-6.7,3.644,3.644,0,0,0-.2-1.4C-358.6,300.3-358.7,299.9-358.8,299.6Zm-6.2,6.2a3.757,3.757,0,0,1-3.7-3.7,3.194,3.194,0,0,1,.3-1.4,3.328,3.328,0,0,1,.6-1,4.508,4.508,0,0,1,1.4-1,3.079,3.079,0,0,1,1.3-.3,2.768,2.768,0,0,1,1.3.3,3.587,3.587,0,0,1,1.4,1,2.075,2.075,0,0,1,.6,1,3.194,3.194,0,0,1,.3,1.4A3.41,3.41,0,0,1-365,305.8Z"/>
    </g>
    <g id="Group_76" data-name="Group 76" transform="translate(-312)">
      <line id="Line_20" data-name="Line 20" x1="23" y2="14" transform="translate(610.5 193.5)" fill="none" stroke="#000" stroke-linecap="round" stroke-width="3"/>
      <g id="Group_64" data-name="Group 64" transform="translate(1063 -96.2)">
        <path id="Path_87-2" data-name="Path 87" d="M-378.1,288.5V256a2.733,2.733,0,0,0-2.8-2.8h-46.4a2.8,2.8,0,0,0-2.8,2.8v32.4a2.883,2.883,0,0,0,2.8,2.9h46.4A2.8,2.8,0,0,0-378.1,288.5Z"/>
        <path id="Path_88-2" data-name="Path 88" d="M-349.3,293.1v-7.4l-.3-.8-8.7-19.7h-18v27.9h-30.9a10.416,10.416,0,0,1,1.8,1,10.594,10.594,0,0,1,1.2,1,10.145,10.145,0,0,1,2.3,3.5c.1.3.2.7.3,1a3.553,3.553,0,0,1,.2,1h26.9a3.553,3.553,0,0,1,.2-1c.1-.3.2-.7.3-1a10.145,10.145,0,0,1,2.3-3.5,10.588,10.588,0,0,1,1.2-1,16.181,16.181,0,0,1,1.8-1,9.04,9.04,0,0,1,3.7-.7,11.061,11.061,0,0,1,3.7.7,10.416,10.416,0,0,1,1.8,1,10.594,10.594,0,0,1,1.2,1,10.145,10.145,0,0,1,2.3,3.5c.1.3.2.7.3,1a3.554,3.554,0,0,1,.2,1h7.6v-7.5Zm-20-14.6v-11h9.3l4.6,11Z"/>
        <path id="Path_89-2" data-name="Path 89" d="M-414.7,293.1H-426v7.5h5.4a3.553,3.553,0,0,1,.2-1c.1-.3.2-.7.3-1a10.145,10.145,0,0,1,2.3-3.5,10.588,10.588,0,0,1,1.2-1A17.378,17.378,0,0,0-414.7,293.1Z"/>
        <path id="Path_90-2" data-name="Path 90" d="M-404.8,299.6a3.128,3.128,0,0,0-.5-1,6.638,6.638,0,0,0-5.7-3.3,6.516,6.516,0,0,0-5.7,3.3,3.128,3.128,0,0,0-.5,1c-.1.3-.2.7-.3,1a6.752,6.752,0,0,0-.2,1.4,6.7,6.7,0,0,0,6.7,6.7,6.7,6.7,0,0,0,6.7-6.7,3.644,3.644,0,0,0-.2-1.4C-404.6,300.3-404.7,299.9-404.8,299.6Zm-6.2,6.2a3.757,3.757,0,0,1-3.7-3.7,3.194,3.194,0,0,1,.3-1.4,3.328,3.328,0,0,1,.6-1,4.508,4.508,0,0,1,1.4-1,3.079,3.079,0,0,1,1.3-.3,2.768,2.768,0,0,1,1.3.3,3.587,3.587,0,0,1,1.4,1,2.075,2.075,0,0,1,.6,1,3.194,3.194,0,0,1,.3,1.4A3.41,3.41,0,0,1-411,305.8Z"/>
        <path id="Path_91-2" data-name="Path 91" d="M-358.8,299.6a3.128,3.128,0,0,0-.5-1,6.638,6.638,0,0,0-5.7-3.3,6.516,6.516,0,0,0-5.7,3.3,3.128,3.128,0,0,0-.5,1c-.1.3-.2.7-.3,1a6.752,6.752,0,0,0-.2,1.4,6.7,6.7,0,0,0,6.7,6.7,6.7,6.7,0,0,0,6.7-6.7,3.644,3.644,0,0,0-.2-1.4C-358.6,300.3-358.7,299.9-358.8,299.6Zm-6.2,6.2a3.757,3.757,0,0,1-3.7-3.7,3.194,3.194,0,0,1,.3-1.4,3.328,3.328,0,0,1,.6-1,4.508,4.508,0,0,1,1.4-1,3.079,3.079,0,0,1,1.3-.3,2.768,2.768,0,0,1,1.3.3,3.587,3.587,0,0,1,1.4,1,2.075,2.075,0,0,1,.6,1,3.194,3.194,0,0,1,.3,1.4A3.41,3.41,0,0,1-365,305.8Z"/>
      </g>
      <rect id="Rectangle_13" data-name="Rectangle 13" width="19.422" height="17.953" rx="1" transform="translate(605.387 187.669) rotate(-31)" fill="#b9925e"/>
    </g>
    <text id="_3_Images" data-name="3) Images" transform="translate(81 291)" fill="#041038" font-size="40" font-family="Avenir-Book, Avenir"><tspan x="0" y="0">3) Images</tspan></text>
    <line id="Line_25" data-name="Line 25" y1="4" x2="788" transform="translate(80.5 309.5)" fill="none" stroke="#c4c0c0" stroke-linecap="round" stroke-width="3"/>
    <g id="Group_26" data-name="Group 26" transform="translate(-45 214)">
      <path id="Path_70" data-name="Path 70" d="M2,0H340a2,2,0,0,1,2,2V137a2,2,0,0,1-2,2H2a2,2,0,0,1-2-2V2A2,2,0,0,1,2,0Z" transform="translate(707 316)" fill="#c7ddf4"/>
      <path id="Path_31" data-name="Path 31" d="M0,0H458V27H0Z" transform="translate(701 452)" fill="#3a3335"/>
      <text id="Transport" transform="translate(720 431)" fill="#0e1d63" font-size="68" font-family="FasterOne-Regular, Faster One"><tspan x="0" y="0">T</tspan><tspan y="0" font-size="48">ransport</tspan></text>
      <path id="Path_32" data-name="Path 32" d="M3,0H47a3,3,0,0,1,3,3L65.228,39.055s15.474,1.808,30.98,5.111c2.357,2.963,1.61,15.3,2.388,22.05-.019,20.435.383,46.381.383,46.381-10.366,1.794-73.845-8.211-75.5-8.211,0,0-10.065-1.582-15.493-3.052S2.821,100.5,0,100.02,0,3,0,3A3,3,0,0,1,3,0Z" transform="translate(1060 352)" fill="#96616b"/>
      <rect id="Rectangle_26" data-name="Rectangle 26" width="35" height="33" transform="translate(1069 359)" fill="#c8ddf4"/>
      <path id="Path_33" data-name="Path 33" d="M543.911,382.51" transform="translate(279 -101)" fill="none" stroke="#707070" stroke-width="1"/>
      <line id="Line_2" data-name="Line 2" x2="10" transform="translate(1065.5 399.5)" fill="none" stroke="#eddfa4" stroke-width="3"/>
      <path id="Path_34" data-name="Path 34" d="M0,0H4.627L6,22.151V63.5H0Z" transform="translate(1153 399.5)" fill="#ded7d7"/>
      <path id="Path_36" data-name="Path 36" d="M31.462.943c11.593,0,23.8,8.078,29.633,18.611,1.571,3.97,1.341,3.479,1.545,4.023-1.333.656-14.913-13.6-31.178-13.6-10.451,0-17.769,4.891-22.983,6.123-.766.181-6.051-.876-6.051-.876a14.152,14.152,0,0,1,1.456-2.748C10.074,3.98,20.493.79,31.462.943Z" transform="translate(1074.247 440)" fill="#81565e"/>
      <text id="Op" transform="translate(1071 442)" fill="#0e1d63" font-size="62" font-family="FasterOne-Regular, Faster One"><tspan x="0" y="0">O</tspan><tspan y="0" font-size="42">p</tspan></text>
      <g id="Group_23" data-name="Group 23" transform="translate(-2490.866 545)">
        <path id="Path_1" data-name="Path 1" d="M30.234.943C41.488.943,53.1,8.782,59.058,19.615,61.773,24.553,62.5,30.375,62.5,35.432c0,15.326-15.47-3.081-32.267-3.081s-32.6,18.407-32.6,3.081c0-6.391.927-13.42,5.521-19.91C9.167,7.027,19.587.79,30.234.943Z" transform="translate(3566.23 -103)" fill="#393737"/>
        <g id="Group_3" data-name="Group 3" transform="translate(3564 -99)">
          <ellipse id="Ellipse_3" data-name="Ellipse 3" cx="32.34" cy="30.97" rx="32.34" ry="30.97" fill="#050404"/>
          <circle id="Ellipse_4" data-name="Ellipse 4" cx="15" cy="15" r="15" transform="translate(17.34 16.769)" fill="#a8a8a8"/>
        </g>
      </g>
      <path id="Path_37" data-name="Path 37" d="M0,0,347.86-2.357V29.662L0,27Z" transform="translate(701 442)" fill="#3a3335"/>
      <g id="Group_24" data-name="Group 24" transform="translate(-2590 545)">
        <path id="Path_1-2" data-name="Path 1" d="M29.493.943c11,0,22.349,7.839,28.168,18.672,2.654,4.937,3.365,10.759,3.365,15.817,0,15.326-15.118-3.081-31.533-3.081S-2.365,50.758-2.365,35.432c0-6.391.906-13.42,5.4-19.91C8.9,7.027,19.087.79,29.493.943Z" transform="translate(3566.23 -103)" fill="#393737"/>
        <g id="Group_3-2" data-name="Group 3" transform="translate(3564 -99)">
          <ellipse id="Ellipse_3-2" data-name="Ellipse 3" cx="31.602" cy="30.97" rx="31.602" ry="30.97" transform="translate(0)" fill="#050404"/>
          <circle id="Ellipse_4-2" data-name="Ellipse 4" cx="15" cy="15" r="15" transform="translate(16.602 16.769)" fill="#a8a8a8"/>
        </g>
      </g>
      <g id="Group_25" data-name="Group 25" transform="translate(-2853 545)">
        <path id="Path_1-3" data-name="Path 1" d="M30.3.943c11.277,0,22.916,7.839,28.883,18.672,2.721,4.937,3.451,10.759,3.451,15.817,0,15.326-15.5-3.081-32.334-3.081S-2.365,50.758-2.365,35.432c0-6.391.929-13.42,5.533-19.91C9.191,7.027,19.632.79,30.3.943Z" transform="translate(3566.23 -103)" fill="#393737"/>
        <g id="Group_3-3" data-name="Group 3" transform="translate(3564 -99)">
          <ellipse id="Ellipse_3-3" data-name="Ellipse 3" cx="32.407" cy="30.97" rx="32.407" ry="30.97" transform="translate(0)" fill="#050404"/>
          <circle id="Ellipse_4-3" data-name="Ellipse 4" cx="15" cy="15" r="15" transform="translate(17.407 16.769)" fill="#a8a8a8"/>
        </g>
      </g>
      <g id="Group_56" data-name="Group 56">
        <path id="Path_71" data-name="Path 71" d="M0,.518C1.091-.035,2.179-.335,2.695.612c1.145,5.985.638,4.951.638,4.951" transform="matrix(0.999, -0.035, 0.035, 0.999, 1107.568, 363.434)" fill="none" stroke="#eddea4" stroke-width="1"/>
        <path id="Path_72" data-name="Path 72" d="M0,7.447H0l3.821-.5c2.967-.676.86-3.91.86-3.91" transform="matrix(0.999, 0.035, -0.035, 0.999, 1108.737, 384.83)" fill="none" stroke="#eddea4" stroke-width="1"/>
        <g id="Rectangle_73" data-name="Rectangle 73" transform="translate(1108.437 368.381) rotate(-8)" fill="#eddea4" stroke="#eddea4" stroke-width="1">
          <rect width="5" height="21" rx="2" stroke="none"/>
          <rect x="0.5" y="0.5" width="4" height="20" rx="1.5" fill="none"/>
        </g>
      </g>
    </g>
    <g id="Group_31" data-name="Group 31" transform="translate(-376 607)">
      <line id="Line_3" data-name="Line 3" y2="9" transform="translate(1315.5 223.5)" fill="none" stroke="#707070" stroke-width="4"/>
      <line id="Line_4" data-name="Line 4" y2="9" transform="translate(1365.5 223.5)" fill="none" stroke="#707070" stroke-width="4"/>
      <path id="Path_102" data-name="Path 102" d="M9,0H71a9,9,0,0,1,9,9V24a9,9,0,0,1-9,9H9a9,9,0,0,1-9-9V9A9,9,0,0,1,9,0Z" transform="translate(1301 191)" fill="#bf3d3d"/>
      <path id="Path_101" data-name="Path 101" d="M12,0h99a12,12,0,0,1,12,12V170a12,12,0,0,1-12,12H12A12,12,0,0,1,0,170V12A12,12,0,0,1,12,0Z" transform="translate(1278 232)" fill="#bf3d3d"/>
      <path id="Path_41" data-name="Path 41" d="M1278,1480.005c-20.572,1.565,6.927,78.851-20.4,97.229s-22.755-27.856-16.568-45.321c3.52-11.1,29.357-51.026,29.464-67.875" transform="translate(0 -1170)" fill="none" stroke="#707070" stroke-width="5"/>
      <rect id="Rectangle_33" data-name="Rectangle 33" width="106" height="157" rx="12" transform="translate(1287 245)" fill="#db4646"/>
      <g id="Rectangle_32" data-name="Rectangle 32" transform="translate(1300 254)" fill="#fff" stroke="#707070" stroke-width="1">
        <rect width="80" height="40" rx="12" stroke="none"/>
        <rect x="0.5" y="0.5" width="79" height="39" rx="11.5" fill="none"/>
      </g>
      <path id="Path_44" data-name="Path 44" d="M0,7,2.266,2.921l4.942-6.11" transform="translate(1270.5 270.5)" fill="none" stroke="#707070" stroke-linejoin="round" stroke-width="1.5"/>
      <text id="GAS" transform="translate(1317 217)" fill="#fff" stroke="#707070" stroke-width="0.2" font-size="30" font-family="AvenirNextCondensed-Bold, Avenir Next Condensed" font-weight="700"><tspan x="0" y="0">GAS</tspan></text>
      <path id="Path_42" data-name="Path 42" d="M-2.681-2.194C-.426-6.605,3.675-8.956,3.544-5.509c-.059,3.268-.6,4.488-1.17,5.436C.362,3.263,3.544,7.892,3.544,9.763c0,4.412-1.17,5.157-1.17,5.157s-3.791,3.091-5.055-1.187S-4.936,2.218-2.681-2.194Z" transform="translate(1270.183 280)" fill="#5a5858"/>
      <path id="Path_43" data-name="Path 43" d="M1270.772,1450.376a8.7,8.7,0,0,1,4.519,3.054c.776,1.1.734,6.183.867,7.889.155,1.895-1.686,2.162-4.181,2.806" transform="translate(1 -1170)" fill="none" stroke="#5a5858" stroke-linecap="round" stroke-width="2"/>
      <line id="Line_5" data-name="Line 5" x2="12" transform="translate(1266.5 296.5)" fill="none" stroke="#504c4c" stroke-width="3"/>
    </g>
    <g id="Group_42" data-name="Group 42" transform="translate(-945 -6)">
      <rect id="Rectangle_24" data-name="Rectangle 24" width="44" height="122" transform="translate(1134 456)" fill="#c6ddf4"/>
      <path id="Path_31-2" data-name="Path 31" d="M160.422,0H0V27H160.422Z" transform="translate(1018 578)" fill="#3a3335"/>
      <path id="Path_32-2" data-name="Path 32" d="M94.725,0h-44a3,3,0,0,0-3,3L32.5,39.055s-15.474,1.808-30.98,5.111c-2.357,2.963-1.61,15.3-2.388,22.05.019,20.435-.383,46.381-.383,46.381,10.366,1.794,73.845-8.211,75.5-8.211,0,0,10.065-1.582,15.493-3.052s5.162-.831,7.983-1.314,0-97.02,0-97.02A3,3,0,0,0,94.725,0Z" transform="translate(1019.275 478)" fill="#96616b"/>
      <rect id="Rectangle_26-2" data-name="Rectangle 26" width="35" height="33" transform="translate(1073 485)" fill="#d6f6ff"/>
      <path id="Path_34-2" data-name="Path 34" d="M6,0H1.373L0,22.151V63.5H6Z" transform="translate(1018 525.5)" fill="#ded7d7"/>
      <path id="Path_36-2" data-name="Path 36" d="M33.926.943c-11.593,0-23.8,8.078-29.633,18.611-1.571,3.97-1.341,3.479-1.545,4.023,1.333.656,14.913-13.6,31.178-13.6,10.451,0,17.769,4.891,22.983,6.123.766.181,6.229-.807,6.229-.807a20.618,20.618,0,0,0-1.633-2.818C55.314,3.98,44.9.79,33.926.943Z" transform="translate(1037.365 566)" fill="#81565e"/>
      <path id="Path_1-4" data-name="Path 1" d="M29.9.943C18.649.943,7.034,8.782,1.079,19.615c-2.716,4.937-3.444,10.759-3.444,15.817,0,15.326,15.47-3.081,32.267-3.081s32.6,18.407,32.6,3.081c0-6.391-.927-13.42-5.521-19.91C50.97,7.027,40.55.79,29.9.943Z" transform="translate(1041.499 568)" fill="#393737"/>
      <circle id="Ellipse_3-4" data-name="Ellipse 3" cx="32.5" cy="32.5" r="32.5" transform="translate(1039.186 572)" fill="#050404"/>
      <ellipse id="Ellipse_4-4" data-name="Ellipse 4" cx="15" cy="15" rx="15" ry="15" transform="translate(1056.526 588.769)" fill="#a8a8a8"/>
      <line id="Line_2-2" data-name="Line 2" x1="10" transform="translate(1101.5 525.5)" fill="none" stroke="#eddea4" stroke-width="3"/>
      <path id="Path_38" data-name="Path 38" d="M0,8.488c1.091.553,2.179.852,2.695-.094C3.84,2.409,3.3,0,3.3,0" transform="matrix(-0.999, -0.035, 0.035, -0.999, 1069.997, 499.435)" fill="none" stroke="#eddea4" stroke-width="1"/>
      <path id="Path_39" data-name="Path 39" d="M0,0H0L3.821.5c2.967.676.042,6.949.042,6.949" transform="matrix(-0.999, 0.035, -0.035, -0.999, 1069.402, 519.272)" fill="none" stroke="#eddea4" stroke-width="1"/>
      <g id="Rectangle_28" data-name="Rectangle 28" transform="translate(1066.519 516.176) rotate(-172)" fill="#eddea4" stroke="#eddea4" stroke-width="1">
        <rect width="5" height="21" rx="2" stroke="none"/>
        <rect x="0.5" y="0.5" width="4" height="20" rx="1.5" fill="none"/>
      </g>
      <path id="Path_29" data-name="Path 29" d="M3072.194,582.873c-11.815,2.147-10.722-14.274-10.722-14.274" transform="translate(-1980 -71)" fill="none" stroke="#f7a072" stroke-linecap="round" stroke-width="5"/>
      <path id="Path_28" data-name="Path 28" d="M13.617-1.5c5.5,2.6,5.46,6.667,5.46,13.57-6.36,0-1.358,0-6.577,0-4.591,0-9.948.028-12.446,0C.054,5.166,8.12-4.1,13.617-1.5Z" transform="translate(1089 506)" fill="#36533f"/>
      <ellipse id="Ellipse_7" data-name="Ellipse 7" cx="8.5" cy="9" rx="8.5" ry="9" transform="translate(1089 489)" fill="#f7a072"/>
      <path id="Path_30" data-name="Path 30" d="M2.219,1.1A9.352,9.352,0,0,0,5.645,2.433,7.284,7.284,0,0,0,9,1.887V9a48.3,48.3,0,0,1-5.657.513A8.558,8.558,0,0,1,0,9Z" transform="translate(1085 506)" fill="#36533f"/>
      <path id="Path_40" data-name="Path 40" d="M13.858,0c7.653,0,7.653,6.837,0,6.837-5.439,0-1.289,0-11.4.414A13.081,13.081,0,0,0-.183,7.3C-.183,3.238,6.2,0,13.858,0Z" transform="translate(1088.881 486.349) rotate(11)" fill="#011638"/>
    </g>
    <g id="Group_45" data-name="Group 45" transform="translate(71 315)">
      <g id="Group_37" data-name="Group 37" transform="translate(-402 -494)">
        <path id="Path_37-2" data-name="Path 37" d="M0-1.253l251.86-1.1v15L0,11.4Z" transform="translate(408 558)" fill="#3a3335"/>
        <path id="Path_32-3" data-name="Path 32" d="M1.276,0H27.438a1.778,1.778,0,0,1,1.784,1.772l9.054,21.3s9.2,1.068,18.421,3.019c1.4,1.75.957,9.04,1.42,13.026-.011,12.072.228,27.4.228,27.4-6.164,1.06-43.909-4.851-44.894-4.851,0,0-5.985-.935-9.213-1.8a22.276,22.276,0,0,0-4.747-.776c-1.677-.285,0-57.313,0-57.313A1.778,1.778,0,0,1,1.276,0Z" transform="translate(652 502)" fill="#96616b"/>
        <rect id="Rectangle_26-3" data-name="Rectangle 26" width="19.788" height="19" rx="3" transform="translate(655 504)" fill="#c7ddf4"/>
        <path id="Path_34-3" data-name="Path 34" d="M0,0H4.137A18.953,18.953,0,0,1,5.345,5.547a71.384,71.384,0,0,1,0,8.456V40.143H0Z" transform="translate(705 528.5)" fill="#ded7d7"/>
        <text id="Transport-2" data-name="Transport" transform="translate(418 554)" fill="#0e1d63" font-size="53" font-family="FasterOne-Regular, Faster One"><tspan x="0" y="0">T</tspan><tspan y="0" font-size="33">ransport</tspan></text>
        <line id="Line_2-3" data-name="Line 2" x2="6" transform="translate(654.5 526.5)" fill="none" stroke="#faf3dd" stroke-width="3"/>
        <path id="Path_39-2" data-name="Path 39" d="M0,7.447H0l1.918-.565c1.252-.676-.152-4.365-.152-4.365" transform="matrix(0.999, 0.035, -0.035, 0.999, 678.914, 514.982)" fill="none" stroke="#faf3dd" stroke-width="1"/>
        <path id="Path_36-3" data-name="Path 36" d="M22.444.941c7.952,0,11.334,6.086,15.333,13.038,1.077,2.62-2.2.669-2.057,1.028-.915.433-2.119-8.1-13.276-8.1-7.169,0-11.777,3.112-15.353,3.926A29.676,29.676,0,0,1,2.67,9.866a9.046,9.046,0,0,1,.857-1.314C7.773,2.946,14.92.84,22.444.941Z" transform="translate(652.247 551.705)" fill="#81565e"/>
        <g id="Group_23-2" data-name="Group 23" transform="translate(-2920.866 650)">
          <path id="Path_1-5" data-name="Path 1" d="M10.922.988C16.571.578,25.491,6.2,25.428,12.194,26.684,14.478,18.37,6.544,10.6,6.544S-7.19,16.487-3.085,7.684C-1.819,5.5,1.894,3.1,5.822,1.734A12.212,12.212,0,0,1,10.922.988Z" transform="translate(3583.23 -95)" fill="#393737"/>
          <g id="Group_3-4" data-name="Group 3" transform="translate(3561 -109)">
            <ellipse id="Ellipse_3-5" data-name="Ellipse 3" cx="15.663" cy="15" rx="15.663" ry="15" transform="translate(17 16)" fill="#050404"/>
            <circle id="Ellipse_4-5" data-name="Ellipse 4" cx="7.5" cy="7.5" r="7.5" transform="translate(25.34 23.769)" fill="#a8a8a8"/>
          </g>
        </g>
        <text id="Op-2" data-name="Op" transform="translate(660 554)" fill="#0e1d63" font-size="37" font-family="FasterOne-Regular, Faster One"><tspan x="0" y="0">O</tspan><tspan y="0" font-size="17">p</tspan></text>
        <rect id="Rectangle_28-2" data-name="Rectangle 28" width="3.5" height="10" rx="1.75" transform="translate(677.827 510.222) rotate(-8)" fill="#faf3dd"/>
        <g id="Group_38" data-name="Group 38" transform="translate(-3169.866 651)">
          <path id="Path_1-6" data-name="Path 1" d="M11.563.358c5.2,0,13.929,5.839,13.865,11.836C26.684,14.478,18.37,6.544,10.6,6.544S-1.936,10.686.189,7.684C.317,7.5-6.692,14.45-2.588,5.647-.646,2.3,6.865.291,11.563.358Z" transform="translate(3583.23 -95)" fill="#393737"/>
          <g id="Group_3-5" data-name="Group 3" transform="translate(3561 -109)">
            <ellipse id="Ellipse_3-6" data-name="Ellipse 3" cx="15.663" cy="15" rx="15.663" ry="15" transform="translate(17 16)" fill="#050404"/>
            <circle id="Ellipse_4-6" data-name="Ellipse 4" cx="7.5" cy="7.5" r="7.5" transform="translate(25.34 23.769)" fill="#a8a8a8"/>
          </g>
        </g>
        <g id="Group_39" data-name="Group 39" transform="translate(-3138.866 651)">
          <path id="Path_1-7" data-name="Path 1" d="M11.563.358c5.2,0,13.929,5.839,13.865,11.836C26.684,14.478,18.37,6.544,10.6,6.544S-1.936,10.686.189,7.684C.317,7.5-6.692,14.45-2.588,5.647-.646,2.3,6.865.291,11.563.358Z" transform="translate(3583.23 -95)" fill="#393737"/>
          <g id="Group_3-6" data-name="Group 3" transform="translate(3561 -109)">
            <ellipse id="Ellipse_3-7" data-name="Ellipse 3" cx="15.663" cy="15" rx="15.663" ry="15" transform="translate(17 16)" fill="#050404"/>
            <circle id="Ellipse_4-7" data-name="Ellipse 4" cx="7.5" cy="7.5" r="7.5" transform="translate(25.34 23.769)" fill="#a8a8a8"/>
          </g>
        </g>
        <g id="Group_40" data-name="Group 40" transform="translate(-2954.866 651)">
          <path id="Path_1-8" data-name="Path 1" d="M11.563.358c5.2,0,13.929,5.839,13.865,11.836C26.684,14.478,18.37,6.544,10.6,6.544S-1.936,10.686.189,7.684C.317,7.5-6.692,14.45-2.588,5.647-.646,2.3,6.865.291,11.563.358Z" transform="translate(3583.23 -95)" fill="#393737"/>
          <g id="Group_3-7" data-name="Group 3" transform="translate(3561 -109)">
            <ellipse id="Ellipse_3-8" data-name="Ellipse 3" cx="15.663" cy="15" rx="15.663" ry="15" transform="translate(17 16)" fill="#050404"/>
            <circle id="Ellipse_4-8" data-name="Ellipse 4" cx="7.5" cy="7.5" r="7.5" transform="translate(25.34 23.769)" fill="#a8a8a8"/>
          </g>
        </g>
        <path id="Path_100" data-name="Path 100" d="M1.641.741c3.312.6-.011,6.706-.011,6.706" transform="matrix(0.883, -0.469, 0.469, 0.883, 675.206, 508.148)" fill="none" stroke="#faf3dd" stroke-width="1"/>
      </g>
    </g>
    <g id="Group_81" data-name="Group 81" transform="translate(-300 4)">
      <rect id="Rectangle_20" data-name="Rectangle 20" width="118" height="53" transform="translate(445 947.889)" fill="#b9925e"/>
      <path id="Path_19" data-name="Path 19" d="M0,0H10.3V52.664H0Z" transform="translate(497.68 947.889)" fill="#af8b5b"/>
    </g>
    <g id="Group_83" data-name="Group 83" transform="translate(-300 4)">
      <rect id="Rectangle_19" data-name="Rectangle 19" width="56" height="101" transform="translate(368 878.889)" fill="#b9925e"/>
      <path id="Path_74" data-name="Path 74" d="M0,0H10.3V30H0Z" transform="translate(390.68 879.889)" fill="#af8b5b"/>
      <rect id="Rectangle_21" data-name="Rectangle 21" width="22" height="53" transform="translate(375.491 903.068) rotate(-22)" fill="#dc3b3b"/>
      <text id="fragile" transform="translate(387.393 912.968) rotate(69)" font-size="10" font-family="Rubik-Regular, Rubik"><tspan x="0" y="0">fragile</tspan></text>
    </g>
    <g id="Group_85" data-name="Group 85" transform="translate(-226 121)">
      <path id="Path_15" data-name="Path 15" d="M2.13-1.32,93.4-.809,89.3,7.871,0,7Z" transform="matrix(0.875, -0.485, 0.485, 0.875, 507.648, 865.108)" fill="#b2a382"/>
      <g id="Group_84" data-name="Group 84">
        <rect id="Rectangle_13-2" data-name="Rectangle 13" width="56" height="53" rx="1" transform="matrix(0.883, -0.469, 0.469, 0.883, 502.836, 805.247)" fill="#b9925e"/>
        <path id="Path_20" data-name="Path 20" d="M0,0H10.3V25.4H0Z" transform="translate(522.563 795.002) rotate(-28)" fill="#af8b5b"/>
      </g>
      <g id="Group_59" data-name="Group 59" transform="translate(-119 389)">
        <path id="Path_70-2" data-name="Path 70" d="M2,0H340a2,2,0,0,1,2,2V137a2,2,0,0,1-2,2H2a2,2,0,0,1-2-2V2A2,2,0,0,1,2,0Z" transform="translate(707 316)" fill="#c7ddf4"/>
        <path id="Path_31-3" data-name="Path 31" d="M0,0H458V27H0Z" transform="translate(701 452)" fill="#3a3335"/>
        <text id="Transport-3" data-name="Transport" transform="translate(720 431)" fill="#0e1d63" font-size="68" font-family="FasterOne-Regular, Faster One"><tspan x="0" y="0">T</tspan><tspan y="0" font-size="48">ransport</tspan></text>
        <path id="Path_32-4" data-name="Path 32" d="M3,0H47a3,3,0,0,1,3,3L65.228,39.055s15.474,1.808,30.98,5.111c2.357,2.963,1.61,15.3,2.388,22.05-.019,20.435.383,46.381.383,46.381-10.366,1.794-73.845-8.211-75.5-8.211,0,0-10.065-1.582-15.493-3.052S2.821,100.5,0,100.02,0,3,0,3A3,3,0,0,1,3,0Z" transform="translate(1060 352)" fill="#96616b"/>
        <rect id="Rectangle_26-4" data-name="Rectangle 26" width="35" height="33" transform="translate(1069 359)" fill="#c8ddf4"/>
        <path id="Path_33-2" data-name="Path 33" d="M543.911,382.51" transform="translate(279 -101)" fill="none" stroke="#707070" stroke-width="1"/>
        <line id="Line_2-4" data-name="Line 2" x2="10" transform="translate(1065.5 399.5)" fill="none" stroke="#eddfa4" stroke-width="3"/>
        <path id="Path_34-4" data-name="Path 34" d="M0,0H4.627L6,22.151V63.5H0Z" transform="translate(1153 399.5)" fill="#ded7d7"/>
        <path id="Path_36-4" data-name="Path 36" d="M31.462.943c11.593,0,23.8,8.078,29.633,18.611,1.571,3.97,1.341,3.479,1.545,4.023-1.333.656-14.913-13.6-31.178-13.6-10.451,0-17.769,4.891-22.983,6.123-.766.181-6.5-.853-6.5-.853s1.11-1.715,1.9-2.772C10.074,3.98,20.493.79,31.462.943Z" transform="translate(1074.247 440)" fill="#81565e"/>
        <text id="Op-3" data-name="Op" transform="translate(1071 442)" fill="#0e1d63" font-size="62" font-family="FasterOne-Regular, Faster One"><tspan x="0" y="0">O</tspan><tspan y="0" font-size="42">p</tspan></text>
        <g id="Group_23-3" data-name="Group 23" transform="translate(-2490.866 545)">
          <path id="Path_1-9" data-name="Path 1" d="M30.234.943C41.488.943,53.1,8.782,59.058,19.615,61.773,24.553,62.5,30.375,62.5,35.432c0,15.326-15.47-3.081-32.267-3.081s-32.6,18.407-32.6,3.081c0-6.391.927-13.42,5.521-19.91C9.167,7.027,19.587.79,30.234.943Z" transform="translate(3566.23 -103)" fill="#393737"/>
          <g id="Group_3-8" data-name="Group 3" transform="translate(3564 -99)">
            <ellipse id="Ellipse_3-9" data-name="Ellipse 3" cx="32.34" cy="30.97" rx="32.34" ry="30.97" fill="#050404"/>
            <circle id="Ellipse_4-9" data-name="Ellipse 4" cx="15" cy="15" r="15" transform="translate(17.34 16.769)" fill="#a8a8a8"/>
          </g>
        </g>
        <path id="Path_37-3" data-name="Path 37" d="M0,0,347.86-2.357V29.662L0,27Z" transform="translate(701 442)" fill="#3a3335"/>
        <g id="Group_24-2" data-name="Group 24" transform="translate(-2590 545)">
          <path id="Path_1-10" data-name="Path 1" d="M29.493.943c11,0,22.349,7.839,28.168,18.672,2.654,4.937,3.365,10.759,3.365,15.817,0,15.326-15.118-3.081-31.533-3.081S-2.365,50.758-2.365,35.432c0-6.391.906-13.42,5.4-19.91C8.9,7.027,19.087.79,29.493.943Z" transform="translate(3566.23 -103)" fill="#393737"/>
          <g id="Group_3-9" data-name="Group 3" transform="translate(3564 -99)">
            <ellipse id="Ellipse_3-10" data-name="Ellipse 3" cx="31.602" cy="30.97" rx="31.602" ry="30.97" transform="translate(0)" fill="#050404"/>
            <circle id="Ellipse_4-10" data-name="Ellipse 4" cx="15" cy="15" r="15" transform="translate(16.602 16.769)" fill="#a8a8a8"/>
          </g>
        </g>
        <g id="Group_25-2" data-name="Group 25" transform="translate(-2853 545)">
          <path id="Path_1-11" data-name="Path 1" d="M30.3.943c11.277,0,22.916,7.839,28.883,18.672,2.721,4.937,3.451,10.759,3.451,15.817,0,15.326-15.5-3.081-32.334-3.081S-2.365,50.758-2.365,35.432c0-6.391.929-13.42,5.533-19.91C9.191,7.027,19.632.79,30.3.943Z" transform="translate(3566.23 -103)" fill="#393737"/>
          <g id="Group_3-10" data-name="Group 3" transform="translate(3564 -99)">
            <ellipse id="Ellipse_3-11" data-name="Ellipse 3" cx="32.407" cy="30.97" rx="32.407" ry="30.97" transform="translate(0)" fill="#050404"/>
            <circle id="Ellipse_4-11" data-name="Ellipse 4" cx="15" cy="15" r="15" transform="translate(17.407 16.769)" fill="#a8a8a8"/>
          </g>
        </g>
        <g id="Group_56-2" data-name="Group 56">
          <path id="Path_71-2" data-name="Path 71" d="M0,.518C1.091-.035,2.179-.335,2.695.612c1.145,5.985.638,4.951.638,4.951" transform="matrix(0.999, -0.035, 0.035, 0.999, 1107.568, 363.434)" fill="none" stroke="#eddea4" stroke-width="1"/>
          <path id="Path_72-2" data-name="Path 72" d="M0,7.447H0l3.821-.5c2.967-.676.86-3.91.86-3.91" transform="matrix(0.999, 0.035, -0.035, 0.999, 1108.737, 384.83)" fill="none" stroke="#eddea4" stroke-width="1"/>
          <rect id="Rectangle_73-2" data-name="Rectangle 73" width="5" height="21" rx="2" transform="translate(1108.437 368.381) rotate(-8)" fill="#eddea4"/>
        </g>
      </g>
    </g>
    <g id="Group_82" data-name="Group 82" transform="translate(-300 4)">
      <rect id="Rectangle_18" data-name="Rectangle 18" width="56" height="53" transform="translate(475 888.889)" fill="#b9925e"/>
      <path id="Path_73" data-name="Path 73" d="M0,0H10.3V30H0Z" transform="translate(497.68 888.889)" fill="#af8b5b"/>
    </g>
    <g id="noun_logout_2775411" transform="translate(1124 124)">
      <g id="Group_54" data-name="Group 54">
        <path id="Path_64" data-name="Path 64" d="M34.456,75.849a1.105,1.105,0,0,0,1.02-1.035,1.134,1.134,0,0,0-1.02-1.164H3.6l9.052-9.056a1.194,1.194,0,0,0,0-1.552,1.148,1.148,0,0,0-1.53,0l-10.837,11a1.191,1.191,0,0,0,0,1.553L11.124,86.458a.946.946,0,0,0,1.53,0,1.191,1.191,0,0,0,0-1.553L3.6,75.849Z" transform="translate(49.881 -13)"/>
        <path id="Path_65" data-name="Path 65" d="M252.227,13.125a1.827,1.827,0,0,0,1.859,1.667,1.785,1.785,0,0,0,1.652-1.667V1.667A1.827,1.827,0,0,0,253.879,0H227.859A1.859,1.859,0,0,0,226,1.875v61.25a1.827,1.827,0,0,0,1.859,1.667h26.227a1.831,1.831,0,0,0,1.652-1.875V51.667A1.785,1.785,0,0,0,254.086,50a1.827,1.827,0,0,0-1.859,1.667V61.25H229.511V3.542h22.716Z" transform="translate(-190.988 29)"/>
      </g>
    </g>
    <g id="noun_Truck_153521" transform="translate(1944 91.3)">
      <g id="Group_53" data-name="Group 53" transform="translate(-594 -37.3)">
        <path id="Path_61" data-name="Path 61" d="M14.5,52.7a4.268,4.268,0,0,0,3.1,0v-3l-3.1-.1Z" transform="translate(0.514 19.68)"/>
        <path id="Path_62" data-name="Path 62" d="M26.1,52.7a4.268,4.268,0,0,0,3.1,0V49.6l-3.1.1Z" transform="translate(5.5 19.68)"/>
        <path id="Path_63" data-name="Path 63" d="M50.518,35.145,50.24,7.825S49.961,5.852,46.758,5.7H10.964c-3.2.152-3.482,2.125-3.482,2.125L7.2,35.145c-1.811,0-3.2.152-3.2,1.973V45.01c0,1.821,1.253,1.973,2.925,1.973V49.26h.139v4.1H9.989v-4.1h1.253l.139,4.705s-4.6.607-4.457,4.4L6.786,68.384a4.765,4.765,0,0,0,1.671,2.732L8.6,78.857s5.71,2.58,9.471.3V71.875s7.242.3,10.864,0c3.621.3,10.864,0,10.864,0v7.134c3.76,2.277,9.471-.3,9.471-.3l.139-7.741a4.765,4.765,0,0,0,1.671-2.732V58.215c.139-3.794-4.457-4.4-4.457-4.4l.139-4.705h1.253v4.1h2.925v-4.1h.139V46.832c1.671,0,2.925-.152,2.925-1.973V36.966C53.721,35.145,52.329,35.145,50.518,35.145Zm-39,27.927a3.5,3.5,0,0,1,0-6.982,3.5,3.5,0,0,1,0,6.982Zm3.2-22.008a2.942,2.942,0,0,1,1.811-2.277H28.652V52.6s-8.635.152-13.092,1.062ZM37.983,60.188H20.3c-.418,0-.7-.455-.7-1.062s.279-1.062.7-1.062H37.983c.418,0,.7.455.7,1.062C38.68,59.581,38.262,60.188,37.983,60.188Zm1.811,2.277a1.093,1.093,0,0,1,0,2.125H18.345a1.093,1.093,0,0,1,0-2.125Zm1.253,6.071H17.231a1.066,1.066,0,0,1,0-2.125H41.047a1.066,1.066,0,0,1,0,2.125ZM29.766,52.6V38.787H41.883a2.942,2.942,0,0,1,1.811,2.277L42.858,53.51A119.828,119.828,0,0,0,29.766,52.6ZM46.479,56.09a3.5,3.5,0,1,1-3.2,3.491A3.3,3.3,0,0,1,46.479,56.09Zm1.393-7.437H46.618l.139-11.99a2.241,2.241,0,0,0-2.507-2.277H13.889a2.241,2.241,0,0,0-2.507,2.277l-.139,11.99H9.989V46.224a1.96,1.96,0,0,0,.418-1.366V36.966a3.066,3.066,0,0,0-.279-1.214c.7-5.312,4.178-2.732,18.941-3.036,14.763.3,18.106-2.125,18.663,2.884a1.96,1.96,0,0,0-.418,1.366v7.892a1.96,1.96,0,0,0,.418,1.366A15.118,15.118,0,0,1,47.872,48.653Z" transform="translate(-4 -5.7)"/>
      </g>
    </g>
    <g id="Group_52" data-name="Group 52" transform="translate(-647.474 -860)">
      <g id="Group_46" data-name="Group 46" transform="translate(1806.474 938)">
        <g id="Group_47" data-name="Group 47" transform="translate(1.076)">
          <g id="Group_46-2" data-name="Group 46">
            <path id="Path_58" data-name="Path 58" d="M37.905,71.35a2.1,2.1,0,0,1-1.1-.4L29,63.159a1.447,1.447,0,0,1,0-2.1L62.118,28a1.451,1.451,0,0,1,2.1,0l7.8,7.791a1.447,1.447,0,0,1,0,2.1L39.006,70.95A2.1,2.1,0,0,1,37.905,71.35Zm-5.6-9.289,5.7,5.693L69.022,36.789l-5.7-5.694Z" transform="translate(-28.55 -27.55)"/>
          </g>
        </g>
        <g id="Group_49" data-name="Group 49" transform="translate(0 33.222)">
          <g id="Group_48" data-name="Group 48">
            <path id="Path_59" data-name="Path 59" d="M29,72.5a2.1,2.1,0,0,1-1.1-.4,1.374,1.374,0,0,1-.4-1.2l1.1-8.8a1.549,1.549,0,0,1,1-1.2,1.439,1.439,0,0,1,1.5.4L38.8,69a1.674,1.674,0,0,1,.4,1.5,1.722,1.722,0,0,1-1.2,1l-8.8,1.1C29.1,72.5,29.1,72.5,29,72.5Zm2.2-7.1-.5,3.9,3.9-.5Z" transform="translate(-27.474 -60.822)"/>
          </g>
        </g>
        <g id="Group_51" data-name="Group 51" transform="translate(26.495 7.689)">
          <g id="Group_50" data-name="Group 50">
            <path id="Path_60" data-name="Path 60" d="M63.3,46a1.5,1.5,0,0,1-1.1-.4l-7.8-7.8a1.485,1.485,0,1,1,2.1-2.1l7.8,7.8a1.45,1.45,0,0,1,0,2.1A1.528,1.528,0,0,1,63.3,46Z" transform="translate(-53.95 -35.25)"/>
          </g>
        </g>
      </g>
    </g>
    <text id="starting_location" data-name="starting location" transform="translate(163 108)" font-size="23" font-family="AvenirNextCondensed-Regular, Avenir Next Condensed"><tspan x="0" y="0">starting location</tspan></text>
    <text id="starting_truck" data-name="starting truck" transform="translate(163 198)" font-size="23" font-family="AvenirNextCondensed-Regular, Avenir Next Condensed"><tspan x="0" y="0">starting truck</tspan></text>
    <text id="unloading_truck" data-name="unloading truck" transform="translate(427 198)" font-size="23" font-family="AvenirNextCondensed-Regular, Avenir Next Condensed"><tspan x="0" y="0">unloading truck</tspan></text>
    <text id="gas_station" data-name="gas station" transform="translate(427 105)" font-size="23" font-family="AvenirNextCondensed-Regular, Avenir Next Condensed"><tspan x="0" y="0">gas station</tspan></text>
    <text id="Find_Route_Icons" data-name="Find Route Icons" transform="translate(23 45)" font-size="30" font-family="AvenirNextCondensed-Regular, Avenir Next Condensed"><tspan x="0" y="0">Find Route Icons</tspan></text>
    <text id="destination_location" data-name="destination location" transform="translate(681 108)" font-size="23" font-family="AvenirNextCondensed-Regular, Avenir Next Condensed"><tspan x="0" y="0">destination location</tspan></text>
    <g id="Group_71" data-name="Group 71" transform="translate(899 49)">
      <g id="Group_71-2" data-name="Group 71" transform="translate(29 29)">
        <path id="Path_103" data-name="Path 103" d="M29,29H66.5L74,36.5V74H29Zm10.714,2.143H31.143V71.857H71.857V37.388l-6.245-6.245H63.286V44H39.714Zm12.857,0v9.643h5.357V31.143ZM34.357,50.429H68.643V68.643H34.357Z" transform="translate(-29 -29)"/>
      </g>
    </g>
    <g id="Group_72" data-name="Group 72" transform="translate(900 -817.362)">
      <path id="Path_104" data-name="Path 104" d="M50,974.362a5,5,0,0,0-5,5v18H27a5,5,0,0,0,0,10H45v18a5,5,0,0,0,10,0v-18H73a5,5,0,0,0,0-10H55v-18A5,5,0,0,0,50,974.362Z"/>
    </g>
    <text id="General_Icons" data-name="General Icons" transform="translate(895 45)" font-size="30" font-family="AvenirNextCondensed-Regular, Avenir Next Condensed"><tspan x="0" y="0">General Icons</tspan></text>
    <text id="save" transform="translate(992 108)" font-size="23" font-family="AvenirNextCondensed-Regular, Avenir Next Condensed"><tspan x="0" y="0">save</tspan></text>
    <text id="add_new" data-name="add new" transform="translate(992 189)" font-size="23" font-family="AvenirNextCondensed-Regular, Avenir Next Condensed"><tspan x="0" y="0">add new</tspan></text>
    <text id="edit" transform="translate(1227 108)" font-size="23" font-family="AvenirNextCondensed-Regular, Avenir Next Condensed"><tspan x="0" y="0">edit</tspan></text>
    <text id="log_out" data-name="log out" transform="translate(1227 189)" font-size="23" font-family="AvenirNextCondensed-Regular, Avenir Next Condensed"><tspan x="0" y="0">log out</tspan></text>
    <text id="truck_icon" data-name="truck icon" transform="translate(1419 99)" font-size="23" font-family="AvenirNextCondensed-Regular, Avenir Next Condensed"><tspan x="0" y="0">truck icon</tspan></text>
    <text id="gas_station_icon" data-name="gas station icon" transform="translate(1695 105)" font-size="23" font-family="AvenirNextCondensed-Regular, Avenir Next Condensed"><tspan x="0" y="0">gas station icon</tspan></text>
    <text id="home_page_icon" data-name="home page icon" transform="translate(403 374)" font-size="23" font-family="AvenirNextCondensed-Regular, Avenir Next Condensed"><tspan x="0" y="0">home page icon</tspan></text>
    <text id="driver_image_for_account_creation" data-name="driver image for account creation" transform="translate(264 519)" font-size="23" font-family="AvenirNextCondensed-Regular, Avenir Next Condensed"><tspan x="0" y="0">driver image for account creation</tspan></text>
    <g id="Group_86" data-name="Group 86" transform="translate(-208 92)">
      <g id="Path_107" data-name="Path 107" transform="translate(1546 61)" fill="#fff">
        <path d="M 37.5 74.5 C 32.50481033325195 74.5 27.65930938720703 73.52179718017578 23.09807968139648 71.59255981445312 C 18.69220924377441 69.72902679443359 14.73523044586182 67.06112670898438 11.33705043792725 63.66294860839844 C 7.938869953155518 60.2647705078125 5.270969867706299 56.30778884887695 3.407439947128296 51.90192031860352 C 1.47819995880127 47.34069061279297 0.5 42.49518966674805 0.5 37.5 C 0.5 32.50481033325195 1.47819995880127 27.65930938720703 3.407439947128296 23.09807968139648 C 5.270969867706299 18.69220924377441 7.938869953155518 14.73523044586182 11.33705043792725 11.33705043792725 C 14.73523044586182 7.938869953155518 18.69220924377441 5.270969867706299 23.09807968139648 3.407439947128296 C 27.65930938720703 1.47819995880127 32.50481033325195 0.5 37.5 0.5 C 42.49518966674805 0.5 47.34069061279297 1.47819995880127 51.90192031860352 3.407439947128296 C 56.30778884887695 5.270969867706299 60.2647705078125 7.938869953155518 63.66294860839844 11.33705043792725 C 67.06112670898438 14.73523044586182 69.72902679443359 18.69220924377441 71.59255981445312 23.09807968139648 C 73.52179718017578 27.65930938720703 74.5 32.50481033325195 74.5 37.5 C 74.5 42.49518966674805 73.52179718017578 47.34069061279297 71.59255981445312 51.90192031860352 C 69.72902679443359 56.30778884887695 67.06112670898438 60.2647705078125 63.66294860839844 63.66294860839844 C 60.2647705078125 67.06112670898438 56.30778884887695 69.72902679443359 51.90192031860352 71.59255981445312 C 47.34069061279297 73.52179718017578 42.49518966674805 74.5 37.5 74.5 Z" stroke="none"/>
        <path d="M 37.5 1 C 32.57209014892578 1 27.79212188720703 1.964912414550781 23.2928581237793 3.867942810058594 C 18.94657897949219 5.706260681152344 15.04301834106445 8.338180541992188 11.69060134887695 11.69060134887695 C 8.338180541992188 15.04301834106445 5.706260681152344 18.94657897949219 3.867942810058594 23.2928581237793 C 1.964912414550781 27.79212188720703 1 32.57209014892578 1 37.5 C 1 42.42790985107422 1.964912414550781 47.20787811279297 3.867942810058594 51.70713806152344 C 5.706260681152344 56.05342102050781 8.338180541992188 59.95697784423828 11.69060134887695 63.30939865112305 C 15.04301834106445 66.66181945800781 18.94657897949219 69.29373931884766 23.2928581237793 71.13205718994141 C 27.79212188720703 73.03508758544922 32.57209014892578 74 37.5 74 C 42.42790985107422 74 47.20787811279297 73.03508758544922 51.70713806152344 71.13205718994141 C 56.05342102050781 69.29373931884766 59.95697784423828 66.66181945800781 63.30939865112305 63.30939865112305 C 66.66181945800781 59.95697784423828 69.29373931884766 56.05342102050781 71.13205718994141 51.70713806152344 C 73.03508758544922 47.20787811279297 74 42.42790985107422 74 37.5 C 74 32.57209014892578 73.03508758544922 27.79212188720703 71.13205718994141 23.2928581237793 C 69.29373931884766 18.94657897949219 66.66181945800781 15.04301834106445 63.30939865112305 11.69060134887695 C 59.95697784423828 8.338180541992188 56.05342102050781 5.706260681152344 51.70713806152344 3.867942810058594 C 47.20787811279297 1.964912414550781 42.42790985107422 1 37.5 1 M 37.5 0 C 58.21067810058594 0 75 16.78932189941406 75 37.5 C 75 58.21067810058594 58.21067810058594 75 37.5 75 C 16.78932189941406 75 0 58.21067810058594 0 37.5 C 0 16.78932189941406 16.78932189941406 0 37.5 0 Z" stroke="none" fill="#707070"/>
      </g>
      <path id="Path_106" data-name="Path 106" d="M18.578-.989C5.6,1.841-4.011,9.756-4.011,21.114-7.4,23.451,9.319,34.593,20.01,34.593c9.4,0,14.808,1.063,28.171-11.361C48.18,11.873,31.554-3.819,18.578-.989Z" transform="translate(1561.902 100.948)" fill="#3c3653"/>
      <circle id="Ellipse_14" data-name="Ellipse 14" cx="15" cy="15" r="15" transform="translate(1569 73)" fill="#e8a879"/>
    </g>
    <text id="profile_icon_holder" data-name="profile icon holder" transform="translate(1427 208)" font-size="23" font-family="AvenirNextCondensed-Regular, Avenir Next Condensed"><tspan x="0" y="0">profile icon holder</tspan></text>
    <text id="vendor_image_for_account_creation" data-name="vendor image for account creation" transform="translate(264 743)" font-size="23" font-family="AvenirNextCondensed-Regular, Avenir Next Condensed"><tspan x="0" y="0">vendor image for account creation</tspan></text>
    <text id="possible:_loading_gif" data-name="possible: loading gif" transform="translate(299 1055)" font-size="23" font-family="AvenirNextCondensed-Regular, Avenir Next Condensed"><tspan x="0" y="0">possible: loading gif</tspan></text>
    <text id="logo_image" data-name="logo image" transform="translate(823 745)" font-size="23" font-family="AvenirNextCondensed-Regular, Avenir Next Condensed"><tspan x="0" y="0">logo image</tspan></text>
    <text id="gas_image" data-name="gas image" transform="translate(1063 929)" font-size="23" font-family="AvenirNextCondensed-Regular, Avenir Next Condensed"><tspan x="0" y="0">gas image</tspan></text>
    <g id="Group_94" data-name="Group 94" transform="translate(899.849 225.318)">
      <path id="Path_121" data-name="Path 121" d="M49.182,21.682a27.5,27.5,0,1,0,27.5,27.5A27.5,27.5,0,0,0,49.182,21.682Zm0,50.776A23.276,23.276,0,1,1,72.458,49.182,23.307,23.307,0,0,1,49.182,72.458Z"/>
      <path id="Path_122" data-name="Path 122" d="M50.2,58.153a2.175,2.175,0,0,0,2.175-2.175V36.162a2.175,2.175,0,0,0-4.35,0V55.978A2.175,2.175,0,0,0,50.2,58.153Z" transform="translate(-0.824 -0.62)"/>
      <circle id="Ellipse_16" data-name="Ellipse 16" cx="2.256" cy="2.256" r="2.256" transform="translate(47.122 60.676)"/>
    </g>
    <g id="Group_95" data-name="Group 95" transform="translate(1343 249.5)">
      <path id="Path_125" data-name="Path 125" d="M58.221,29.279a1.965,1.965,0,0,0-2.682,0L43.75,41.053,31.962,29.279a1.9,1.9,0,1,0-2.682,2.679L41.068,43.732,29.279,55.507a1.959,1.959,0,0,0,0,2.679,1.877,1.877,0,0,0,2.682,0L43.75,46.412,55.538,58.186a1.877,1.877,0,0,0,2.682,0,1.959,1.959,0,0,0,0-2.679L46.432,43.732,58.221,31.958A1.959,1.959,0,0,0,58.221,29.279Z" transform="translate(-11 -11)"/>
      <path id="Path_126" data-name="Path 126" d="M32.5,2.5a30,30,0,1,0,30,30A30.027,30.027,0,0,0,32.5,2.5Zm0,56.653A26.653,26.653,0,1,1,59.153,32.5,26.658,26.658,0,0,1,32.5,59.153Z"/>
    </g>
    <g id="Group_96" data-name="Group 96" transform="translate(1121 -725.336)">
      <path id="Path_119" data-name="Path 119" d="M70.884,982.338a5,5,0,0,0-3.438,1.531c-9.578,9.6-16.892,17.615-25.781,26.688l-9.469-8a5,5,0,0,0-6.438,7.656l13,11a5,5,0,0,0,6.75-.281c10.77-10.793,18.437-19.414,29-30a5,5,0,0,0-3.625-8.594Z"/>
    </g>
    <text id="warning_error" data-name="warning error" transform="translate(991 285)" font-size="23" font-family="AvenirNextCondensed-Regular, Avenir Next Condensed"><tspan x="0" y="0">warning error</tspan></text>
    <text id="checking_error" data-name="checking error" transform="translate(1427 285)" font-size="23" font-family="AvenirNextCondensed-Regular, Avenir Next Condensed"><tspan x="0" y="0">checking error</tspan></text>
    <text id="successs" transform="translate(1212 282)" font-size="23" font-family="AvenirNextCondensed-Regular, Avenir Next Condensed"><tspan x="0" y="0">successs</tspan></text>
    <g id="Group_108" data-name="Group 108">
      <g id="Group_80" data-name="Group 80" transform="translate(-213 114)">
        <path id="Path_98" data-name="Path 98" d="M6,0H70a6,6,0,0,1,6,6V47a6,6,0,0,1-6,6H6a6,6,0,0,1-6-6V6A6,6,0,0,1,6,0Z" transform="translate(299 578)" fill="#fedb9b"/>
        <rect id="Rectangle_109" data-name="Rectangle 109" width="20" height="26" rx="6" transform="translate(304 594)" fill="#fff"/>
        <g id="Group_68" data-name="Group 68" transform="translate(-971 75)">
          <path id="Path_69" data-name="Path 69" d="M3,0H7a3,3,0,0,1,3,3V29a3,3,0,0,1-3,3H3a3,3,0,0,1-3-3V3A3,3,0,0,1,3,0Z" transform="translate(1254 565)" fill="#031238"/>
          <rect id="Rectangle_66" data-name="Rectangle 66" width="14" height="5" transform="translate(1254 592)" fill="#231f2f"/>
          <path id="Path_52" data-name="Path 52" d="M3061.445,584.049c5.4.979,11.361,2.259,13.928-2.659,3.222-6.164,1.952-19.348,1.952-19.348" transform="translate(-1796.945 -56)" fill="none" stroke="#f7a272" stroke-linecap="round" stroke-width="5"/>
          <path id="Path_54" data-name="Path 54" d="M12.116,4.129S10.89,5.545,5.182,3.144,0,2.07,0,2.07v8.767a73.17,73.17,0,0,0,7.74.633A21.156,21.156,0,0,0,14.595,9.85l-.125-.294L12.927,5.933Z" transform="translate(1260.686 521.901)" fill="#041448"/>
          <path id="Path_53" data-name="Path 53" d="M4.361-1.5C-2.15-.431-1.173,23.592-1,37.9c.075,6.343.694,12.841,1.623,15.216,1.957,2.518,5.868,5.369,8.97,3.855,1.646-18.275.134-.393,1.416-19.07,3.016-11.734,2.133-25.319,2.133-25.319S16.113-3.43,4.361-1.5Z" transform="translate(1254 522)" fill="#021438"/>
          <ellipse id="Ellipse_9" data-name="Ellipse 9" cx="10" cy="12" rx="10" ry="12" transform="translate(1252 498)" fill="#f7a172"/>
          <path id="Path_67" data-name="Path 67" d="M3054.727,583.593c10.655,2,16.388-14.994,16.388-14.994" transform="matrix(-0.017, 1, -1, -0.017, 1901.106, -2511.451)" fill="none" stroke="#f7a272" stroke-linecap="round" stroke-width="5"/>
          <path id="Path_68" data-name="Path 68" d="M10.376,2.918a32.59,32.59,0,0,0-5.785-.175,14.152,14.152,0,0,0-4.9,1.823L0,10.836a73.17,73.17,0,0,0,7.74.633,6.445,6.445,0,0,0,4.634-1.716Z" transform="matrix(0.174, 0.985, -0.985, 0.174, 1268.963, 526.03)" fill="#031748"/>
        </g>
        <rect id="Rectangle_110" data-name="Rectangle 110" width="20" height="26" rx="6" transform="translate(326 594)" fill="#fff"/>
        <rect id="Rectangle_111" data-name="Rectangle 111" width="20" height="26" rx="6" transform="translate(348 594)" fill="#fff"/>
        <text id="_" data-name="$" transform="translate(309 615)" fill="#0e1d63" font-size="23" font-family="AvenirNextCondensed-Regular, Avenir Next Condensed"><tspan x="0" y="0">$</tspan></text>
        <text id="_2" data-name="$" transform="translate(331 615)" fill="#0e1d63" font-size="23" font-family="AvenirNextCondensed-Regular, Avenir Next Condensed"><tspan x="0" y="0">$</tspan></text>
        <text id="_3" data-name="$" transform="translate(353 615)" fill="#0e1d63" font-size="23" font-family="AvenirNextCondensed-Regular, Avenir Next Condensed"><tspan x="0" y="0">$</tspan></text>
      </g>
      <g id="Group_77" data-name="Group 77" transform="translate(-187 410)">
        <g id="Group_34" data-name="Group 34" transform="translate(-947 -221)">
          <line id="Line_6" data-name="Line 6" y2="9" transform="translate(1310.873 507.654)" fill="none" stroke="#707070" stroke-width="4"/>
          <line id="Line_7" data-name="Line 7" y2="9" transform="translate(1352.468 507.654)" fill="none" stroke="#707070" stroke-width="4"/>
        </g>
        <rect id="Rectangle_52" data-name="Rectangle 52" width="83" height="106" rx="12" transform="translate(344 295)" fill="#a20021"/>
        <path id="Path_57" data-name="Path 57" d="M1261.89,1474.691c-12.663-.338,4.207,45.515-12.537,56.4s-13.94-16.5-10.15-26.847c2.156-6.575,17.985-30.226,18.051-40.207" transform="translate(-917.853 -1136.487)" fill="none" stroke="#707070" stroke-width="3"/>
        <path id="Path_97" data-name="Path 97" d="M9,0H51a9,9,0,0,1,9,9V20a9,9,0,0,1-9,9H9a9,9,0,0,1-9-9V9A9,9,0,0,1,9,0Z" transform="translate(355 258)" fill="#bf3d3d"/>
        <rect id="Rectangle_55" data-name="Rectangle 55" width="50" height="32" rx="12" transform="translate(360 307)" fill="#fff"/>
        <text id="GAS-2" data-name="GAS" transform="translate(362 283)" fill="#fff" stroke="#707070" stroke-width="0.2" font-size="30" font-family="AvenirNextCondensed-Bold, Avenir Next Condensed" font-weight="700"><tspan x="0" y="0">GAS</tspan></text>
        <g id="Group_35" data-name="Group 35" transform="translate(-936.206 -223.224)">
          <path id="Path_46" data-name="Path 46" d="M0,7,2.266,2.921,7.54-3.355" transform="translate(1271.38 538.794)" fill="none" stroke="#707070" stroke-linejoin="round" stroke-width="1.5"/>
          <path id="Path_47" data-name="Path 47" d="M-2.833-3.515c2-3.238,4.6-5.779,4.484-3.249-.052,2.4.507,4.11,0,4.806C-.134.49,2.689,3.887,2.689,5.26c0,3.238-1.038,3.785-1.038,3.785s-3.363,2.269-4.484-.871S-4.833-.278-2.833-3.515Z" transform="translate(1274.465 546.47)" fill="#5a5858"/>
          <path id="Path_48" data-name="Path 48" d="M1270.772,1450.376a9.444,9.444,0,0,1,4.519,2.3c.776.831.734,4.66.867,5.946.155,1.428-1.686,1.629-4.181,2.115" transform="translate(2.728 -907.699)" fill="none" stroke="#5a5858" stroke-linecap="round" stroke-width="2"/>
        </g>
        <line id="Line_9" data-name="Line 9" x2="12" transform="translate(332.711 332.494)" fill="none" stroke="#504c4c" stroke-width="3"/>
      </g>
    </g>
    <g id="Group_111" data-name="Group 111" transform="translate(1259 -242)">
      <g id="Group_34-2" data-name="Group 34" transform="translate(-947 -221)">
        <line id="Line_6-2" data-name="Line 6" y2="9" transform="translate(1310.873 507.654)" fill="none" stroke="#707070" stroke-width="4"/>
        <line id="Line_7-2" data-name="Line 7" y2="9" transform="translate(1352.468 507.654)" fill="none" stroke="#707070" stroke-width="4"/>
      </g>
      <rect id="Rectangle_52-2" data-name="Rectangle 52" width="83" height="106" rx="12" transform="translate(344 295)" fill="#a20021"/>
      <path id="Path_57-2" data-name="Path 57" d="M1261.89,1474.691c-12.663-.338,4.207,45.515-12.537,56.4s-13.94-16.5-10.15-26.847c2.156-6.575,17.985-30.226,18.051-40.207" transform="translate(-917.853 -1136.487)" fill="none" stroke="#707070" stroke-width="3"/>
      <path id="Path_97-2" data-name="Path 97" d="M9,0H51a9,9,0,0,1,9,9V20a9,9,0,0,1-9,9H9a9,9,0,0,1-9-9V9A9,9,0,0,1,9,0Z" transform="translate(355 258)" fill="#bf3d3d"/>
      <rect id="Rectangle_55-2" data-name="Rectangle 55" width="50" height="32" rx="12" transform="translate(360 307)" fill="#fff"/>
      <text id="GAS-3" data-name="GAS" transform="translate(362 283)" fill="#fff" stroke="#707070" stroke-width="0.2" font-size="30" font-family="AvenirNextCondensed-Bold, Avenir Next Condensed" font-weight="700"><tspan x="0" y="0">GAS</tspan></text>
      <g id="Group_35-2" data-name="Group 35" transform="translate(-936.206 -223.224)">
        <path id="Path_46-2" data-name="Path 46" d="M0,7,2.266,2.921,7.54-3.355" transform="translate(1271.38 538.794)" fill="none" stroke="#707070" stroke-linejoin="round" stroke-width="1.5"/>
        <path id="Path_47-2" data-name="Path 47" d="M-2.833-3.515c2-3.238,4.6-5.779,4.484-3.249-.052,2.4.507,4.11,0,4.806C-.134.49,2.689,3.887,2.689,5.26c0,3.238-1.038,3.785-1.038,3.785s-3.363,2.269-4.484-.871S-4.833-.278-2.833-3.515Z" transform="translate(1274.465 546.47)" fill="#5a5858"/>
        <path id="Path_48-2" data-name="Path 48" d="M1270.772,1450.376a9.444,9.444,0,0,1,4.519,2.3c.776.831.734,4.66.867,5.946.155,1.428-1.686,1.629-4.181,2.115" transform="translate(2.728 -907.699)" fill="none" stroke="#5a5858" stroke-linecap="round" stroke-width="2"/>
      </g>
      <line id="Line_9-2" data-name="Line 9" x2="12" transform="translate(332.711 332.494)" fill="none" stroke="#504c4c" stroke-width="3"/>
    </g>
  </g>
</svg>
