<svg xmlns="http://www.w3.org/2000/svg" xmlns:xlink="http://www.w3.org/1999/xlink" width="1920" height="1080" viewBox="0 0 1920 1080">
  <defs>
    <clipPath id="clip-Vendor:_Main_Screen">
      <rect width="1920" height="1080"/>
    </clipPath>
  </defs>
  <g id="Vendor:_Main_Screen" data-name="Vendor: Main Screen" clip-path="url(#clip-Vendor:_Main_Screen)">
    <rect width="1920" height="1080" fill="#fff"/>
    <rect id="Rectangle_29" data-name="Rectangle 29" width="1920" height="94" fill="#c6ddf4"/>
    <rect id="Rectangle_38" data-name="Rectangle 38" width="252" height="986" transform="translate(0 94)" fill="#0c2163"/>
    <circle id="Ellipse_10" data-name="Ellipse 10" cx="37.5" cy="37.5" r="37.5" transform="translate(1818 10)" fill="#fff"/>
    <rect id="Rectangle_39" data-name="Rectangle 39" width="500" height="240" rx="42" transform="translate(277 268)" fill="#feda9b"/>
    <rect id="Rectangle_48" data-name="Rectangle 48" width="500" height="240" rx="42" transform="translate(1377 268)" fill="#feda9b"/>
    <rect id="Rectangle_49" data-name="Rectangle 49" width="500" height="240" rx="42" transform="translate(277 534)" fill="#feda9b"/>
    <rect id="Rectangle_50" data-name="Rectangle 50" width="500" height="240" rx="42" transform="translate(827 534)" fill="#feda9b"/>
    <rect id="Rectangle_51" data-name="Rectangle 51" width="500" height="240" rx="42" transform="translate(1377 534)" fill="#feda9b"/>
    <text id="Welcome_Ashley_" data-name="Welcome, Ashley!" transform="translate(1377 64)" fill="#021438" font-size="50" font-family="Rubik-Bold, Rubik" font-weight="700"><tspan x="0" y="0">Welcome, Ashley!</tspan></text>
    <path id="Path_56" data-name="Path 56" d="M18.578-.989C5.6,1.841-4.011,9.756-4.011,21.114-7.4,23.451,9.319,34.593,20.01,34.593c9.4,0,14.808,1.063,28.171-11.361C48.18,11.873,31.554-3.819,18.578-.989Z" transform="translate(1833.902 49.948)" fill="#3c3653"/>
    <circle id="Ellipse_11" data-name="Ellipse 11" cx="15" cy="15" r="15" transform="translate(1841 22)" fill="#e8a879"/>
    <g id="Group_36" data-name="Group 36" transform="translate(-30 32)">
      <g id="Group_34" data-name="Group 34" transform="translate(-947 -221)">
        <line id="Line_6" data-name="Line 6" y2="9" transform="translate(1310.873 507.654)" fill="none" stroke="#707070" stroke-width="4"/>
        <line id="Line_7" data-name="Line 7" y2="9" transform="translate(1352.468 507.654)" fill="none" stroke="#707070" stroke-width="4"/>
      </g>
      <rect id="Rectangle_52" data-name="Rectangle 52" width="83" height="106" rx="12" transform="translate(344 295)" fill="#bf3d3d"/>
      <path id="Path_57" data-name="Path 57" d="M1261.89,1474.691c-12.663-.338,4.207,45.515-12.537,56.4s-13.94-16.5-10.15-26.847c2.156-6.575,17.985-30.226,18.051-40.207" transform="translate(-917.853 -1136.487)" fill="none" stroke="#707070" stroke-width="3"/>
      <rect id="Rectangle_53" data-name="Rectangle 53" width="60" height="29" rx="9" transform="translate(355 258)" fill="#db4646"/>
      <rect id="Rectangle_54" data-name="Rectangle 54" width="63" height="93" rx="12" transform="translate(352 299)" fill="#db4646"/>
      <g id="Rectangle_55" data-name="Rectangle 55" transform="translate(360 307)" fill="#fff" stroke="#707070" stroke-width="1">
        <rect width="50" height="32" rx="12" stroke="none"/>
        <rect x="0.5" y="0.5" width="49" height="31" rx="11.5" fill="none"/>
      </g>
      <text id="GAS" transform="translate(362 283)" fill="#fff" stroke="#707070" stroke-width="0.2" font-size="30" font-family="AvenirNextCondensed-Bold, Avenir Next Condensed" font-weight="700"><tspan x="0" y="0">GAS</tspan></text>
      <g id="Group_35" data-name="Group 35" transform="translate(-936.206 -223.224)">
        <path id="Path_46" data-name="Path 46" d="M0,7,2.266,2.921,7.54-3.355" transform="translate(1271.38 538.794)" fill="none" stroke="#707070" stroke-linejoin="round" stroke-width="1.5"/>
        <path id="Path_47" data-name="Path 47" d="M-2.833-3.515c2-3.238,4.6-5.779,4.484-3.249-.052,2.4.507,4.11,0,4.806C-.134.49,2.689,3.887,2.689,5.26c0,3.238-1.038,3.785-1.038,3.785s-3.363,2.269-4.484-.871S-4.833-.278-2.833-3.515Z" transform="translate(1274.465 546.47)" fill="#5a5858"/>
        <path id="Path_48" data-name="Path 48" d="M1270.772,1450.376a9.444,9.444,0,0,1,4.519,2.3c.776.831.734,4.66.867,5.946.155,1.428-1.686,1.629-4.181,2.115" transform="translate(2.728 -907.699)" fill="none" stroke="#5a5858" stroke-linecap="round" stroke-width="2"/>
      </g>
      <line id="Line_9" data-name="Line 9" x2="12" transform="translate(332.711 332.494)" fill="none" stroke="#504c4c" stroke-width="3"/>
    </g>
    <text id="La_Mirada_Imperial_Hwy" data-name="La Mirada, Imperial Hwy" transform="translate(407 337)" fill="#021438" font-size="30" font-family="Rubik-Bold, Rubik" font-weight="700"><tspan x="0" y="0">La Mirada, Imperial Hwy</tspan></text>
    <rect id="Rectangle_56" data-name="Rectangle 56" width="77" height="67" rx="18" transform="translate(407 365)" fill="#faf4dd"/>
    <text id="_3.35" data-name="3.35" transform="translate(417 408)" fill="#504741" font-size="25" font-family="Rubik-Bold, Rubik" font-weight="700"><tspan x="0" y="0">3.35</tspan></text>
    <rect id="Rectangle_57" data-name="Rectangle 57" width="77" height="67" rx="18" transform="translate(491 365)" fill="#faf4dd"/>
    <text id="_3.35-2" data-name="3.35" transform="translate(501 408)" fill="#504741" font-size="25" font-family="Rubik-Bold, Rubik" font-weight="700"><tspan x="0" y="0">3.35</tspan></text>
    <rect id="Rectangle_58" data-name="Rectangle 58" width="77" height="67" rx="18" transform="translate(575 365)" fill="#faf4dd"/>
    <text id="_3.35-3" data-name="3.35" transform="translate(585 408)" fill="#504741" font-size="25" font-family="Rubik-Bold, Rubik" font-weight="700"><tspan x="0" y="0">3.35</tspan></text>
    <rect id="Rectangle_59" data-name="Rectangle 59" width="77" height="68" rx="18" transform="translate(659 365)" fill="#faf4dd"/>
    <text id="_3.35-4" data-name="3.35" transform="translate(669 408)" fill="#504741" font-size="25" font-family="Rubik-Bold, Rubik" font-weight="700"><tspan x="0" y="0">3.35</tspan></text>
    <text id="Reg" transform="translate(422 462)" fill="#504741" font-size="25" font-family="Rubik-Bold, Rubik" font-weight="700"><tspan x="0" y="0">Reg</tspan></text>
    <text id="Mid" transform="translate(506 462)" fill="#504741" font-size="25" font-family="Rubik-Bold, Rubik" font-weight="700"><tspan x="0" y="0">Mid</tspan></text>
    <circle id="Ellipse_12" data-name="Ellipse 12" cx="50" cy="50" r="50" transform="translate(1779 911)" fill="#faf4dd"/>
    <text id="Prem" transform="translate(580 462)" fill="#504741" font-size="25" font-family="Rubik-Bold, Rubik" font-weight="700"><tspan x="0" y="0">Prem</tspan></text>
    <text id="Diesel" transform="translate(659 462)" fill="#504741" font-size="25" font-family="Rubik-Bold, Rubik" font-weight="700"><tspan x="0" y="0">Diesel</tspan></text>
    <g id="Group_52" data-name="Group 52">
      <g id="Group_46" data-name="Group 46" transform="translate(1806.474 938)">
        <g id="Group_47" data-name="Group 47" transform="translate(1.076)">
          <g id="Group_46-2" data-name="Group 46">
            <path id="Path_58" data-name="Path 58" d="M37.905,71.35a2.1,2.1,0,0,1-1.1-.4L29,63.159a1.447,1.447,0,0,1,0-2.1L62.118,28a1.451,1.451,0,0,1,2.1,0l7.8,7.791a1.447,1.447,0,0,1,0,2.1L39.006,70.95A2.1,2.1,0,0,1,37.905,71.35Zm-5.6-9.289,5.7,5.693L69.022,36.789l-5.7-5.694Z" transform="translate(-28.55 -27.55)" fill="#0e1d63"/>
          </g>
        </g>
        <g id="Group_49" data-name="Group 49" transform="translate(0 33.222)">
          <g id="Group_48" data-name="Group 48">
            <path id="Path_59" data-name="Path 59" d="M29,72.5a2.1,2.1,0,0,1-1.1-.4,1.374,1.374,0,0,1-.4-1.2l1.1-8.8a1.549,1.549,0,0,1,1-1.2,1.439,1.439,0,0,1,1.5.4L38.8,69a1.674,1.674,0,0,1,.4,1.5,1.722,1.722,0,0,1-1.2,1l-8.8,1.1C29.1,72.5,29.1,72.5,29,72.5Zm2.2-7.1-.5,3.9,3.9-.5Z" transform="translate(-27.474 -60.822)" fill="#0e1d63"/>
          </g>
        </g>
        <g id="Group_51" data-name="Group 51" transform="translate(26.495 7.689)">
          <g id="Group_50" data-name="Group 50">
            <path id="Path_60" data-name="Path 60" d="M63.3,46a1.5,1.5,0,0,1-1.1-.4l-7.8-7.8a1.485,1.485,0,1,1,2.1-2.1l7.8,7.8a1.45,1.45,0,0,1,0,2.1A1.528,1.528,0,0,1,63.3,46Z" transform="translate(-53.95 -35.25)" fill="#0e1d63"/>
          </g>
        </g>
      </g>
    </g>
    <text id="Dashboard" transform="translate(277 191)" fill="#3a3335" font-size="70" font-family="Baloo-Regular, Baloo"><tspan x="0" y="0">Dashboard</tspan></text>
    <g id="noun_logout_2775411" transform="translate(57 787)">
      <g id="Group_54" data-name="Group 54">
        <path id="Path_64" data-name="Path 64" d="M46.613,80.471a1.5,1.5,0,0,0,1.38-1.4,1.534,1.534,0,0,0-1.38-1.575H4.873L17.119,65.244a1.615,1.615,0,0,0,0-2.1,1.553,1.553,0,0,0-2.07,0L.388,78.021a1.611,1.611,0,0,0,0,2.1l14.661,14.7a1.28,1.28,0,0,0,2.07,0,1.611,1.611,0,0,0,0-2.1L4.873,80.471Z" transform="translate(64.75)" fill="#fff"/>
        <path id="Path_65" data-name="Path 65" d="M264.6,19.315a2.689,2.689,0,0,0,2.735,2.453,2.626,2.626,0,0,0,2.431-2.453V2.453A2.689,2.689,0,0,0,267.027,0H228.735A2.736,2.736,0,0,0,226,2.759V92.9a2.689,2.689,0,0,0,2.735,2.453h38.6a2.694,2.694,0,0,0,2.431-2.759V76.033a2.626,2.626,0,0,0-2.431-2.453,2.689,2.689,0,0,0-2.735,2.453v14.1h-33.43V5.212H264.6Z" transform="translate(-198 29)" fill="#fff"/>
      </g>
    </g>
    <line id="Line_10" data-name="Line 10" x2="1400" transform="translate(288.5 215.5)" fill="none" stroke="#96616b" stroke-width="5"/>
    <g id="Group_45" data-name="Group 45" transform="translate(-3 1)">
      <g id="Group_37" data-name="Group 37" transform="translate(-402 -494)">
        <path id="Path_37" data-name="Path 37" d="M0-1.253l251.86-1.1v15L0,11.4Z" transform="translate(408 558)" fill="#3a3335"/>
        <path id="Path_32" data-name="Path 32" d="M1.276,0H27.438a1.778,1.778,0,0,1,1.784,1.772l9.054,21.3s9.2,1.068,18.421,3.019c1.4,1.75.957,9.04,1.42,13.026-.011,12.072.228,27.4.228,27.4-6.164,1.06-43.909-4.851-44.894-4.851,0,0-5.985-.935-9.213-1.8a22.276,22.276,0,0,0-4.747-.776c-1.677-.285,0-57.313,0-57.313A1.778,1.778,0,0,1,1.276,0Z" transform="translate(652 502)" fill="#96616b"/>
        <rect id="Rectangle_26" data-name="Rectangle 26" width="19.788" height="19" rx="3" transform="translate(655 504)" fill="#c7ddf4"/>
        <path id="Path_34" data-name="Path 34" d="M0,0H4.137A18.953,18.953,0,0,1,5.345,5.547a71.384,71.384,0,0,1,0,8.456V40.143H0Z" transform="translate(705 528.5)" fill="#ded7d7"/>
        <text id="Transport" transform="translate(418 554)" fill="#0e1d63" font-size="53" font-family="FasterOne-Regular, Faster One"><tspan x="0" y="0">T</tspan><tspan y="0" font-size="33">ransport</tspan></text>
        <line id="Line_2" data-name="Line 2" x2="6" transform="translate(654.5 526.5)" fill="none" stroke="#031238" stroke-width="3"/>
        <path id="Path_39" data-name="Path 39" d="M0,7.447H0l1.613-.5C2.865,6.272,1.63,0,1.63,0" transform="matrix(0.999, 0.035, -0.035, 0.999, 678.914, 514.982)" fill="none" stroke="#707070" stroke-width="1"/>
        <path id="Path_36" data-name="Path 36" d="M22.444.941c7.952,0,11.334,6.086,15.333,13.038,1.077,2.62-2.2.669-2.057,1.028-.915.433-2.119-8.1-13.276-8.1-7.169,0-11.777,3.112-15.353,3.926A29.676,29.676,0,0,1,2.67,9.866a9.046,9.046,0,0,1,.857-1.314C7.773,2.946,14.92.84,22.444.941Z" transform="translate(652.247 551.705)" fill="#81565e"/>
        <g id="Group_23" data-name="Group 23" transform="translate(-2920.866 650)">
          <path id="Path_1" data-name="Path 1" d="M10.922.988C16.571.578,25.491,6.2,25.428,12.194,26.684,14.478,18.37,6.544,10.6,6.544S-7.19,16.487-3.085,7.684C-1.819,5.5,1.894,3.1,5.822,1.734A12.212,12.212,0,0,1,10.922.988Z" transform="translate(3583.23 -95)" fill="#393737"/>
          <g id="Group_3" data-name="Group 3" transform="translate(3561 -109)">
            <ellipse id="Ellipse_3" data-name="Ellipse 3" cx="15.663" cy="15" rx="15.663" ry="15" transform="translate(17 16)" fill="#050404"/>
            <circle id="Ellipse_4" data-name="Ellipse 4" cx="7.5" cy="7.5" r="7.5" transform="translate(25.34 23.769)" fill="#a8a8a8"/>
          </g>
        </g>
        <text id="Op" transform="translate(659 552)" fill="#0e1d63" font-size="37" font-family="FasterOne-Regular, Faster One"><tspan x="0" y="0">O</tspan><tspan y="0" font-size="17">p</tspan></text>
        <rect id="Rectangle_28" data-name="Rectangle 28" width="4" height="10" rx="2" transform="translate(677.827 510.222) rotate(-8)" fill="#3a3335"/>
        <g id="Group_38" data-name="Group 38" transform="translate(-3169.866 651)">
          <path id="Path_1-2" data-name="Path 1" d="M11.563.358c5.2,0,13.929,5.839,13.865,11.836C26.684,14.478,18.37,6.544,10.6,6.544S-1.936,10.686.189,7.684C.317,7.5-6.692,14.45-2.588,5.647-.646,2.3,6.865.291,11.563.358Z" transform="translate(3583.23 -95)" fill="#393737"/>
          <g id="Group_3-2" data-name="Group 3" transform="translate(3561 -109)">
            <ellipse id="Ellipse_3-2" data-name="Ellipse 3" cx="15.663" cy="15" rx="15.663" ry="15" transform="translate(17 16)" fill="#050404"/>
            <circle id="Ellipse_4-2" data-name="Ellipse 4" cx="7.5" cy="7.5" r="7.5" transform="translate(25.34 23.769)" fill="#a8a8a8"/>
          </g>
        </g>
        <g id="Group_39" data-name="Group 39" transform="translate(-3138.866 651)">
          <path id="Path_1-3" data-name="Path 1" d="M11.563.358c5.2,0,13.929,5.839,13.865,11.836C26.684,14.478,18.37,6.544,10.6,6.544S-1.936,10.686.189,7.684C.317,7.5-6.692,14.45-2.588,5.647-.646,2.3,6.865.291,11.563.358Z" transform="translate(3583.23 -95)" fill="#393737"/>
          <g id="Group_3-3" data-name="Group 3" transform="translate(3561 -109)">
            <ellipse id="Ellipse_3-3" data-name="Ellipse 3" cx="15.663" cy="15" rx="15.663" ry="15" transform="translate(17 16)" fill="#050404"/>
            <circle id="Ellipse_4-3" data-name="Ellipse 4" cx="7.5" cy="7.5" r="7.5" transform="translate(25.34 23.769)" fill="#a8a8a8"/>
          </g>
        </g>
        <g id="Group_40" data-name="Group 40" transform="translate(-2954.866 651)">
          <path id="Path_1-4" data-name="Path 1" d="M11.563.358c5.2,0,13.929,5.839,13.865,11.836C26.684,14.478,18.37,6.544,10.6,6.544S-1.936,10.686.189,7.684C.317,7.5-6.692,14.45-2.588,5.647-.646,2.3,6.865.291,11.563.358Z" transform="translate(3583.23 -95)" fill="#393737"/>
          <g id="Group_3-4" data-name="Group 3" transform="translate(3561 -109)">
            <ellipse id="Ellipse_3-4" data-name="Ellipse 3" cx="15.663" cy="15" rx="15.663" ry="15" transform="translate(17 16)" fill="#050404"/>
            <circle id="Ellipse_4-4" data-name="Ellipse 4" cx="7.5" cy="7.5" r="7.5" transform="translate(25.34 23.769)" fill="#a8a8a8"/>
          </g>
        </g>
      </g>
    </g>
    <rect id="Rectangle_46" data-name="Rectangle 46" width="190" height="88" rx="44" transform="translate(31 333)" fill="#faf4dd"/>
    <text id="edit_prices" data-name="edit prices" transform="translate(47 387)" fill="#3a3335" font-size="30" font-family="Rubik-Bold, Rubik" font-weight="700"><tspan x="0" y="0">edit prices</tspan></text>
    <rect id="Rectangle_61" data-name="Rectangle 61" width="190" height="88" rx="44" transform="translate(31 437)" fill="#faf4dd"/>
    <text id="add_station" data-name="add station" transform="translate(43 491)" fill="#3a3335" font-size="29" font-family="Rubik-Bold, Rubik" font-weight="700"><tspan x="0" y="0">add station</tspan></text>
    <rect id="Rectangle_126" data-name="Rectangle 126" width="190" height="88" rx="44" transform="translate(31 229)" fill="#faf3dd"/>
    <text id="home" transform="translate(85 282)" fill="#3a3335" font-size="29" font-family="Rubik-Bold, Rubik" font-weight="700"><tspan x="0" y="0">home</tspan></text>
    <text id="Arco" transform="translate(317 464)" fill="#021438" font-size="30" font-family="Rubik-Bold, Rubik" font-weight="700"><tspan x="0" y="0">Arco</tspan></text>
    <rect id="Rectangle_148" data-name="Rectangle 148" width="500" height="240" rx="42" transform="translate(827 268)" fill="#feda9b"/>
    <g id="Group_110" data-name="Group 110" transform="translate(520 32)">
      <g id="Group_34-2" data-name="Group 34" transform="translate(-947 -221)">
        <line id="Line_6-2" data-name="Line 6" y2="9" transform="translate(1310.873 507.654)" fill="none" stroke="#707070" stroke-width="4"/>
        <line id="Line_7-2" data-name="Line 7" y2="9" transform="translate(1352.468 507.654)" fill="none" stroke="#707070" stroke-width="4"/>
      </g>
      <rect id="Rectangle_52-2" data-name="Rectangle 52" width="83" height="106" rx="12" transform="translate(344 295)" fill="#bf3d3d"/>
      <path id="Path_57-2" data-name="Path 57" d="M1261.89,1474.691c-12.663-.338,4.207,45.515-12.537,56.4s-13.94-16.5-10.15-26.847c2.156-6.575,17.985-30.226,18.051-40.207" transform="translate(-917.853 -1136.487)" fill="none" stroke="#707070" stroke-width="3"/>
      <rect id="Rectangle_53-2" data-name="Rectangle 53" width="60" height="29" rx="9" transform="translate(355 258)" fill="#db4646"/>
      <rect id="Rectangle_54-2" data-name="Rectangle 54" width="63" height="93" rx="12" transform="translate(352 299)" fill="#db4646"/>
      <g id="Rectangle_55-2" data-name="Rectangle 55" transform="translate(360 307)" fill="#fff" stroke="#707070" stroke-width="1">
        <rect width="50" height="32" rx="12" stroke="none"/>
        <rect x="0.5" y="0.5" width="49" height="31" rx="11.5" fill="none"/>
      </g>
      <text id="GAS-2" data-name="GAS" transform="translate(362 283)" fill="#fff" stroke="#707070" stroke-width="0.2" font-size="30" font-family="AvenirNextCondensed-Bold, Avenir Next Condensed" font-weight="700"><tspan x="0" y="0">GAS</tspan></text>
      <g id="Group_35-2" data-name="Group 35" transform="translate(-936.206 -223.224)">
        <path id="Path_46-2" data-name="Path 46" d="M0,7,2.266,2.921,7.54-3.355" transform="translate(1271.38 538.794)" fill="none" stroke="#707070" stroke-linejoin="round" stroke-width="1.5"/>
        <path id="Path_47-2" data-name="Path 47" d="M-2.833-3.515c2-3.238,4.6-5.779,4.484-3.249-.052,2.4.507,4.11,0,4.806C-.134.49,2.689,3.887,2.689,5.26c0,3.238-1.038,3.785-1.038,3.785s-3.363,2.269-4.484-.871S-4.833-.278-2.833-3.515Z" transform="translate(1274.465 546.47)" fill="#5a5858"/>
        <path id="Path_48-2" data-name="Path 48" d="M1270.772,1450.376a9.444,9.444,0,0,1,4.519,2.3c.776.831.734,4.66.867,5.946.155,1.428-1.686,1.629-4.181,2.115" transform="translate(2.728 -907.699)" fill="none" stroke="#5a5858" stroke-linecap="round" stroke-width="2"/>
      </g>
      <line id="Line_9-2" data-name="Line 9" x2="12" transform="translate(332.711 332.494)" fill="none" stroke="#504c4c" stroke-width="3"/>
    </g>
    <text id="La_Mirada_Imperial_Hwy-2" data-name="La Mirada, Imperial Hwy" transform="translate(957 337)" fill="#021438" font-size="30" font-family="Rubik-Bold, Rubik" font-weight="700"><tspan x="0" y="0">La Mirada, Imperial Hwy</tspan></text>
    <rect id="Rectangle_149" data-name="Rectangle 149" width="77" height="67" rx="18" transform="translate(957 365)" fill="#faf4dd"/>
    <text id="_3.35-5" data-name="3.35" transform="translate(967 408)" fill="#504741" font-size="25" font-family="Rubik-Bold, Rubik" font-weight="700"><tspan x="0" y="0">3.35</tspan></text>
    <rect id="Rectangle_150" data-name="Rectangle 150" width="77" height="67" rx="18" transform="translate(1041 365)" fill="#faf4dd"/>
    <text id="_3.35-6" data-name="3.35" transform="translate(1051 408)" fill="#504741" font-size="25" font-family="Rubik-Bold, Rubik" font-weight="700"><tspan x="0" y="0">3.35</tspan></text>
    <rect id="Rectangle_151" data-name="Rectangle 151" width="77" height="67" rx="18" transform="translate(1125 365)" fill="#faf4dd"/>
    <text id="_3.35-7" data-name="3.35" transform="translate(1135 408)" fill="#504741" font-size="25" font-family="Rubik-Bold, Rubik" font-weight="700"><tspan x="0" y="0">3.35</tspan></text>
    <rect id="Rectangle_152" data-name="Rectangle 152" width="77" height="68" rx="18" transform="translate(1209 365)" fill="#faf4dd"/>
    <text id="_3.35-8" data-name="3.35" transform="translate(1219 408)" fill="#504741" font-size="25" font-family="Rubik-Bold, Rubik" font-weight="700"><tspan x="0" y="0">3.35</tspan></text>
    <text id="Reg-2" data-name="Reg" transform="translate(972 462)" fill="#504741" font-size="25" font-family="Rubik-Bold, Rubik" font-weight="700"><tspan x="0" y="0">Reg</tspan></text>
    <text id="Mid-2" data-name="Mid" transform="translate(1056 462)" fill="#504741" font-size="25" font-family="Rubik-Bold, Rubik" font-weight="700"><tspan x="0" y="0">Mid</tspan></text>
    <text id="Prem-2" data-name="Prem" transform="translate(1130 462)" fill="#504741" font-size="25" font-family="Rubik-Bold, Rubik" font-weight="700"><tspan x="0" y="0">Prem</tspan></text>
    <text id="Diesel-2" data-name="Diesel" transform="translate(1209 462)" fill="#504741" font-size="25" font-family="Rubik-Bold, Rubik" font-weight="700"><tspan x="0" y="0">Diesel</tspan></text>
    <text id="Arco-2" data-name="Arco" transform="translate(867 464)" fill="#021438" font-size="30" font-family="Rubik-Bold, Rubik" font-weight="700"><tspan x="0" y="0">Arco</tspan></text>
  </g>
</svg>
