<svg xmlns="http://www.w3.org/2000/svg" xmlns:xlink="http://www.w3.org/1999/xlink" width="1920" height="1080" viewBox="0 0 1920 1080">
  <defs>
    <clipPath id="clip-Vendor:_Create_Account">
      <rect width="1920" height="1080"/>
    </clipPath>
  </defs>
  <g id="Vendor:_Create_Account" data-name="Vendor: Create Account" clip-path="url(#clip-Vendor:_Create_Account)">
    <rect width="1920" height="1080" fill="#fff"/>
    <path id="Path_108" data-name="Path 108" d="M0,0H1920V1080H0Z" fill="#faf5dd"/>
    <path id="Path_93" data-name="Path 93" d="M36,0H1389a36,36,0,0,1,36,36V832a36,36,0,0,1-36,36H36A36,36,0,0,1,0,832V36A36,36,0,0,1,36,0Z" transform="translate(248 91)" fill="#c8ddf4"/>
    <text id="Create_an_Account" data-name="Create an Account" transform="translate(335 187)" fill="#0c2163" font-size="60" font-family="Baloo-Regular, Baloo"><tspan x="0" y="0">Create an Account</tspan></text>
    <g id="Group_67" data-name="Group 67" transform="translate(860 107)">
      <rect id="Rectangle_5" data-name="Rectangle 5" width="200" height="80" rx="40" transform="translate(436 739)" fill="#96616b"/>
      <text id="Create" transform="translate(474.916 793)" fill="#faf5dd" font-size="40" font-family="Rubik-Regular, Rubik"><tspan x="0" y="0">Create</tspan></text>
    </g>
    <text id="have_an_account_with_us_" data-name="have an account with us?" transform="translate(1011 893)" fill="#3a3436" font-size="20" font-family="Rubik-Regular, Rubik" text-decoration="underline"><tspan x="0" y="0">have an account with us?</tspan></text>
    <rect id="Rectangle_100" data-name="Rectangle 100" width="450" height="60" rx="20" transform="translate(437 294)" fill="#fff"/>
    <text id="First_Name" data-name="First Name" transform="translate(438 280)" fill="#3a3335" font-size="30" font-family="Rubik-Regular, Rubik"><tspan x="0" y="0">First Name</tspan></text>
    <text id="Last_Name" data-name="Last Name" transform="translate(977 280)" fill="#3a3335" font-size="30" font-family="Rubik-Regular, Rubik"><tspan x="0" y="0">Last Name</tspan></text>
    <rect id="Rectangle_104" data-name="Rectangle 104" width="450" height="60" rx="20" transform="translate(971 294)" fill="#fff"/>
    <text id="Password" transform="translate(443 613)" fill="#3a3335" font-size="30" font-family="Rubik-Regular, Rubik"><tspan x="0" y="0">Password</tspan></text>
    <text id="User_Name" data-name="User Name" transform="translate(443 494)" fill="#3a3335" font-size="30" font-family="Rubik-Regular, Rubik"><tspan x="0" y="0">User Name</tspan></text>
    <text id="Confirm_Password" data-name="Confirm Password" transform="translate(443 733)" fill="#3a3335" font-size="30" font-family="Rubik-Regular, Rubik"><tspan x="0" y="0">Confirm Password</tspan></text>
    <rect id="Rectangle_105" data-name="Rectangle 105" width="450" height="60" rx="20" transform="translate(437 507)" fill="#fff"/>
    <rect id="Rectangle_106" data-name="Rectangle 106" width="450" height="60" rx="20" transform="translate(437 627)" fill="#fff"/>
    <rect id="Rectangle_107" data-name="Rectangle 107" width="450" height="60" rx="20" transform="translate(437 747)" fill="#fff"/>
    <text id="Cheah" transform="translate(987 335)" fill="#3a3335" font-size="32" font-family="Rubik-Regular, Rubik"><tspan x="0" y="0">Cheah</tspan></text>
    <text id="_" data-name="********" transform="translate(453 675)" fill="#3a3335" font-size="32" font-family="Rubik-Regular, Rubik"><tspan x="0" y="0">********</tspan></text>
    <text id="achiaseed" transform="translate(453 547)" fill="#3a3335" font-size="32" font-family="Rubik-Regular, Rubik"><tspan x="0" y="0">achiaseed</tspan></text>
    <text id="_2" data-name="********" transform="translate(453 793)" fill="#3a3335" font-size="32" font-family="Rubik-Regular, Rubik"><tspan x="0" y="0">********</tspan></text>
    <g id="Group_107" data-name="Group 107" transform="translate(539)">
      <text id="Company_Name" data-name="Company Name" transform="translate(444 733)" fill="#3a3335" font-size="30" font-family="Rubik-Regular, Rubik"><tspan x="0" y="0">Company Name</tspan></text>
      <rect id="Rectangle_94" data-name="Rectangle 94" width="450" height="60" rx="20" transform="translate(438 747)" fill="#fff"/>
      <text id="Sysco" transform="translate(464 786)" fill="#3a3335" font-size="32" font-family="Rubik-Regular, Rubik"><tspan x="0" y="0">Sysco</tspan></text>
    </g>
    <text id="Ashley" transform="translate(453 335)" fill="#3a3335" font-size="32" font-family="Rubik-Regular, Rubik"><tspan x="0" y="0">Ashley</tspan></text>
    <g id="Group_106" data-name="Group 106" transform="translate(523 6)">
      <text id="I_am_a:" data-name="I am a:" transform="translate(437 416)" fill="#3a3335" font-size="30" font-family="Rubik-Regular, Rubik"><tspan x="0" y="0">I am a:</tspan></text>
      <g id="Group_105" data-name="Group 105">
        <text id="Truck_Driver" data-name="Truck Driver" transform="translate(468 467)" fill="#332e2e" font-size="30" font-family="Rubik-Regular, Rubik"><tspan x="0" y="0">Truck Driver</tspan></text>
        <g id="Group_112" data-name="Group 112">
          <rect id="Rectangle_101" data-name="Rectangle 101" width="196" height="196" rx="23" transform="translate(453 481)" fill="#fff"/>
          <g id="Group_69" data-name="Group 69" transform="translate(-529 44)">
            <rect id="Rectangle_24" data-name="Rectangle 24" width="44" height="122" transform="translate(1134 456)" fill="#c6ddf4"/>
            <path id="Path_31" data-name="Path 31" d="M160.422,0H0V27H160.422Z" transform="translate(1018 578)" fill="#3a3335"/>
            <path id="Path_32" data-name="Path 32" d="M94.725,0h-44a3,3,0,0,0-3,3L32.5,39.055s-15.474,1.808-30.98,5.111c-2.357,2.963-1.61,15.3-2.388,22.05.019,20.435-.383,46.381-.383,46.381,10.366,1.794,73.845-8.211,75.5-8.211,0,0,10.065-1.582,15.493-3.052s5.162-.831,7.983-1.314,0-97.02,0-97.02A3,3,0,0,0,94.725,0Z" transform="translate(1019.275 478)" fill="#96616b"/>
            <rect id="Rectangle_26" data-name="Rectangle 26" width="35" height="33" transform="translate(1073 485)" fill="#d6f6ff"/>
            <path id="Path_34" data-name="Path 34" d="M6,0H1.373L0,22.151V63.5H6Z" transform="translate(1018 525.5)" fill="#ded7d7"/>
            <path id="Path_36" data-name="Path 36" d="M33.926.943c-11.593,0-23.8,8.078-29.633,18.611-1.571,3.97-1.341,3.479-1.545,4.023,1.333.656,14.913-13.6,31.178-13.6,10.451,0,17.769,4.891,22.983,6.123.766.181,5.731-1.432,5.731-1.432a7.906,7.906,0,0,0-1.135-2.193C55.314,3.98,44.9.79,33.926.943Z" transform="translate(1037.365 566)" fill="#81565e"/>
            <path id="Path_1" data-name="Path 1" d="M29.9.943C18.649.943,7.034,8.782,1.079,19.615c-2.716,4.937-3.444,10.759-3.444,15.817,0,15.326,15.47-3.081,32.267-3.081s32.6,18.407,32.6,3.081c0-6.391-.927-13.42-5.521-19.91C50.97,7.027,40.55.79,29.9.943Z" transform="translate(1041.499 568)" fill="#393737"/>
            <circle id="Ellipse_3" data-name="Ellipse 3" cx="31" cy="31" r="31" transform="translate(1039.186 571)" fill="#050404"/>
            <ellipse id="Ellipse_4" data-name="Ellipse 4" cx="15" cy="15" rx="15" ry="15" transform="translate(1056.526 588.769)" fill="#a8a8a8"/>
            <line id="Line_2" data-name="Line 2" x1="10" transform="translate(1101.5 525.5)" fill="none" stroke="#eddea4" stroke-width="3"/>
            <path id="Path_38" data-name="Path 38" d="M0,8.488c1.091.553,2.179.852,2.695-.094C3.84,2.409,3.3,0,3.3,0" transform="matrix(-0.999, -0.035, 0.035, -0.999, 1069.997, 499.435)" fill="none" stroke="#eddea4" stroke-width="1"/>
            <path id="Path_39" data-name="Path 39" d="M0,0H0L3.821.5c2.967.676.042,6.949.042,6.949" transform="matrix(-0.999, 0.035, -0.035, -0.999, 1069.402, 519.272)" fill="none" stroke="#eddea4" stroke-width="1"/>
            <g id="Rectangle_28" data-name="Rectangle 28" transform="translate(1066.519 516.176) rotate(-172)" fill="#eddea4" stroke="#eddea4" stroke-width="1">
              <rect width="5" height="21" rx="2" stroke="none"/>
              <rect x="0.5" y="0.5" width="4" height="20" rx="1.5" fill="none"/>
            </g>
            <path id="Path_29" data-name="Path 29" d="M3072.194,582.873c-11.815,2.147-10.722-14.274-10.722-14.274" transform="translate(-1980 -71)" fill="none" stroke="#f7a072" stroke-linecap="round" stroke-width="5"/>
            <path id="Path_28" data-name="Path 28" d="M13.617-1.5c5.5,2.6,5.46,6.667,5.46,13.57-6.36,0-1.358,0-6.577,0-4.591,0-9.948.028-12.446,0C.054,5.166,8.12-4.1,13.617-1.5Z" transform="translate(1089 506)" fill="#36533f"/>
            <ellipse id="Ellipse_7" data-name="Ellipse 7" cx="8.5" cy="9" rx="8.5" ry="9" transform="translate(1089 489)" fill="#f7a072"/>
            <path id="Path_30" data-name="Path 30" d="M2.219,1.1A9.352,9.352,0,0,0,5.645,2.433,7.284,7.284,0,0,0,9,1.887V9a48.3,48.3,0,0,1-5.657.513A8.558,8.558,0,0,1,0,9Z" transform="translate(1085 506)" fill="#36533f"/>
            <path id="Path_40" data-name="Path 40" d="M13.858,0c7.653,0,7.653,6.837,0,6.837-5.439,0-1.289,0-11.4.414A13.081,13.081,0,0,0-.183,7.3C-.183,3.238,6.2,0,13.858,0Z" transform="translate(1088.881 486.349) rotate(11)" fill="#011638"/>
          </g>
        </g>
      </g>
      <g id="Group_104" data-name="Group 104">
        <path id="Path_96" data-name="Path 96" d="M23,0H182a23,23,0,0,1,23,23V182a23,23,0,0,1-23,23H23A23,23,0,0,1,0,182V23A23,23,0,0,1,23,0Z" transform="translate(687 476)" fill="#81565e"/>
        <text id="Vendor" transform="translate(738 467)" fill="#332e2e" font-size="30" font-family="Rubik-Regular, Rubik"><tspan x="0" y="0">Vendor</tspan></text>
        <g id="Group_103" data-name="Group 103">
          <rect id="Rectangle_102" data-name="Rectangle 102" width="196" height="196" rx="23" transform="translate(692 481)" fill="#fff"/>
          <path id="Path_98" data-name="Path 98" d="M6,0H70a6,6,0,0,1,6,6V47a6,6,0,0,1-6,6H6a6,6,0,0,1-6-6V6A6,6,0,0,1,6,0Z" transform="translate(721 530)" fill="#fedb9b"/>
          <rect id="Rectangle_109" data-name="Rectangle 109" width="20" height="26" rx="6" transform="translate(726 546)" fill="#fff"/>
          <g id="Group_68" data-name="Group 68" transform="translate(-549 27)">
            <path id="Path_69" data-name="Path 69" d="M3,0H7a3,3,0,0,1,3,3V29a3,3,0,0,1-3,3H3a3,3,0,0,1-3-3V3A3,3,0,0,1,3,0Z" transform="translate(1254 565)" fill="#031238"/>
            <rect id="Rectangle_66" data-name="Rectangle 66" width="14" height="5" transform="translate(1254 592)" fill="#231f2f"/>
            <path id="Path_52" data-name="Path 52" d="M3061.445,584.049c5.4.979,11.361,2.259,13.928-2.659,3.222-6.164,1.952-19.348,1.952-19.348" transform="translate(-1796.945 -56)" fill="none" stroke="#f7a272" stroke-linecap="round" stroke-width="5"/>
            <path id="Path_54" data-name="Path 54" d="M12.116,4.129S10.89,5.545,5.182,3.144,0,2.07,0,2.07v8.767a73.17,73.17,0,0,0,7.74.633A21.156,21.156,0,0,0,14.595,9.85l-.125-.294L12.927,5.933Z" transform="translate(1260.686 521.901)" fill="#041448"/>
            <path id="Path_53" data-name="Path 53" d="M4.361-1.5C-2.15-.431-1.173,23.592-1,37.9c.075,6.343.694,12.841,1.623,15.216,1.957,2.518,5.868,5.369,8.97,3.855,1.646-18.275.134-.393,1.416-19.07,3.016-11.734,2.133-25.319,2.133-25.319S16.113-3.43,4.361-1.5Z" transform="translate(1254 522)" fill="#021438"/>
            <ellipse id="Ellipse_9" data-name="Ellipse 9" cx="10" cy="12" rx="10" ry="12" transform="translate(1252 498)" fill="#f7a172"/>
            <path id="Path_67" data-name="Path 67" d="M3054.727,583.593c10.655,2,16.388-14.994,16.388-14.994" transform="matrix(-0.017, 1, -1, -0.017, 1901.106, -2511.451)" fill="none" stroke="#f7a272" stroke-linecap="round" stroke-width="5"/>
            <path id="Path_68" data-name="Path 68" d="M10.376,2.918a32.59,32.59,0,0,0-5.785-.175,14.152,14.152,0,0,0-4.9,1.823L0,10.836a73.17,73.17,0,0,0,7.74.633,6.445,6.445,0,0,0,4.634-1.716Z" transform="matrix(0.174, 0.985, -0.985, 0.174, 1268.963, 526.03)" fill="#031748"/>
          </g>
          <rect id="Rectangle_110" data-name="Rectangle 110" width="20" height="26" rx="6" transform="translate(748 546)" fill="#fff"/>
          <rect id="Rectangle_111" data-name="Rectangle 111" width="20" height="26" rx="6" transform="translate(770 546)" fill="#fff"/>
          <text id="_3" data-name="$" transform="translate(731 567)" fill="#0e1d63" font-size="23" font-family="AvenirNextCondensed-Regular, Avenir Next Condensed"><tspan x="0" y="0">$</tspan></text>
          <text id="_4" data-name="$" transform="translate(753 567)" fill="#0e1d63" font-size="23" font-family="AvenirNextCondensed-Regular, Avenir Next Condensed"><tspan x="0" y="0">$</tspan></text>
          <text id="_5" data-name="$" transform="translate(775 567)" fill="#0e1d63" font-size="23" font-family="AvenirNextCondensed-Regular, Avenir Next Condensed"><tspan x="0" y="0">$</tspan></text>
          <g id="Group_77" data-name="Group 77" transform="translate(446 256)">
            <g id="Group_34" data-name="Group 34" transform="translate(-947 -221)">
              <line id="Line_6" data-name="Line 6" y2="9" transform="translate(1310.873 507.654)" fill="none" stroke="#707070" stroke-width="4"/>
              <line id="Line_7" data-name="Line 7" y2="9" transform="translate(1352.468 507.654)" fill="none" stroke="#707070" stroke-width="4"/>
            </g>
            <rect id="Rectangle_52" data-name="Rectangle 52" width="83" height="106" rx="12" transform="translate(344 295)" fill="#a20021"/>
            <path id="Path_57" data-name="Path 57" d="M1261.89,1474.691c-12.663-.338,4.207,45.515-12.537,56.4s-13.94-16.5-10.15-26.847c2.156-6.575,17.985-30.226,18.051-40.207" transform="translate(-917.853 -1136.487)" fill="none" stroke="#707070" stroke-width="3"/>
            <path id="Path_97" data-name="Path 97" d="M9,0H51a9,9,0,0,1,9,9V20a9,9,0,0,1-9,9H9a9,9,0,0,1-9-9V9A9,9,0,0,1,9,0Z" transform="translate(355 258)" fill="#bf3d3d"/>
            <rect id="Rectangle_55" data-name="Rectangle 55" width="50" height="32" rx="12" transform="translate(360 307)" fill="#fff"/>
            <text id="GAS" transform="translate(362 283)" fill="#fff" stroke="#707070" stroke-width="0.2" font-size="30" font-family="AvenirNextCondensed-Bold, Avenir Next Condensed" font-weight="700"><tspan x="0" y="0">GAS</tspan></text>
            <g id="Group_35" data-name="Group 35" transform="translate(-936.206 -223.224)">
              <path id="Path_46" data-name="Path 46" d="M0,7,2.266,2.921,7.54-3.355" transform="translate(1271.38 538.794)" fill="none" stroke="#707070" stroke-linejoin="round" stroke-width="1.5"/>
              <path id="Path_47" data-name="Path 47" d="M-2.833-3.515c2-3.238,4.6-5.779,4.484-3.249-.052,2.4.507,4.11,0,4.806C-.134.49,2.689,3.887,2.689,5.26c0,3.238-1.038,3.785-1.038,3.785s-3.363,2.269-4.484-.871S-4.833-.278-2.833-3.515Z" transform="translate(1274.465 546.47)" fill="#5a5858"/>
              <path id="Path_48" data-name="Path 48" d="M1270.772,1450.376a9.444,9.444,0,0,1,4.519,2.3c.776.831.734,4.66.867,5.946.155,1.428-1.686,1.629-4.181,2.115" transform="translate(2.728 -907.699)" fill="none" stroke="#5a5858" stroke-linecap="round" stroke-width="2"/>
            </g>
            <line id="Line_9" data-name="Line 9" x2="12" transform="translate(332.711 332.494)" fill="none" stroke="#504c4c" stroke-width="3"/>
          </g>
        </g>
      </g>
    </g>
    <rect id="Rectangle_143" data-name="Rectangle 143" width="450" height="60" rx="17" transform="translate(437 399)" fill="#fff"/>
    <text id="Email" transform="translate(443 390)" fill="#3a3335" font-size="30" font-family="Rubik-Regular, Rubik"><tspan x="0" y="0">Email</tspan></text>
    <text id="ashley.m.cheah_gmail.com" data-name="ashley.m.cheah@gmail.com" transform="translate(448 441)" fill="#3a3335" font-size="32" font-family="Rubik-Regular, Rubik"><tspan x="0" y="0">ashley.m.cheah@gmail.com</tspan></text>
  </g>
</svg>
