<svg xmlns="http://www.w3.org/2000/svg" width="1052.972" height="1246.5" viewBox="0 0 1052.972 1246.5">
  <defs>
    <style>
      .cls-1 {
        fill: #725e6b;
      }

      .cls-2, .cls-4 {
        fill: #52414c;
      }

      .cls-15, .cls-21, .cls-26, .cls-28, .cls-3, .cls-34, .cls-43, .cls-44, .cls-46, .cls-47, .cls-49, .cls-50, .cls-55, .cls-62, .cls-68, .cls-69, .cls-71, .cls-72, .cls-75, .cls-77, .cls-79, .cls-81, .cls-83, .cls-89, .cls-93 {
        fill: none;
      }

      .cls-3, .cls-4 {
        stroke: #52414c;
      }

      .cls-21, .cls-3, .cls-49, .cls-50, .cls-68, .cls-72, .cls-89 {
        stroke-linecap: round;
      }

      .cls-3 {
        stroke-width: 70px;
      }

      .cls-29, .cls-33, .cls-37, .cls-39, .cls-4, .cls-46, .cls-47, .cls-51, .cls-52, .cls-54, .cls-55, .cls-60, .cls-61, .cls-68, .cls-73, .cls-79, .cls-89 {
        stroke-linejoin: bevel;
      }

      .cls-28, .cls-4 {
        stroke-width: 10px;
      }

      .cls-5 {
        fill: #9f8e87;
      }

      .cls-6 {
        fill: #916451;
      }

      .cls-7 {
        fill: #efa458;
      }

      .cls-8 {
        fill: #efe68f;
      }

      .cls-9 {
        fill: #efbc8f;
      }

      .cls-10 {
        fill: #f7f8d2;
      }

      .cls-11 {
        fill: #564138;
      }

      .cls-12 {
        fill: #e8a594;
      }

      .cls-13 {
        fill: #f7af9d;
      }

      .cls-14 {
        fill: #63cf73;
      }

      .cls-15, .cls-55 {
        stroke: #707070;
      }

      .cls-16 {
        fill: #c5efcb;
      }

      .cls-17 {
        fill: #372b2b;
      }

      .cls-18 {
        fill: #eed17c;
      }

      .cls-19 {
        fill: #f7e3af;
      }

      .cls-20 {
        fill: #583b08;
      }

      .cls-21, .cls-49 {
        stroke: #ffd771;
      }

      .cls-21, .cls-26, .cls-37 {
        stroke-width: 5px;
      }

      .cls-22 {
        fill: #ae3603;
      }

      .cls-23 {
        fill: #f2aa4d;
      }

      .cls-24 {
        fill: #cf4949;
      }

      .cls-25 {
        fill: #116508;
      }

      .cls-26 {
        stroke: #430808;
      }

      .cls-27 {
        fill: #9e1313;
      }

      .cls-28 {
        stroke: #683800;
      }

      .cls-29 {
        fill: #b7e636;
      }

      .cls-30 {
        fill: #d1ef7f;
      }

      .cls-31 {
        fill: #fbfad3;
      }

      .cls-32 {
        fill: #343330;
      }

      .cls-33 {
        fill: #facc75;
      }

      .cls-34 {
        stroke: #f7a203;
      }

      .cls-34, .cls-72 {
        stroke-width: 4px;
      }

      .cls-35 {
        fill: #fea600;
      }

      .cls-36 {
        fill: #ff7272;
      }

      .cls-37, .cls-51, .cls-60, .cls-61, .cls-88 {
        fill: #fff;
      }

      .cls-37 {
        stroke: #f7df03;
      }

      .cls-38 {
        fill: #fdf564;
      }

      .cls-39 {
        fill: #e8d36c;
      }

      .cls-40 {
        fill: #f23f3f;
      }

      .cls-41 {
        fill: #e49b4c;
      }

      .cls-42 {
        fill: #faa957;
      }

      .cls-43, .cls-44 {
        stroke: #d19226;
      }

      .cls-44, .cls-49, .cls-50 {
        stroke-width: 3px;
      }

      .cls-45 {
        fill: #efd344;
      }

      .cls-46 {
        stroke: #aba179;
      }

      .cls-48 {
        fill: #d67d23;
      }

      .cls-50 {
        stroke: #4e2c05;
      }

      .cls-51 {
        stroke: #9dbb9e;
      }

      .cls-52, .cls-53, .cls-96 {
        fill: #deffdf;
      }

      .cls-54, .cls-97 {
        fill: #c6dcc6;
      }

      .cls-56 {
        fill: #fbd3d3;
      }

      .cls-57 {
        fill: #e5c2c2;
      }

      .cls-58 {
        fill: #ffedc2;
      }

      .cls-59 {
        fill: #efdeb6;
      }

      .cls-60 {
        stroke: #c59f9f;
      }

      .cls-61 {
        stroke: #b8ab8c;
      }

      .cls-62 {
        stroke: #1b9720;
      }

      .cls-63 {
        fill: #ef7e7e;
      }

      .cls-64 {
        fill: #f54b4b;
      }

      .cls-65 {
        fill: #ffb8b8;
      }

      .cls-66 {
        fill: #ff7070;
      }

      .cls-67 {
        fill: #fffab5;
      }

      .cls-68 {
        stroke: #dfd792;
      }

      .cls-69 {
        stroke: #5b0c0c;
      }

      .cls-70 {
        fill: #89f889;
      }

      .cls-71 {
        stroke: #79d979;
      }

      .cls-71, .cls-75, .cls-77, .cls-81 {
        stroke-width: 0.5px;
      }

      .cls-72 {
        stroke: #580a0a;
      }

      .cls-73 {
        fill: #4e3004;
      }

      .cls-74 {
        fill: #a1cdff;
      }

      .cls-75 {
        stroke: #84acd9;
      }

      .cls-76 {
        fill: #c0a1ff;
      }

      .cls-77 {
        stroke: #9e83d4;
      }

      .cls-78 {
        fill: #fffcd1;
      }

      .cls-79 {
        stroke: #927502;
      }

      .cls-80 {
        fill: #f6b471;
      }

      .cls-81 {
        stroke: #d29c64;
      }

      .cls-82 {
        fill: #4d60b5;
      }

      .cls-83 {
        stroke: #1b3b6f;
      }

      .cls-84 {
        fill: #5769bc;
      }

      .cls-85 {
        fill: #371b6f;
      }

      .cls-86 {
        fill: #5c70c9;
      }

      .cls-87 {
        fill: #f3eebb;
      }

      .cls-89 {
        stroke: #725e6b;
        stroke-width: 7px;
      }

      .cls-90, .cls-91, .cls-92, .cls-94, .cls-95, .cls-96, .cls-97, .cls-98 {
        stroke: none;
      }

      .cls-91 {
        fill: #707070;
      }

      .cls-92 {
        fill: #f7a203;
      }

      .cls-94 {
        fill: #be720e;
      }

      .cls-95 {
        fill: #aba179;
      }

      .cls-98 {
        fill: #5b3701;
      }
    </style>
  </defs>
  <g id="Group_140" data-name="Group 140" transform="translate(-494 143.5)">
    <path id="Path_262" data-name="Path 262" class="cls-1" d="M275,0C426.878,0,551.408,15.233,551.408,27.935c0,1.194-2.859,3.412-5.206,4.732C526,44.057,412.6,46,275,46,123.122,46,3.4,40.638,3.4,27.935S123.122,0,275,0Z" transform="translate(742 1051)"/>
    <ellipse id="Ellipse_190" data-name="Ellipse 190" class="cls-2" cx="275" cy="22" rx="275" ry="22" transform="translate(742 1059)"/>
    <g id="Group_139" data-name="Group 139" transform="translate(57 -225)">
      <path id="Path_261" data-name="Path 261" class="cls-3" d="M0,0V663.571" transform="translate(959.5 616.5)"/>
      <path id="Path_260" data-name="Path 260" class="cls-4" d="M-3251.714-1382.427c1.766,1.766-77.369-94.625-270.774-126.647a741.767,741.767,0,0,0-159.716-23.655c-230.729-8.315,899.787-114.3,834.272-72.989-34.769,5.806-95.266,41.991-232.458,84.835C-3198.289-1470.857-3252.845-1383.557-3251.714-1382.427Z" transform="matrix(0.996, 0.087, -0.087, 0.996, 4078.767, 2397.97)"/>
      <g id="Group_137" data-name="Group 137" transform="translate(277 -182)">
        <g id="Group_108" data-name="Group 108" transform="translate(24 -231)">
          <path id="Path_259" data-name="Path 259" class="cls-5" d="M526.486,76.669c290.77,0,526.486-54.651,526.486-24.118,0,9.251-6.539,103.681-40.7,127.2C885.848,268.94,252.14,261.8,44.711,177.787,11.3,164.121,0,61.161,0,52.551,0,22.018,235.716,76.669,526.486,76.669Z" transform="translate(136 775)"/>
          <path id="Path_73" data-name="Path 73" class="cls-6" d="M174-68.445c96.1,0,174,131.194,174,217.109s-77.9,92.479-174,92.479S0,234.579,0,148.664,77.9-68.445,174-68.445Z" transform="translate(292 574.702)"/>
          <path id="Path_77" data-name="Path 77" class="cls-7" d="M88.5-23.369c38.236,0,84.544,38.828,92.4,57.169.708,1.651-12.574-2.227-12.677-1.561-.817,5.581-14.26,3.521-25.322,7.052-13.515,4.314-3.477,18.436-13.538,22.531-.954.392-3.518-.921-6.347-2.368a11.975,11.975,0,0,1-1.8-.947c-.3-.215-.609-.663-1.232-.663-2.963-2.2-18.347-16-24.921-12.892-7.038,3.331-14.024,16.889-22.511,16.18-8.929-.746-7.221-20.149-16.531-22.511-4-1.016-10.351,1.616-17.162,4.819-7.34,3.452-15.218,7.627-20.121,7.491A23.3,23.3,0,0,1,7.066,47.671C5.9,46.977,4.73,44.09,3.019,43.439-4.506,40.57-21.719,46.2-21.4,45.054a20.951,20.951,0,0,1,2.92-5.783C-5,18.922,51.938-23.369,88.5-23.369Z" transform="translate(380 518)"/>
          <path id="Path_62" data-name="Path 62" class="cls-8" d="M171.147-52.785c96.1,0,176.853,108.1,176.853,187.407s-72.562,82.342-168.66,82.342S0,213.927,0,134.622C0,65.351,57.261-25.892,136.124-47.957c.968-.271,2.01-.549,3.056-.816A130.593,130.593,0,0,1,166.349-52.7C167.75-52.751,169.445-52.785,171.147-52.785Z" transform="translate(609 598.24)"/>
          <path id="Path_212" data-name="Path 212" class="cls-9" d="M123.732,153.368C85.5,153.368,7.861,95.672.01,77.331-.7,75.68,38.372,110.625,37.733,101.368c.817-5.581-27.911-22.426-16.126-37.2,14.113,23.5,59.257,16.846,64.778,14.233C93.424,75.075,106.885-.7,115.372,0c8.929.746,18.138,91.34,27.448,93.7,18.456,5.206,34.548-56.081,41.36-59.285,7.34-3.452-1.029,28.535,3.874,28.671,4.695.13,1.89,17.378,5.112,19.307,1.161.694,2.335,3.581,4.046,4.232,5.17,1.971,8.879,7.221,23.693,7.075,6.291-.064,18.2-12.622,28.108-7.075-1.052,4.693-20.519,21.526-32.985,29.348C188.446,133.289,142.259,153.368,123.732,153.368Z" transform="translate(905.874 691.232) rotate(-179)"/>
          <path id="Path_63" data-name="Path 63" class="cls-10" d="M171.827-52.785c94.7,0,174.288,108.1,174.288,187.407s-71.51,82.342-166.214,82.342-199.962-3.037-199.962-82.342c0-69.271,79.652-160.514,157.372-182.579.954-.271,1.981-.549,3.012-.816A126.96,126.96,0,0,1,167.1-52.7C168.479-52.751,170.149-52.785,171.827-52.785Z" transform="translate(583.157 598.24)"/>
          <path id="Path_30" data-name="Path 30" class="cls-11" d="M174-68.445c96.1,0,174,131.194,174,217.109s-77.9,92.479-174,92.479S0,234.579,0,148.664,77.9-68.445,174-68.445Z" transform="translate(314 575.702)"/>
          <path id="Path_72" data-name="Path 72" class="cls-12" d="M174,0c96.1,0,174,77.455,174,173,0,10.713-108.463,3.894-179.959,3.894-44.828,0-133.575.125-168.041-3.894-12.967-1.511,0,9.41,0,0C0,77.455,77.9,0,174,0Z" transform="translate(814 671)"/>
          <path id="Path_28" data-name="Path 28" class="cls-13" d="M174,0c96.1,0,174.163,77.455,174.163,173,0,4.647-116.25,11.153-174.163,11.153C128.24,184.153,0,173,0,173H0C0,77.455,77.9,0,174,0Z" transform="translate(795 675)"/>
          <g id="Group_47" data-name="Group 47" transform="translate(21 51)">
            <path id="Path_29" data-name="Path 29" class="cls-14" d="M174,0c95.712,0,173.375,76.835,174,172.142,0,.092,0,6.576,0,6.959,0,3.637-9.331,3.953-15.134,5.337-29.326,7-92.941-5.337-158.864-5.337-62.751,0-136.658,2.793-167.508,0C-9.533,177.651,0,206.155,0,173,0,77.455,77.9,0,174,0Z" transform="translate(464 622)"/>
          </g>
          <path id="Path_37" data-name="Path 37" class="cls-15" d="M26,0" transform="translate(413.5 494.5)"/>
          <g id="Group_34" data-name="Group 34" transform="translate(4 52)">
            <path id="Path_29-2" data-name="Path 29" class="cls-16" d="M174,0c96.1,0,173.309,81.23,173.309,176.776,0,.626,0,5.584,0,7.523-12.717,6.52-111.868,7.3-173.309,7.3C111.249,191.6,0,206.155,0,173,0,77.455,77.9,0,174,0Z" transform="translate(464 622)"/>
          </g>
          <rect id="Rectangle_82" data-name="Rectangle 82" class="cls-17" width="20" height="3" transform="matrix(0.848, -0.53, 0.53, 0.848, 491.328, 782.655)"/>
          <path id="Path_75" data-name="Path 75" class="cls-18" d="M179.3,0c99.024,0,179.3,57.314,179.3,128.014,0,25.735,2.719,25.6-15.805,26.222-31.764,1.072-100.514,2.316-163.494,2.316-39.51,0-178.527,12.9-178.527-3.712C.772,82.14,80.275,0,179.3,0Z" transform="translate(151.402 708)"/>
          <path id="Path_256" data-name="Path 256" class="cls-19" d="M179.3,0c99.024,0,179.3,53.662,179.3,119.858,0,24.1-.047,31.062-18.571,31.647-31.764,1-97.748,0-160.728,0-39.51,0-180.482,12-180.482-3.558C-1.183,81.751,80.275,0,179.3,0Z" transform="translate(166.402 716.051)"/>
          <path id="Path_257" data-name="Path 257" class="cls-20" d="M2.5,0A2.5,2.5,0,0,1,5,2.5v95a2.5,2.5,0,0,1-5,0V2.5A2.5,2.5,0,0,1,2.5,0Z" transform="matrix(0.966, 0.259, -0.259, 0.966, 439.657, 669.613)"/>
          <line id="Line_119" data-name="Line 119" class="cls-21" x1="4" y2="14" transform="translate(437.5 672.5)"/>
          <g id="Group_48" data-name="Group 48" transform="translate(-44.792 31.47) rotate(-4)">
            <path id="Path_61" data-name="Path 61" class="cls-22" d="M51.257,2.111C75.808-.059,94.1,17.041,92.1,40.306c-.62,7.235-29.644-1.782-46.56-.286C27.965,41.574,10.464,49.331,3.2,48.166c-1.977-.312-1.993-.529-1.859-2.1C3.329,22.8,26.706,4.281,51.257,2.111Z" transform="matrix(0.946, 0.326, -0.326, 0.946, 391.335, 662.034)"/>
            <path id="Path_59" data-name="Path 59" class="cls-23" d="M51.39,2.1C76.1.133,94.58,15.086,92.669,35.5c-.594,6.349-29.852-1.485-46.876-.128-17.691,1.41-30.856,5.879-39.3,6.155-1.992-.269-3.769,0-3.64-1.382C4.765,19.731,26.682,4.07,51.39,2.1Z" transform="matrix(0.946, 0.326, -0.326, 0.946, 387.538, 667.876)"/>
            <path id="Path_60" data-name="Path 60" class="cls-24" d="M25.909-.572c17.247,0,34.3,5.822,34.3,14.08a4.4,4.4,0,0,1-3.164,4.073c-2.819-.431-7.652-1.774-13.931-3.342-5.125-1.28-11.493-2.82-17.938-2.82-5.965,0-11.1.107-15.442.128-4.051.02-6.941.512-8.684.016C.553,11.44,6.776-.572,25.909-.572Z" transform="translate(395.4 700.172) rotate(11)"/>
          </g>
          <g id="Group_50" data-name="Group 50" transform="translate(50 1)">
            <path id="Path_67" data-name="Path 67" class="cls-25" d="M63.257,3670.317c19.305-11.109,28.389,19.777,28.389,19.777Z" transform="translate(1613.544 -2730.351) rotate(23)"/>
            <path id="Path_64" data-name="Path 64" class="cls-26" d="M8.929,3673.523c-51.724-14.5-55.01-46.511-55.01-46.511" transform="matrix(0.559, 0.829, -0.829, 0.559, 3271.029, -1318.082)"/>
            <path id="Path_68" data-name="Path 68" class="cls-25" d="M63.257,3670.233c43.234-9.3,51.046,32.865,51.046,32.865Z" transform="matrix(0.961, -0.276, 0.276, 0.961, -845.76, -2839.708)"/>
            <path id="Path_57" data-name="Path 57" class="cls-27" d="M21.2,10.3c1.285,1.17.925.806,2.812,1.389,1.62-.744,5.032-3.709,8.209-5.557a11.618,11.618,0,0,1,7.335-1.191c2.3.506,6.811,5.026,6.811,11.71,0,6.121-2.66,13.091-6.811,18.26C35.5,39.984,27.525,42.961,21.2,42.961,9.492,42.961,0,32.173,0,18.866S11.613,1.569,21.2,10.3Z" transform="translate(203.552 730.921) rotate(-9)"/>
            <path id="Path_69" data-name="Path 69" class="cls-25" d="M119.285,3661.393c-32.826-5.169-37.6,32.452-37.6,32.452Z" transform="translate(1567.882 -2743.934) rotate(23)"/>
            <path id="Path_70" data-name="Path 70" class="cls-25" d="M108.025,3670.395c-37.917-10.426-44.769,36.833-44.769,36.833Z" transform="matrix(0.454, 0.891, -0.891, 0.454, 3467.577, -1085.151)"/>
          </g>
          <rect id="Rectangle_80" data-name="Rectangle 80" class="cls-17" width="33" height="4" transform="matrix(0.848, -0.53, 0.53, 0.848, 609.328, 738.655)"/>
          <rect id="Rectangle_81" data-name="Rectangle 81" class="cls-17" width="33" height="4" transform="matrix(0.799, 0.602, -0.602, 0.799, 614.972, 720.105)"/>
          <rect id="Rectangle_83" data-name="Rectangle 83" class="cls-17" width="20" height="3" transform="translate(543.858 733.296) rotate(19)"/>
          <rect id="Rectangle_87" data-name="Rectangle 87" class="cls-17" width="20" height="3" transform="matrix(0.946, -0.326, 0.326, 0.946, 572.829, 775.909)"/>
          <g id="Group_64" data-name="Group 64" transform="translate(-72.819 14)">
            <g id="Group_53" data-name="Group 53" transform="translate(703 653)">
              <path id="Path_125" data-name="Path 125" class="cls-28" d="M0,0V23" transform="translate(31.858 31.5)"/>
              <g id="Group_52" data-name="Group 52" transform="translate(1 7)">
                <g id="Polygon_14" data-name="Polygon 14" class="cls-29">
                  <path class="cls-90" d="M 47.33916473388672 38.75 L 14.47973442077637 38.75 C 13.13972473144531 38.75 11.8598747253418 38.37419891357422 10.778564453125 37.66323852539063 C 9.763504028320313 36.99584197998047 8.941914558410645 36.05342864990234 8.402624130249023 34.93788909912109 C 7.863334178924561 33.82234191894531 7.635064125061035 32.59310150146484 7.742504119873047 31.3830509185791 C 7.856954574584961 30.09400939941406 8.35738468170166 28.85757064819336 9.189703941345215 27.8073902130127 L 25.61942481994629 7.077190399169922 C 26.90751457214355 5.451940059661865 28.83565521240234 4.519810199737549 30.90945434570313 4.519810199737549 C 32.98325347900391 4.519810199737549 34.91139602661133 5.451940059661865 36.19948577880859 7.077190399169922 L 52.62919616699219 27.80738067626953 C 53.46152496337891 28.8575611114502 53.96195602416992 30.09400939941406 54.0764045715332 31.3830394744873 C 54.18384552001953 32.59310150146484 53.95558547973633 33.82234191894531 53.41629409790039 34.93788146972656 C 52.87700271606445 36.05342102050781 52.05541610717773 36.99584197998047 51.04035568237305 37.66323852539063 C 49.95903396606445 38.37419891357422 48.67918395996094 38.75 47.33916473388672 38.75 Z"/>
                  <path class="cls-91" d="M 30.90945434570313 4.769809722900391 C 28.9124641418457 4.769809722900391 27.05573272705078 5.66741943359375 25.81534576416016 7.232471466064453 L 9.385623931884766 27.96266937255859 C 8.583713531494141 28.97449111938477 8.101634979248047 30.16487884521484 7.99151611328125 31.40515899658203 C 7.888072967529297 32.57022094726563 8.108062744140625 33.75418853759766 8.627693176269531 34.82907104492188 C 9.147323608398438 35.90394973754883 9.938575744628906 36.81175994873047 10.9159049987793 37.45434951782227 C 11.95631408691406 38.13842010498047 13.18867492675781 38.5 14.47973251342773 38.5 L 47.33916473388672 38.5 C 48.63022613525391 38.5 49.86258316040039 38.13842010498047 50.90299224853516 37.45434951782227 C 51.88032531738281 36.81175994873047 52.67156219482422 35.90396118164063 53.19120407104492 34.82907104492188 C 53.71083450317383 33.75418853759766 53.93082427978516 32.57022094726563 53.82738494873047 31.40515899658203 C 53.71726226806641 30.16487884521484 53.23518371582031 28.97447967529297 52.43327331542969 27.96265983581543 L 36.00356292724609 7.232471466064453 C 34.76317596435547 5.66741943359375 32.90644454956055 4.769809722900391 30.90945434570313 4.769809722900391 M 30.90945434570313 4.269813537597656 C 32.9517936706543 4.269813537597656 34.99413299560547 5.153846740722656 36.39541625976563 6.921909332275391 L 52.82512664794922 27.652099609375 C 56.46165466308594 32.2404899597168 53.19387435913086 39 47.33916473388672 39 L 14.47973251342773 39 C 8.625022888183594 39 5.357242584228516 32.2404899597168 8.9937744140625 27.6521110534668 L 25.42349624633789 6.921909332275391 C 26.82477569580078 5.153846740722656 28.86711502075195 4.269813537597656 30.90945434570313 4.269813537597656 Z"/>
                </g>
              </g>
              <g id="Group_59" data-name="Group 59" transform="translate(13.107 25.369)">
                <path id="Path_117" data-name="Path 117" class="cls-30" d="M.454,0C.706,0,.909,8.275.909,10.668S.706,15,.454,15,0,13.06,0,10.668.2,0,.454,0Z" transform="matrix(0.883, -0.469, 0.469, 0.883, 27.472, 2.129)"/>
                <path id="Path_119" data-name="Path 119" class="cls-30" d="M.454,0C.706,0,.909,8.275.909,10.668S.706,15,.454,15,0,13.06,0,10.668.2,0,.454,0Z" transform="translate(18.545 2.037)"/>
                <path id="Path_122" data-name="Path 122" class="cls-30" d="M.454,0C.706,0,.909,8.275.909,10.668S.706,15,.454,15,0,13.06,0,10.668.2,0,.454,0Z" transform="translate(8.388 0.065) rotate(34)"/>
                <path id="Path_118" data-name="Path 118" class="cls-30" d="M.454,0C.706,0,.909,8.275.909,10.668S.706,15,.454,15,0,13.06,0,10.668.2,0,.454,0Z" transform="translate(22.633 2.23) rotate(-10)"/>
                <path id="Path_120" data-name="Path 120" class="cls-30" d="M.454,0C.706,0,.909,8.275.909,10.668S.706,15,.454,15,0,13.06,0,10.668.2,0,.454,0Z" transform="translate(15.05 2.175) rotate(15)"/>
                <path id="Path_121" data-name="Path 121" class="cls-30" d="M.454,0C.706,0,.909,8.275.909,10.668S.706,15,.454,15,0,13.06,0,10.668.2,0,.454,0Z" transform="matrix(0.927, 0.375, -0.375, 0.927, 9.959, 1.413)"/>
                <path id="Path_123" data-name="Path 123" class="cls-30" d="M.454,0C.706,0,.909,8.275.909,10.668S.706,15,.454,15,0,13.06,0,10.668.2,0,.454,0Z" transform="matrix(0.839, -0.545, 0.545, 0.839, 28.929, 0.495)"/>
              </g>
              <g id="Group_60" data-name="Group 60" transform="translate(0)">
                <g id="Polygon_13" data-name="Polygon 13" class="cls-29" transform="translate(5)">
                  <path class="cls-90" d="M 41.68449401855469 31.39599227905273 L 13.13441467285156 31.39599227905273 C 10.85534477233887 31.39599227905273 8.851274490356445 30.10821342468262 7.904294490814209 28.03519248962402 C 6.95730447769165 25.96218299865723 7.295944213867188 23.60421371459961 8.788043975830078 21.88148307800293 L 23.06307411193848 5.400023460388184 C 24.15596389770508 4.138223171234131 25.74015426635742 3.414543151855469 27.40945434570313 3.414543151855469 C 29.07875442504883 3.414543151855469 30.66294479370117 4.138223171234131 31.75582504272461 5.400023460388184 L 46.03087615966797 21.88148307800293 C 47.52297592163086 23.60421371459961 47.86160278320313 25.96218299865723 46.91461563110352 28.03519248962402 C 45.96763610839844 30.10821342468262 43.96356582641602 31.39599227905273 41.68449401855469 31.39599227905273 Z"/>
                  <path class="cls-91" d="M 27.40945434570313 3.664533615112305 C 25.81273460388184 3.664533615112305 24.29741477966309 4.356752395629883 23.25205421447754 5.563703536987305 L 8.977024078369141 22.04516220092773 C 7.549793243408203 23.6929931640625 7.225875854492188 25.94843292236328 8.131694793701172 27.93131256103516 C 9.037506103515625 29.91420364379883 10.95443344116211 31.14599227905273 13.13441467285156 31.14599227905273 L 41.68449401855469 31.14599227905273 C 43.86447525024414 31.14599227905273 45.78140258789063 29.91420364379883 46.68722534179688 27.93131256103516 C 47.59303283691406 25.94843292236328 47.26912307739258 23.6929931640625 45.84189605712891 22.04516220092773 L 31.56684494018555 5.563703536987305 C 30.521484375 4.356752395629883 29.00616455078125 3.664533615112305 27.40945434570313 3.664533615112305 M 27.40945243835449 3.16453742980957 C 29.0789737701416 3.16453742980957 30.74849510192871 3.855142593383789 31.94479370117188 5.236352920532227 L 46.21984481811523 21.71781349182129 C 49.58542633056641 25.60360336303711 46.82516479492188 31.64599227905273 41.68449401855469 31.64599227905273 L 13.13441467285156 31.64599227905273 C 7.993743896484375 31.64599227905273 5.233486175537109 25.60360336303711 8.599075317382813 21.71781349182129 L 22.87410354614258 5.236352920532227 C 24.07040977478027 3.855142593383789 25.73993110656738 3.16453742980957 27.40945243835449 3.16453742980957 Z"/>
                </g>
                <g id="Group_57" data-name="Group 57" transform="translate(11.114 9.783)">
                  <path id="Path_117-2" data-name="Path 117" class="cls-30" d="M.454,0C.706,0,.909,8.275.909,10.668S.706,15,.454,15,0,13.06,0,10.668.2,0,.454,0Z" transform="matrix(0.883, -0.469, 0.469, 0.883, 25.472, 2.129)"/>
                  <path id="Path_119-2" data-name="Path 119" class="cls-30" d="M.454,0C.706,0,.909,8.275.909,10.668S.706,15,.454,15,0,13.06,0,10.668.2,0,.454,0Z" transform="translate(17.545 2.037)"/>
                  <path id="Path_118-2" data-name="Path 118" class="cls-30" d="M.454,0C.706,0,.909,8.275.909,10.668S.706,15,.454,15,0,13.06,0,10.668.2,0,.454,0Z" transform="translate(20.633 2.23) rotate(-10)"/>
                  <path id="Path_120-2" data-name="Path 120" class="cls-30" d="M.454,0C.706,0,.909,8.275.909,10.668S.706,15,.454,15,0,13.06,0,10.668.2,0,.454,0Z" transform="translate(14.05 2.175) rotate(15)"/>
                  <path id="Path_121-2" data-name="Path 121" class="cls-30" d="M.454,0C.706,0,.909,8.275.909,10.668S.706,15,.454,15,0,13.06,0,10.668.2,0,.454,0Z" transform="translate(13.388 2.065) rotate(34)"/>
                  <path id="Path_123-2" data-name="Path 123" class="cls-30" d="M.454,0C.706,0,.909,8.275.909,10.668S.706,15,.454,15,0,13.06,0,10.668.2,0,.454,0Z" transform="matrix(0.839, -0.545, 0.545, 0.839, 27.929, 0.495)"/>
                  <path id="Path_124" data-name="Path 124" class="cls-30" d="M.454,0C.706,0,.909,8.275.909,10.668S.706,15,.454,15,0,13.06,0,10.668.2,0,.454,0Z" transform="translate(23.633 2.545) rotate(-18)"/>
                </g>
              </g>
            </g>
            <g id="Group_58" data-name="Group 58" transform="translate(712 638)">
              <g id="Polygon_15" data-name="Polygon 15" class="cls-29">
                <path class="cls-90" d="M 35.20630264282227 32.75000381469727 L 11.61260414123535 32.75000381469727 C 9.420234680175781 32.75000381469727 7.510544300079346 31.5871753692627 6.504184246063232 29.63942527770996 C 5.497824192047119 27.69167518615723 5.654304504394531 25.46128463745117 6.922784328460693 23.67314529418945 L 18.71962356567383 7.043284893035889 C 19.81201362609863 5.503344535827637 21.52139472961426 4.620144844055176 23.40945434570313 4.620144844055176 C 25.29750442504883 4.620144844055176 27.00688362121582 5.503344535827637 28.09927368164063 7.043284893035889 L 39.89612579345703 23.67314529418945 C 41.16460418701172 25.46128463745117 41.32108306884766 27.69167518615723 40.31472396850586 29.63942527770996 C 39.30836486816406 31.5871753692627 37.39867401123047 32.75000381469727 35.20630264282227 32.75000381469727 Z"/>
                <path class="cls-91" d="M 23.40944480895996 4.870134353637695 C 21.60348510742188 4.870134353637695 19.96842384338379 5.714935302734375 18.92352485656738 7.187925338745117 L 7.126686096191406 23.81778335571289 C 5.913364410400391 25.52818489074707 5.763683319091797 27.66159439086914 6.726295471191406 29.52465438842773 C 7.688896179199219 31.38771438598633 9.515552520751953 32.49999618530273 11.61260604858398 32.49999618530273 L 35.20630645751953 32.49999618530273 C 37.30335235595703 32.49999618530273 39.13001251220703 31.38771438598633 40.09261322021484 29.52465438842773 C 41.05522537231445 27.66159439086914 40.90554428100586 25.52818489074707 39.69222259521484 23.81778335571289 L 27.8953742980957 7.187925338745117 C 26.85047340393066 5.714935302734375 25.21541404724121 4.870134353637695 23.40944480895996 4.870134353637695 M 23.40944862365723 4.370136260986328 C 25.25843238830566 4.370136260986328 27.10741424560547 5.212968826293945 28.30318450927734 6.89863395690918 L 40.10003280639648 23.52849578857422 C 42.91849517822266 27.50163459777832 40.07760620117188 32.99999618530273 35.20630645751953 32.99999618530273 L 11.61260604858398 32.99999618530273 C 6.741302490234375 32.99999618530273 3.900413513183594 27.50163459777832 6.718875885009766 23.52849578857422 L 18.51571464538574 6.89863395690918 C 19.71148490905762 5.212968826293945 21.56046676635742 4.370136260986328 23.40944862365723 4.370136260986328 Z"/>
              </g>
              <ellipse id="Ellipse_141" data-name="Ellipse 141" class="cls-31" cx="5" cy="3.5" rx="5" ry="3.5" transform="translate(18.409 5)"/>
              <g id="Group_54" data-name="Group 54" transform="translate(8.968 11.369)">
                <path id="Path_119-3" data-name="Path 119" class="cls-30" d="M.454,0C.706,0,.909,8.275.909,10.668S.706,15,.454,15,0,13.06,0,10.668.2,0,.454,0Z" transform="translate(14.116 2.037)"/>
                <path id="Path_118-3" data-name="Path 118" class="cls-30" d="M.454,0C.706,0,.909,8.275.909,10.668S.706,15,.454,15,0,13.06,0,10.668.2,0,.454,0Z" transform="translate(16.821 2.23) rotate(-10)"/>
                <path id="Path_117-3" data-name="Path 117" class="cls-30" d="M.454,0C.706,0,.909,8.275.909,10.668S.706,15,.454,15,0,13.06,0,10.668.2,0,.454,0Z" transform="matrix(0.883, -0.469, 0.469, 0.883, 18.648, 2.129)"/>
                <path id="Path_120-3" data-name="Path 120" class="cls-30" d="M.454,0C.706,0,.909,8.275.909,10.668S.706,15,.454,15,0,13.06,0,10.668.2,0,.454,0Z" transform="translate(12.073 2.175) rotate(15)"/>
                <path id="Path_121-3" data-name="Path 121" class="cls-30" d="M.454,0C.706,0,.909,8.275.909,10.668S.706,15,.454,15,0,13.06,0,10.668.2,0,.454,0Z" transform="matrix(0.927, 0.375, -0.375, 0.927, 9.959, 1.413)"/>
              </g>
              <g id="Group_56" data-name="Group 56" transform="translate(15.097 11.369)">
                <path id="Path_105" data-name="Path 105" class="cls-32" d="M.5,0C.776,0,1,2.207,1,2.845S.776,4,.5,4,0,3.483,0,2.845.224,0,.5,0Z" transform="matrix(0.743, 0.669, -0.669, 0.743, 5.094, 0.498)"/>
                <path id="Path_106" data-name="Path 106" class="cls-32" d="M.5,0C.776,0,1,2.207,1,2.845S.776,4,.5,4,0,3.483,0,2.845.224,0,.5,0Z" transform="translate(8.323 2.471) rotate(1)"/>
                <path id="Path_107" data-name="Path 107" class="cls-32" d="M.5,0C.776,0,1,2.207,1,2.845S.776,4,.5,4,0,3.483,0,2.845.224,0,.5,0Z" transform="translate(10.047 2.076) rotate(-13)"/>
                <path id="Path_108" data-name="Path 108" class="cls-32" d="M.5,0C.776,0,1,2.207,1,2.845S.776,4,.5,4,0,3.483,0,2.845.224,0,.5,0Z" transform="translate(6.744 1.694) rotate(19)"/>
                <path id="Path_109" data-name="Path 109" class="cls-32" d="M.5,0C.776,0,1,2.207,1,2.845S.776,4,.5,4,0,3.483,0,2.845.224,0,.5,0Z" transform="matrix(0.839, 0.545, -0.545, 0.839, 5.808, 1.417)"/>
                <path id="Path_110" data-name="Path 110" class="cls-32" d="M.5,0C.776,0,1,2.207,1,2.845S.776,4,.5,4,0,3.483,0,2.845.224,0,.5,0Z" transform="translate(11.052 0.719) rotate(-46)"/>
                <path id="Path_111" data-name="Path 111" class="cls-32" d="M.454,0C.706,0,.909,2.325.909,3S.706,4.215.454,4.215,0,3.67,0,3,.2,0,.454,0Z" transform="translate(6.999 4.868) rotate(7)"/>
                <path id="Path_112" data-name="Path 112" class="cls-32" d="M.5,0C.776,0,1,2.207,1,2.845S.776,4,.5,4,0,3.483,0,2.845.224,0,.5,0Z" transform="translate(9.661 5.034) rotate(-11)"/>
                <path id="Path_114" data-name="Path 114" class="cls-32" d="M.454,0C.706,0,.909,2.325.909,3S.706,4.215.454,4.215,0,3.67,0,3,.2,0,.454,0Z" transform="matrix(0.719, -0.695, 0.695, 0.719, 12.735, 3.235)"/>
                <path id="Path_116" data-name="Path 116" class="cls-32" d="M.454,0C.706,0,.909,2.325.909,3S.706,4.215.454,4.215,0,3.67,0,3,.2,0,.454,0Z" transform="matrix(0.829, 0.559, -0.559, 0.829, 2.357, 3.579)"/>
              </g>
            </g>
          </g>
          <g id="Group_63" data-name="Group 63" transform="translate(0 1)">
            <g id="Path_76" data-name="Path 76" class="cls-33" transform="translate(614 707)">
              <path class="cls-90" d="M 11.97121143341064 25.46852874755859 L -0.8985723257064819 21.05412292480469 L 11.95849990844727 0.9606678485870361 L 23.60928916931152 21.0616455078125 L 11.97121143341064 25.46852874755859 Z"/>
              <path class="cls-92" d="M 11.93739318847656 1.921335220336914 L -0.1344585418701172 20.78762245178223 L 11.96282863616943 24.93705749511719 L 22.88126373291016 20.80267524719238 L 11.93739318847656 1.921335220336914 M 11.97959995269775 -1.9073486328125e-06 L 24.33731079101563 21.32061958312988 L 11.97959995269775 26 L -1.662691116333008 21.32061958312988 L 11.97959995269775 -1.9073486328125e-06 Z"/>
            </g>
            <path id="Path_78" data-name="Path 78" class="cls-34" d="M473.451,3775.953c17.753.677,22.815-10.7,22.815-10.7" transform="translate(1842.482 -2874.223) rotate(26)"/>
            <path id="Polygon_10" data-name="Polygon 10" class="cls-35" d="M2,0,4,15H0Z" transform="translate(624.811 712.669) rotate(-20)"/>
            <path id="Polygon_11" data-name="Polygon 11" class="cls-35" d="M2,0,4,15.5H0Z" transform="translate(623.887 712.018) rotate(-1)"/>
            <path id="Polygon_12" data-name="Polygon 12" class="cls-35" d="M2,0,4,15H0Z" transform="translate(623.73 711.155) rotate(24)"/>
          </g>
          <g id="Group_51" data-name="Group 51" transform="translate(19 33)">
            <path id="Path_95" data-name="Path 95" class="cls-36" d="M28,0,56,58H0Z" transform="translate(994 651)"/>
            <g id="Group_49" data-name="Group 49" transform="translate(0 9)">
              <g id="Ellipse_139" data-name="Ellipse 139" class="cls-37" transform="translate(977 597)">
                <circle class="cls-90" cx="45" cy="45" r="45"/>
                <circle class="cls-93" cx="45" cy="45" r="42.5"/>
              </g>
              <path id="Path_80" data-name="Path 80" class="cls-38" d="M10.592,5.155c.451-1.189,3.789-1.189,4.24,0L25.172,32.4c.258.68-.763,1.311-2.12,1.311L12.943,35.263,2.372,33.708c-1.357,0-2.378-.631-2.12-1.311Z" transform="translate(1009.954 638.59) rotate(24)"/>
              <path id="Path_83" data-name="Path 83" class="cls-38" d="M10.592,5.155c.451-1.189,3.789-1.189,4.24,0L25.172,32.4c.258.68-.763,1.311-2.12,1.311L12.943,35.263,2.372,33.708c-1.357,0-2.378-.631-2.12-1.311Z" transform="translate(1011.155 648.225) rotate(-23)"/>
              <path id="Path_84" data-name="Path 84" class="cls-38" d="M10.592,5.155c.451-1.189,3.789-1.189,4.24,0L25.172,32.4c.258.68-.763,1.311-2.12,1.311L12.943,35.263,2.372,33.708c-1.357,0-2.378-.631-2.12-1.311Z" transform="matrix(0.358, 0.934, -0.934, 0.358, 1015.349, 630.186)"/>
              <path id="Path_85" data-name="Path 85" class="cls-38" d="M10.592,5.155c.451-1.189,3.789-1.189,4.24,0L25.172,32.4c.258.68-.763,1.311-2.12,1.311L12.943,35.263,2.372,33.708c-1.357,0-2.378-.631-2.12-1.311Z" transform="matrix(0.342, -0.94, 0.94, 0.342, 1020.161, 654.49)"/>
              <path id="Path_88" data-name="Path 88" class="cls-38" d="M10.592,5.155c.451-1.189,3.789-1.189,4.24,0L25.172,32.4c.258.68-.763,1.311-2.12,1.311L12.943,35.263,2.372,33.708c-1.357,0-2.378-.631-2.12-1.311Z" transform="matrix(-0.921, 0.391, -0.391, -0.921, 1033.795, 634.857)"/>
              <path id="Path_91" data-name="Path 91" class="cls-38" d="M10.592,5.155c.451-1.189,3.789-1.189,4.24,0L25.172,32.4c.258.68-.763,1.311-2.12,1.311L12.943,35.263,2.372,33.708c-1.357,0-2.378-.631-2.12-1.311Z" transform="matrix(-0.358, -0.934, 0.934, -0.358, 1028.864, 652.537)"/>
              <path id="Path_92" data-name="Path 92" class="cls-38" d="M10.592,5.155c.451-1.189,3.789-1.189,4.24,0L25.172,32.4c.258.68-.763,1.311-2.12,1.311L12.943,35.263,2.372,33.708c-1.357,0-2.378-.631-2.12-1.311Z" transform="matrix(-0.342, 0.94, -0.94, -0.342, 1024.61, 627.866)"/>
              <path id="Path_93" data-name="Path 93" class="cls-38" d="M10.592,5.155c.451-1.189,3.789-1.189,4.24,0L25.172,32.4c.258.68-.763,1.311-2.12,1.311L12.943,35.263,2.372,33.708c-1.357,0-2.378-.631-2.12-1.311Z" transform="translate(1034.537 645.327) rotate(-155)"/>
            </g>
            <g id="Path_128" data-name="Path 128" class="cls-39" transform="translate(1059.748 671.599)">
              <path class="cls-90" d="M 4.625885009765625 -7.848874092102051 C 2.213015079498291 -7.848874092102051 0.2500050067901611 -9.688774108886719 0.2500050067901611 -11.95031356811523 C 0.2500050067901611 -13.11360359191895 0.7514950037002563 -15.74152374267578 1.590705037117004 -18.12563323974609 C 2.5501549243927 -20.85130310058594 3.656435012817383 -22.41455459594727 4.625885009765625 -22.41455459594727 C 5.595335006713867 -22.41455459594727 6.701624870300293 -20.85130310058594 7.661065101623535 -18.12563323974609 C 8.500285148620605 -15.74152374267578 9.001774787902832 -13.11360359191895 9.001774787902832 -11.95031356811523 C 9.001774787902832 -9.688774108886719 7.038754940032959 -7.848874092102051 4.625885009765625 -7.848874092102051 Z"/>
              <path class="cls-94" d="M 4.625885009765625 -22.16455459594727 C 3.794145107269287 -22.16455459594727 2.721485137939453 -20.58512496948242 1.826515197753906 -18.04262351989746 C 1.00716495513916 -15.71493339538574 0.499995231628418 -13.06790351867676 0.499995231628418 -11.95031356811523 C 0.499995231628418 -9.826623916625977 2.350864887237549 -8.098873138427734 4.625885009765625 -8.098873138427734 C 6.900904655456543 -8.098873138427734 8.751765251159668 -9.826623916625977 8.751765251159668 -11.95031356811523 C 8.751765251159668 -13.06790351867676 8.24460506439209 -15.71493339538574 7.42524528503418 -18.04262351989746 C 6.530275344848633 -20.58512496948242 5.457624912261963 -22.16455459594727 4.625885009765625 -22.16455459594727 M 4.625885009765625 -22.66455459594727 C 7.180695056915283 -22.66455459594727 9.251765251159668 -14.35354423522949 9.251765251159668 -11.95031356811523 C 9.251765251159668 -9.547084808349609 7.180695056915283 -7.598873138427734 4.625885009765625 -7.598873138427734 C 2.071074962615967 -7.598873138427734 -4.76837158203125e-06 -9.547084808349609 -4.76837158203125e-06 -11.95031356811523 C -4.76837158203125e-06 -14.35354423522949 2.071074962615967 -22.66455459594727 4.625885009765625 -22.66455459594727 Z"/>
            </g>
            <g id="Path_129" data-name="Path 129" class="cls-39" transform="translate(1049.748 643.599)">
              <path class="cls-90" d="M 4.625885009765625 -7.848874092102051 C 2.213015079498291 -7.848874092102051 0.2500050067901611 -9.688774108886719 0.2500050067901611 -11.95031356811523 C 0.2500050067901611 -13.11360359191895 0.7514950037002563 -15.74152374267578 1.590705037117004 -18.12563323974609 C 2.5501549243927 -20.85130310058594 3.656435012817383 -22.41455459594727 4.625885009765625 -22.41455459594727 C 5.595335006713867 -22.41455459594727 6.701624870300293 -20.85130310058594 7.661065101623535 -18.12563323974609 C 8.500285148620605 -15.74152374267578 9.001774787902832 -13.11360359191895 9.001774787902832 -11.95031356811523 C 9.001774787902832 -9.688774108886719 7.038754940032959 -7.848874092102051 4.625885009765625 -7.848874092102051 Z"/>
              <path class="cls-94" d="M 4.625885009765625 -22.16455459594727 C 3.794145107269287 -22.16455459594727 2.721485137939453 -20.58512496948242 1.826515197753906 -18.04262351989746 C 1.00716495513916 -15.71493339538574 0.499995231628418 -13.06790351867676 0.499995231628418 -11.95031356811523 C 0.499995231628418 -9.826623916625977 2.350864887237549 -8.098873138427734 4.625885009765625 -8.098873138427734 C 6.900904655456543 -8.098873138427734 8.751765251159668 -9.826623916625977 8.751765251159668 -11.95031356811523 C 8.751765251159668 -13.06790351867676 8.24460506439209 -15.71493339538574 7.42524528503418 -18.04262351989746 C 6.530275344848633 -20.58512496948242 5.457624912261963 -22.16455459594727 4.625885009765625 -22.16455459594727 M 4.625885009765625 -22.66455459594727 C 7.180695056915283 -22.66455459594727 9.251765251159668 -14.35354423522949 9.251765251159668 -11.95031356811523 C 9.251765251159668 -9.547084808349609 7.180695056915283 -7.598873138427734 4.625885009765625 -7.598873138427734 C 2.071074962615967 -7.598873138427734 -4.76837158203125e-06 -9.547084808349609 -4.76837158203125e-06 -11.95031356811523 C -4.76837158203125e-06 -14.35354423522949 2.071074962615967 -22.66455459594727 4.625885009765625 -22.66455459594727 Z"/>
            </g>
            <g id="Path_130" data-name="Path 130" class="cls-39" transform="translate(1018.748 630.599)">
              <path class="cls-90" d="M 4.625885009765625 -7.848874092102051 C 2.213015079498291 -7.848874092102051 0.2500050067901611 -9.688774108886719 0.2500050067901611 -11.95031356811523 C 0.2500050067901611 -13.11360359191895 0.7514950037002563 -15.74152374267578 1.590705037117004 -18.12563323974609 C 2.5501549243927 -20.85130310058594 3.656435012817383 -22.41455459594727 4.625885009765625 -22.41455459594727 C 5.595335006713867 -22.41455459594727 6.701624870300293 -20.85130310058594 7.661065101623535 -18.12563323974609 C 8.500285148620605 -15.74152374267578 9.001774787902832 -13.11360359191895 9.001774787902832 -11.95031356811523 C 9.001774787902832 -9.688774108886719 7.038754940032959 -7.848874092102051 4.625885009765625 -7.848874092102051 Z"/>
              <path class="cls-94" d="M 4.625885009765625 -22.16455459594727 C 3.794145107269287 -22.16455459594727 2.721485137939453 -20.58512496948242 1.826515197753906 -18.04262351989746 C 1.00716495513916 -15.71493339538574 0.499995231628418 -13.06790351867676 0.499995231628418 -11.95031356811523 C 0.499995231628418 -9.826623916625977 2.350864887237549 -8.098873138427734 4.625885009765625 -8.098873138427734 C 6.900904655456543 -8.098873138427734 8.751765251159668 -9.826623916625977 8.751765251159668 -11.95031356811523 C 8.751765251159668 -13.06790351867676 8.24460506439209 -15.71493339538574 7.42524528503418 -18.04262351989746 C 6.530275344848633 -20.58512496948242 5.457624912261963 -22.16455459594727 4.625885009765625 -22.16455459594727 M 4.625885009765625 -22.66455459594727 C 7.180695056915283 -22.66455459594727 9.251765251159668 -14.35354423522949 9.251765251159668 -11.95031356811523 C 9.251765251159668 -9.547084808349609 7.180695056915283 -7.598873138427734 4.625885009765625 -7.598873138427734 C 2.071074962615967 -7.598873138427734 -4.76837158203125e-06 -9.547084808349609 -4.76837158203125e-06 -11.95031356811523 C -4.76837158203125e-06 -14.35354423522949 2.071074962615967 -22.66455459594727 4.625885009765625 -22.66455459594727 Z"/>
            </g>
            <g id="Path_131" data-name="Path 131" class="cls-39" transform="translate(987.748 641.599)">
              <path class="cls-90" d="M 4.625885009765625 -7.848874092102051 C 2.213015079498291 -7.848874092102051 0.2500050067901611 -9.688774108886719 0.2500050067901611 -11.95031356811523 C 0.2500050067901611 -13.11360359191895 0.7514950037002563 -15.74152374267578 1.590705037117004 -18.12563323974609 C 2.5501549243927 -20.85130310058594 3.656435012817383 -22.41455459594727 4.625885009765625 -22.41455459594727 C 5.595335006713867 -22.41455459594727 6.701624870300293 -20.85130310058594 7.661065101623535 -18.12563323974609 C 8.500285148620605 -15.74152374267578 9.001774787902832 -13.11360359191895 9.001774787902832 -11.95031356811523 C 9.001774787902832 -9.688774108886719 7.038754940032959 -7.848874092102051 4.625885009765625 -7.848874092102051 Z"/>
              <path class="cls-94" d="M 4.625885009765625 -22.16455459594727 C 3.794145107269287 -22.16455459594727 2.721485137939453 -20.58512496948242 1.826515197753906 -18.04262351989746 C 1.00716495513916 -15.71493339538574 0.499995231628418 -13.06790351867676 0.499995231628418 -11.95031356811523 C 0.499995231628418 -9.826623916625977 2.350864887237549 -8.098873138427734 4.625885009765625 -8.098873138427734 C 6.900904655456543 -8.098873138427734 8.751765251159668 -9.826623916625977 8.751765251159668 -11.95031356811523 C 8.751765251159668 -13.06790351867676 8.24460506439209 -15.71493339538574 7.42524528503418 -18.04262351989746 C 6.530275344848633 -20.58512496948242 5.457624912261963 -22.16455459594727 4.625885009765625 -22.16455459594727 M 4.625885009765625 -22.66455459594727 C 7.180695056915283 -22.66455459594727 9.251765251159668 -14.35354423522949 9.251765251159668 -11.95031356811523 C 9.251765251159668 -9.547084808349609 7.180695056915283 -7.598873138427734 4.625885009765625 -7.598873138427734 C 2.071074962615967 -7.598873138427734 -4.76837158203125e-06 -9.547084808349609 -4.76837158203125e-06 -11.95031356811523 C -4.76837158203125e-06 -14.35354423522949 2.071074962615967 -22.66455459594727 4.625885009765625 -22.66455459594727 Z"/>
            </g>
            <g id="Path_132" data-name="Path 132" class="cls-39" transform="translate(974.748 669.599)">
              <path class="cls-90" d="M 4.625885009765625 -7.848874092102051 C 2.213015079498291 -7.848874092102051 0.2500050067901611 -9.688774108886719 0.2500050067901611 -11.95031356811523 C 0.2500050067901611 -13.11360359191895 0.7514950037002563 -15.74152374267578 1.590705037117004 -18.12563323974609 C 2.5501549243927 -20.85130310058594 3.656435012817383 -22.41455459594727 4.625885009765625 -22.41455459594727 C 5.595335006713867 -22.41455459594727 6.701624870300293 -20.85130310058594 7.661065101623535 -18.12563323974609 C 8.500285148620605 -15.74152374267578 9.001774787902832 -13.11360359191895 9.001774787902832 -11.95031356811523 C 9.001774787902832 -9.688774108886719 7.038754940032959 -7.848874092102051 4.625885009765625 -7.848874092102051 Z"/>
              <path class="cls-94" d="M 4.625885009765625 -22.16455459594727 C 3.794145107269287 -22.16455459594727 2.721485137939453 -20.58512496948242 1.826515197753906 -18.04262351989746 C 1.00716495513916 -15.71493339538574 0.499995231628418 -13.06790351867676 0.499995231628418 -11.95031356811523 C 0.499995231628418 -9.826623916625977 2.350864887237549 -8.098873138427734 4.625885009765625 -8.098873138427734 C 6.900904655456543 -8.098873138427734 8.751765251159668 -9.826623916625977 8.751765251159668 -11.95031356811523 C 8.751765251159668 -13.06790351867676 8.24460506439209 -15.71493339538574 7.42524528503418 -18.04262351989746 C 6.530275344848633 -20.58512496948242 5.457624912261963 -22.16455459594727 4.625885009765625 -22.16455459594727 M 4.625885009765625 -22.66455459594727 C 7.180695056915283 -22.66455459594727 9.251765251159668 -14.35354423522949 9.251765251159668 -11.95031356811523 C 9.251765251159668 -9.547084808349609 7.180695056915283 -7.598873138427734 4.625885009765625 -7.598873138427734 C 2.071074962615967 -7.598873138427734 -4.76837158203125e-06 -9.547084808349609 -4.76837158203125e-06 -11.95031356811523 C -4.76837158203125e-06 -14.35354423522949 2.071074962615967 -22.66455459594727 4.625885009765625 -22.66455459594727 Z"/>
            </g>
            <g id="Path_133" data-name="Path 133" class="cls-39" transform="translate(987.748 698.599)">
              <path class="cls-90" d="M 4.625885009765625 -7.848874092102051 C 2.213015079498291 -7.848874092102051 0.2500050067901611 -9.688774108886719 0.2500050067901611 -11.95031356811523 C 0.2500050067901611 -13.11360359191895 0.7514950037002563 -15.74152374267578 1.590705037117004 -18.12563323974609 C 2.5501549243927 -20.85130310058594 3.656435012817383 -22.41455459594727 4.625885009765625 -22.41455459594727 C 5.595335006713867 -22.41455459594727 6.701624870300293 -20.85130310058594 7.661065101623535 -18.12563323974609 C 8.500285148620605 -15.74152374267578 9.001774787902832 -13.11360359191895 9.001774787902832 -11.95031356811523 C 9.001774787902832 -9.688774108886719 7.038754940032959 -7.848874092102051 4.625885009765625 -7.848874092102051 Z"/>
              <path class="cls-94" d="M 4.625885009765625 -22.16455459594727 C 3.794145107269287 -22.16455459594727 2.721485137939453 -20.58512496948242 1.826515197753906 -18.04262351989746 C 1.00716495513916 -15.71493339538574 0.499995231628418 -13.06790351867676 0.499995231628418 -11.95031356811523 C 0.499995231628418 -9.826623916625977 2.350864887237549 -8.098873138427734 4.625885009765625 -8.098873138427734 C 6.900904655456543 -8.098873138427734 8.751765251159668 -9.826623916625977 8.751765251159668 -11.95031356811523 C 8.751765251159668 -13.06790351867676 8.24460506439209 -15.71493339538574 7.42524528503418 -18.04262351989746 C 6.530275344848633 -20.58512496948242 5.457624912261963 -22.16455459594727 4.625885009765625 -22.16455459594727 M 4.625885009765625 -22.66455459594727 C 7.180695056915283 -22.66455459594727 9.251765251159668 -14.35354423522949 9.251765251159668 -11.95031356811523 C 9.251765251159668 -9.547084808349609 7.180695056915283 -7.598873138427734 4.625885009765625 -7.598873138427734 C 2.071074962615967 -7.598873138427734 -4.76837158203125e-06 -9.547084808349609 -4.76837158203125e-06 -11.95031356811523 C -4.76837158203125e-06 -14.35354423522949 2.071074962615967 -22.66455459594727 4.625885009765625 -22.66455459594727 Z"/>
            </g>
            <g id="Path_134" data-name="Path 134" class="cls-39" transform="translate(1017.748 707.599)">
              <path class="cls-90" d="M 4.625885009765625 -7.848874092102051 C 2.213015079498291 -7.848874092102051 0.2500050067901611 -9.688774108886719 0.2500050067901611 -11.95031356811523 C 0.2500050067901611 -13.11360359191895 0.7514950037002563 -15.74152374267578 1.590705037117004 -18.12563323974609 C 2.5501549243927 -20.85130310058594 3.656435012817383 -22.41455459594727 4.625885009765625 -22.41455459594727 C 5.595335006713867 -22.41455459594727 6.701624870300293 -20.85130310058594 7.661065101623535 -18.12563323974609 C 8.500285148620605 -15.74152374267578 9.001774787902832 -13.11360359191895 9.001774787902832 -11.95031356811523 C 9.001774787902832 -9.688774108886719 7.038754940032959 -7.848874092102051 4.625885009765625 -7.848874092102051 Z"/>
              <path class="cls-94" d="M 4.625885009765625 -22.16455459594727 C 3.794145107269287 -22.16455459594727 2.721485137939453 -20.58512496948242 1.826515197753906 -18.04262351989746 C 1.00716495513916 -15.71493339538574 0.499995231628418 -13.06790351867676 0.499995231628418 -11.95031356811523 C 0.499995231628418 -9.826623916625977 2.350864887237549 -8.098873138427734 4.625885009765625 -8.098873138427734 C 6.900904655456543 -8.098873138427734 8.751765251159668 -9.826623916625977 8.751765251159668 -11.95031356811523 C 8.751765251159668 -13.06790351867676 8.24460506439209 -15.71493339538574 7.42524528503418 -18.04262351989746 C 6.530275344848633 -20.58512496948242 5.457624912261963 -22.16455459594727 4.625885009765625 -22.16455459594727 M 4.625885009765625 -22.66455459594727 C 7.180695056915283 -22.66455459594727 9.251765251159668 -14.35354423522949 9.251765251159668 -11.95031356811523 C 9.251765251159668 -9.547084808349609 7.180695056915283 -7.598873138427734 4.625885009765625 -7.598873138427734 C 2.071074962615967 -7.598873138427734 -4.76837158203125e-06 -9.547084808349609 -4.76837158203125e-06 -11.95031356811523 C -4.76837158203125e-06 -14.35354423522949 2.071074962615967 -22.66455459594727 4.625885009765625 -22.66455459594727 Z"/>
            </g>
            <g id="Path_135" data-name="Path 135" class="cls-39" transform="translate(1047.748 698.599)">
              <path class="cls-90" d="M 4.625885009765625 -7.848874092102051 C 2.213015079498291 -7.848874092102051 0.2500050067901611 -9.688774108886719 0.2500050067901611 -11.95031356811523 C 0.2500050067901611 -13.11360359191895 0.7514950037002563 -15.74152374267578 1.590705037117004 -18.12563323974609 C 2.5501549243927 -20.85130310058594 3.656435012817383 -22.41455459594727 4.625885009765625 -22.41455459594727 C 5.595335006713867 -22.41455459594727 6.701624870300293 -20.85130310058594 7.661065101623535 -18.12563323974609 C 8.500285148620605 -15.74152374267578 9.001774787902832 -13.11360359191895 9.001774787902832 -11.95031356811523 C 9.001774787902832 -9.688774108886719 7.038754940032959 -7.848874092102051 4.625885009765625 -7.848874092102051 Z"/>
              <path class="cls-94" d="M 4.625885009765625 -22.16455459594727 C 3.794145107269287 -22.16455459594727 2.721485137939453 -20.58512496948242 1.826515197753906 -18.04262351989746 C 1.00716495513916 -15.71493339538574 0.499995231628418 -13.06790351867676 0.499995231628418 -11.95031356811523 C 0.499995231628418 -9.826623916625977 2.350864887237549 -8.098873138427734 4.625885009765625 -8.098873138427734 C 6.900904655456543 -8.098873138427734 8.751765251159668 -9.826623916625977 8.751765251159668 -11.95031356811523 C 8.751765251159668 -13.06790351867676 8.24460506439209 -15.71493339538574 7.42524528503418 -18.04262351989746 C 6.530275344848633 -20.58512496948242 5.457624912261963 -22.16455459594727 4.625885009765625 -22.16455459594727 M 4.625885009765625 -22.66455459594727 C 7.180695056915283 -22.66455459594727 9.251765251159668 -14.35354423522949 9.251765251159668 -11.95031356811523 C 9.251765251159668 -9.547084808349609 7.180695056915283 -7.598873138427734 4.625885009765625 -7.598873138427734 C 2.071074962615967 -7.598873138427734 -4.76837158203125e-06 -9.547084808349609 -4.76837158203125e-06 -11.95031356811523 C -4.76837158203125e-06 -14.35354423522949 2.071074962615967 -22.66455459594727 4.625885009765625 -22.66455459594727 Z"/>
            </g>
          </g>
          <path id="Path_211" data-name="Path 211" class="cls-40" d="M76.5-23.3c38.236,0,115.871,57.7,123.722,76.037C200.93,54.391,161.86,19.447,162.5,28.7c-.817,5.581-16.261-7.5-12.621,26.855,0,0-27.667-4.732-37.5-11.912C91.268,34.444,94.294,91.21,85.807,90.5c-8.929-.746-19.085-51.775-28.4-54.137-18.456-5.206-34.548,56.081-41.36,59.285-7.34,3.452,1.029-28.535-3.874-28.671-4.695-.13-1.89-17.378-5.112-19.307-1.161-.694-2.281-6.013-5.429-4.025,0,0-12.062,9.866-16.6,19.911s-10.9,12.731-10.9,12.731c-9.61,5.136,19.669-40.066,5.2-39.924-6.291.064-18.2,12.622-28.108,7.075C-47.73,38.746-28.263,21.914-15.8,14.091,11.785-3.218,57.972-23.3,76.5-23.3Z" transform="translate(682 561)"/>
          <rect id="Rectangle_88" data-name="Rectangle 88" class="cls-17" width="20" height="3" transform="translate(759.858 742.296) rotate(19)"/>
          <g id="Group_62" data-name="Group 62" transform="translate(-2 -1)">
            <g id="Group_53-2" data-name="Group 53" transform="translate(-52 193)">
              <line id="Line_72" data-name="Line 72" class="cls-28" y2="23" transform="translate(790.5 506.5)"/>
              <g id="Group_52-2" data-name="Group 52" transform="translate(0 2)">
                <g id="Polygon_14-2" data-name="Polygon 14" class="cls-29" transform="translate(756 465)">
                  <path class="cls-90" d="M 55.66535949707031 49.75000762939453 L 13.33463954925537 49.75000762939453 C 10.77978992462158 49.75000762939453 8.545559883117676 48.39948654174805 7.358069896697998 46.13738632202148 C 6.170589923858643 43.87528610229492 6.327889919281006 41.26934814453125 7.778850078582764 39.16650772094727 L 28.94421005249023 8.492067337036133 C 29.59494018554688 7.548976898193359 30.4328498840332 6.813016891479492 31.43465995788574 6.30463695526123 C 32.37453842163086 5.827677249908447 33.43452072143555 5.575567245483398 34.5 5.575567245483398 C 35.56549072265625 5.575567245483398 36.62546920776367 5.827677249908447 37.56534957885742 6.304626941680908 C 38.5671501159668 6.813016891479492 39.40505981445313 7.548976898193359 40.05578994750977 8.492067337036133 L 61.22114944458008 39.16650772094727 C 62.67211151123047 41.26934814453125 62.82941055297852 43.87528610229492 61.64191818237305 46.13739776611328 C 60.45444107055664 48.39949798583984 58.22021102905273 49.75000762939453 55.66535949707031 49.75000762939453 Z"/>
                  <path class="cls-91" d="M 34.5 5.825557708740234 C 32.33152008056641 5.825557708740234 30.38151168823242 6.849216461181641 29.14997100830078 8.634048461914063 L 7.984619140625 39.30848693847656 C 6.587398529052734 41.33344650268555 6.435928344726563 43.84286499023438 7.579429626464844 46.02118682861328 C 8.722930908203125 48.19950866699219 10.87440872192383 49.50000762939453 13.33464050292969 49.50000762939453 L 55.66535949707031 49.50000762939453 C 58.12557983398438 49.50000762939453 60.27706146240234 48.19951629638672 61.42057037353516 46.02119827270508 C 62.56407928466797 43.84286499023438 62.41260147094727 41.33344650268555 61.015380859375 39.30848693847656 L 39.85002136230469 8.634048461914063 C 38.61848068237305 6.849216461181641 36.66847991943359 5.825557708740234 34.5 5.825557708740234 M 34.5 5.3255615234375 C 36.68513870239258 5.3255615234375 38.87027740478516 6.333736419677734 40.26155853271484 8.350086212158203 L 61.42691802978516 39.02452850341797 C 64.63095855712891 43.66805648803711 61.30702209472656 50.00000762939453 55.66535949707031 50.00000762939453 L 13.33464050292969 50.00000762939453 C 7.692981719970703 49.99999618530273 4.369041442871094 43.66806793212891 7.573078155517578 39.02452850341797 L 28.73843002319336 8.350086212158203 C 30.12971496582031 6.333736419677734 32.31485748291016 5.3255615234375 34.5 5.3255615234375 Z"/>
                </g>
              </g>
              <g id="Group_59-2" data-name="Group 59" transform="translate(48 -152)">
                <path id="Path_117-4" data-name="Path 117" class="cls-30" d="M.454,0C.706,0,.909,8.275.909,10.668S.706,15,.454,15,0,13.06,0,10.668.2,0,.454,0Z" transform="matrix(0.883, -0.469, 0.469, 0.883, 750.062, 648.498)"/>
                <path id="Path_119-4" data-name="Path 119" class="cls-30" d="M.454,0C.706,0,.909,8.275.909,10.668S.706,15,.454,15,0,13.06,0,10.668.2,0,.454,0Z" transform="translate(741.135 648.406)"/>
                <path id="Path_122-2" data-name="Path 122" class="cls-30" d="M.454,0C.706,0,.909,8.275.909,10.668S.706,15,.454,15,0,13.06,0,10.668.2,0,.454,0Z" transform="translate(730.978 646.434) rotate(34)"/>
                <path id="Path_118-4" data-name="Path 118" class="cls-30" d="M.454,0C.706,0,.909,8.275.909,10.668S.706,15,.454,15,0,13.06,0,10.668.2,0,.454,0Z" transform="translate(745.223 648.599) rotate(-10)"/>
                <path id="Path_120-4" data-name="Path 120" class="cls-30" d="M.454,0C.706,0,.909,8.275.909,10.668S.706,15,.454,15,0,13.06,0,10.668.2,0,.454,0Z" transform="translate(737.64 648.544) rotate(15)"/>
                <path id="Path_121-4" data-name="Path 121" class="cls-30" d="M.454,0C.706,0,.909,8.275.909,10.668S.706,15,.454,15,0,13.06,0,10.668.2,0,.454,0Z" transform="matrix(0.927, 0.375, -0.375, 0.927, 732.549, 647.782)"/>
                <path id="Path_123-3" data-name="Path 123" class="cls-30" d="M.454,0C.706,0,.909,8.275.909,10.668S.706,15,.454,15,0,13.06,0,10.668.2,0,.454,0Z" transform="matrix(0.839, -0.545, 0.545, 0.839, 751.519, 646.864)"/>
              </g>
              <g id="Group_60-2" data-name="Group 60">
                <g id="Polygon_13-2" data-name="Polygon 13" class="cls-29" transform="translate(755 460)">
                  <path class="cls-90" d="M 54.33794403076172 36.75000762939453 L 13.66206359863281 36.75000762939453 C 11.3459939956665 36.75000762939453 9.328693389892578 35.43267822265625 8.397394180297852 33.31209564208984 C 7.466094017028809 31.19152641296387 7.861063957214355 28.81479644775391 9.428174018859863 27.10941696166992 L 29.76611328125 4.97694730758667 C 30.85198402404785 3.795267343521118 32.39517211914063 3.117537260055542 33.99999237060547 3.117537260055542 C 35.60482406616211 3.117537260055542 37.14801406860352 3.795267343521118 38.23388290405273 4.97694730758667 L 58.57182312011719 27.10941696166992 C 60.13893508911133 28.81479644775391 60.53390502929688 31.19152641296387 59.60260391235352 33.31210708618164 C 58.67130279541016 35.43267822265625 56.65400314331055 36.75000762939453 54.33794403076172 36.75000762939453 Z"/>
                  <path class="cls-91" d="M 33.9999885559082 3.367538452148438 C 32.4423713684082 3.367538452148438 31.00411987304688 3.999176025390625 29.95019149780273 5.146099090576172 L 9.612251281738281 27.27855682373047 C 8.11328125 28.90979766845703 7.735481262207031 31.18319702148438 8.626289367675781 33.21157836914063 C 9.517101287841797 35.23995590209961 11.44670104980469 36.50000762939453 13.66205978393555 36.50000762939453 L 54.33794021606445 36.50000762939453 C 56.55331039428711 36.50000762939453 58.4828987121582 35.23995590209961 59.37369918823242 33.21158599853516 C 60.26451110839844 31.18320846557617 59.88671112060547 28.9098072052002 58.38774108886719 27.27855682373047 L 38.04980087280273 5.146099090576172 C 36.99587249755859 3.999176025390625 35.55762100219727 3.367538452148438 33.9999885559082 3.367538452148438 M 33.99999618530273 2.867538452148438 C 35.61466598510742 2.867538452148438 37.22933959960938 3.514286041259766 38.41796112060547 4.807788848876953 L 58.75590133666992 26.94024658203125 C 62.29066848754883 30.78691864013672 59.56206130981445 37.00000762939453 54.33794021606445 37.00000762939453 L 13.66205978393555 37.00000762939453 C 8.437938690185547 37.00000762939453 5.709331512451172 30.78690719604492 9.244091033935547 26.94024658203125 L 29.58203125 4.807788848876953 C 30.77064895629883 3.514286041259766 32.38532257080078 2.867538452148438 33.99999618530273 2.867538452148438 Z"/>
                </g>
                <g id="Group_57-2" data-name="Group 57" transform="translate(47 -173)">
                  <path id="Path_117-5" data-name="Path 117" class="cls-30" d="M.454,0C.706,0,.909,8.275.909,10.668S.706,15,.454,15,0,13.06,0,10.668.2,0,.454,0Z" transform="matrix(0.883, -0.469, 0.469, 0.883, 750.062, 648.498)"/>
                  <path id="Path_119-5" data-name="Path 119" class="cls-30" d="M.454,0C.706,0,.909,8.275.909,10.668S.706,15,.454,15,0,13.06,0,10.668.2,0,.454,0Z" transform="translate(741.135 648.406)"/>
                  <path id="Path_122-3" data-name="Path 122" class="cls-30" d="M.454,0C.706,0,.909,8.275.909,10.668S.706,15,.454,15,0,13.06,0,10.668.2,0,.454,0Z" transform="translate(730.978 646.434) rotate(34)"/>
                  <path id="Path_118-5" data-name="Path 118" class="cls-30" d="M.454,0C.706,0,.909,8.275.909,10.668S.706,15,.454,15,0,13.06,0,10.668.2,0,.454,0Z" transform="translate(745.223 648.599) rotate(-10)"/>
                  <path id="Path_120-5" data-name="Path 120" class="cls-30" d="M.454,0C.706,0,.909,8.275.909,10.668S.706,15,.454,15,0,13.06,0,10.668.2,0,.454,0Z" transform="translate(737.64 648.544) rotate(15)"/>
                  <path id="Path_121-5" data-name="Path 121" class="cls-30" d="M.454,0C.706,0,.909,8.275.909,10.668S.706,15,.454,15,0,13.06,0,10.668.2,0,.454,0Z" transform="matrix(0.927, 0.375, -0.375, 0.927, 732.549, 647.782)"/>
                  <path id="Path_123-4" data-name="Path 123" class="cls-30" d="M.454,0C.706,0,.909,8.275.909,10.668S.706,15,.454,15,0,13.06,0,10.668.2,0,.454,0Z" transform="matrix(0.839, -0.545, 0.545, 0.839, 751.519, 646.864)"/>
                </g>
              </g>
            </g>
            <g id="Group_58-2" data-name="Group 58">
              <g id="Polygon_15-2" data-name="Polygon 15" class="cls-29" transform="translate(710 635)">
                <path class="cls-90" d="M 42.37650680541992 37.75 L 11.6234884262085 37.75 C 9.430177688598633 37.75 7.520118236541748 36.58644104003906 6.514068126678467 34.63747024536133 C 5.508018016815186 32.68849945068359 5.665818214416504 30.45751190185547 6.936208248138428 28.6695613861084 L 22.31271743774414 7.02855110168457 C 23.40525817871094 5.490881443023682 25.11370849609375 4.608991146087646 26.99999809265137 4.608991146087646 C 28.88628768920898 4.608991146087646 30.5947380065918 5.490881443023682 31.68727874755859 7.02855110168457 L 47.06378936767578 28.6695613861084 C 48.33417892456055 30.45750045776367 48.49198913574219 32.68849945068359 47.48593902587891 34.6374626159668 C 46.47988891601563 36.58644104003906 44.56982803344727 37.75 42.37650680541992 37.75 Z"/>
                <path class="cls-91" d="M 26.99999809265137 4.858989715576172 C 25.19571876525879 4.858989715576172 23.56154823303223 5.702541351318359 22.51650810241699 7.173351287841797 L 7.139999389648438 28.81436157226563 C 5.924846649169922 30.52457046508789 5.773899078369141 32.65856170654297 6.736209869384766 34.52279281616211 C 7.698516845703125 36.38702011108398 9.525539398193359 37.5 11.62348937988281 37.5 L 42.37650680541992 37.5 C 44.47445678710938 37.5 46.30147933959961 36.38703155517578 47.26378631591797 34.52280044555664 C 48.22609710693359 32.6585693359375 48.07514953613281 30.52457046508789 46.8599967956543 28.81436157226563 L 31.48348808288574 7.173351287841797 C 30.43843841552734 5.702541351318359 28.80426788330078 4.858989715576172 26.99999809265137 4.858989715576172 M 26.99999809265137 4.358989715576172 C 28.84757041931152 4.358989715576172 30.69514274597168 5.200576782226563 31.89107894897461 6.883750915527344 L 47.2675895690918 28.52476119995117 C 50.09028625488281 32.49745178222656 47.24990844726563 38 42.37650680541992 38 L 11.62348937988281 38 C 6.750099182128906 38 3.909698486328125 32.49745178222656 6.732406616210938 28.52476119995117 L 22.10891723632813 6.883750915527344 C 23.30485343933105 5.200576782226563 25.15242576599121 4.358989715576172 26.99999809265137 4.358989715576172 Z"/>
              </g>
              <ellipse id="Ellipse_141-2" data-name="Ellipse 141" class="cls-31" cx="5" cy="3.5" rx="5" ry="3.5" transform="translate(732 640)"/>
              <g id="Group_54-2" data-name="Group 54">
                <path id="Path_119-6" data-name="Path 119" class="cls-30" d="M.454-22.665C.706-22.665.909-14.39.909-12S.706-7.665.454-7.665,0-9.6,0-12,.2-22.665.454-22.665Z" transform="translate(736.706 671.071)"/>
                <path id="Path_118-6" data-name="Path 118" class="cls-30" d="M.454-22.665C.706-22.665.909-14.39.909-12S.706-7.665.454-7.665,0-9.6,0-12,.2-22.665.454-22.665Z" transform="translate(743.346 670.92) rotate(-10)"/>
                <path id="Path_117-6" data-name="Path 117" class="cls-30" d="M.454-22.665C.706-22.665.909-14.39.909-12S.706-7.665.454-7.665,0-9.6,0-12,.2-22.665.454-22.665Z" transform="matrix(0.883, -0.469, 0.469, 0.883, 751.879, 668.509)"/>
                <path id="Path_122-4" data-name="Path 122" class="cls-30" d="M.454-22.665C.706-22.665.909-14.39.909-12S.706-7.665.454-7.665,0-9.6,0-12,.2-22.665.454-22.665Z" transform="translate(718.304 665.224) rotate(34)"/>
                <path id="Path_120-6" data-name="Path 120" class="cls-30" d="M.454-22.665C.706-22.665.909-14.39.909-12S.706-7.665.454-7.665,0-9.6,0-12,.2-22.665.454-22.665Z" transform="translate(728.797 670.436) rotate(15)"/>
                <path id="Path_121-6" data-name="Path 121" class="cls-30" d="M.454-22.665C.706-22.665.909-14.39.909-12S.706-7.665.454-7.665,0-9.6,0-12,.2-22.665.454-22.665Z" transform="matrix(0.927, 0.375, -0.375, 0.927, 724.059, 668.796)"/>
                <path id="Path_123-5" data-name="Path 123" class="cls-30" d="M.454-22.665C.706-22.665.909-14.39.909-12S.706-7.665.454-7.665,0-9.6,0-12,.2-22.665.454-22.665Z" transform="matrix(0.839, -0.545, 0.545, 0.839, 755.039, 665.872)"/>
              </g>
              <g id="Group_56-2" data-name="Group 56">
                <path id="Path_104" data-name="Path 104" class="cls-32" d="M.5-22.665c.276,0,.5,2.207.5,2.845S.776-18.665.5-18.665,0-19.182,0-19.82.224-22.665.5-22.665Z" transform="matrix(0.799, -0.602, 0.602, 0.799, 754.232, 665.075)"/>
                <path id="Path_105-2" data-name="Path 105" class="cls-32" d="M.5-22.665c.276,0,.5,2.207.5,2.845S.776-18.665.5-18.665,0-19.182,0-19.82.224-22.665.5-22.665Z" transform="matrix(0.743, 0.669, -0.669, 0.743, 716, 661.863)"/>
                <path id="Path_106-2" data-name="Path 106" class="cls-32" d="M.5-22.665c.276,0,.5,2.207.5,2.845S.776-18.665.5-18.665,0-19.182,0-19.82.224-22.665.5-22.665Z" transform="translate(736.318 670.541) rotate(1)"/>
                <path id="Path_107-2" data-name="Path 107" class="cls-32" d="M.5-22.665c.276,0,.5,2.207.5,2.845S.776-18.665.5-18.665,0-19.182,0-19.82.224-22.665.5-22.665Z" transform="translate(744.313 669.359) rotate(-13)"/>
                <path id="Path_108-2" data-name="Path 108" class="cls-32" d="M.5-22.665c.276,0,.5,2.207.5,2.845S.776-18.665.5-18.665,0-19.182,0-19.82.224-22.665.5-22.665Z" transform="translate(726.978 668.265) rotate(19)"/>
                <path id="Path_109-2" data-name="Path 109" class="cls-32" d="M.5-22.665c.276,0,.5,2.207.5,2.845S.776-18.665.5-18.665,0-19.182,0-19.82.224-22.665.5-22.665Z" transform="matrix(0.839, 0.545, -0.545, 0.839, 720.505, 664.947)"/>
                <path id="Path_110-2" data-name="Path 110" class="cls-32" d="M.5-22.665c.276,0,.5,2.207.5,2.845S.776-18.665.5-18.665,0-19.182,0-19.82.224-22.665.5-22.665Z" transform="translate(758.054 660.985) rotate(-46)"/>
                <path id="Path_111-2" data-name="Path 111" class="cls-32" d="M.454-22.665c.251,0,.454,2.325.454,3s-.2,1.218-.454,1.218S0-18.994,0-19.667.2-22.665.454-22.665Z" transform="translate(732.094 673.733) rotate(7)"/>
                <path id="Path_112-2" data-name="Path 112" class="cls-32" d="M.5-22.665c.276,0,.5,2.207.5,2.845S.776-18.665.5-18.665,0-19.182,0-19.82.224-22.665.5-22.665Z" transform="translate(742.988 673.651) rotate(-11)"/>
                <path id="Path_113" data-name="Path 113" class="cls-32" d="M.454-22.665c.251,0,.454,2.325.454,3s-.2,1.218-.454,1.218S0-18.994,0-19.667.2-22.665.454-22.665Z" transform="matrix(0.94, 0.342, -0.342, 0.94, 723.766, 671.546)"/>
                <path id="Path_114-2" data-name="Path 114" class="cls-32" d="M.454-22.665c.251,0,.454,2.325.454,3s-.2,1.218-.454,1.218S0-18.994,0-19.667.2-22.665.454-22.665Z" transform="matrix(0.719, -0.695, 0.695, 0.719, 759.177, 664.935)"/>
                <path id="Path_115" data-name="Path 115" class="cls-32" d="M.454-22.665c.251,0,.454,2.325.454,3s-.2,1.218-.454,1.218S0-18.994,0-19.667.2-22.665.454-22.665Z" transform="matrix(0.839, -0.545, 0.545, 0.839, 754.039, 669.872)"/>
                <path id="Path_116-2" data-name="Path 116" class="cls-32" d="M.454-22.665c.251,0,.454,2.325.454,3s-.2,1.218-.454,1.218S0-18.994,0-19.667.2-22.665.454-22.665Z" transform="matrix(0.829, 0.559, -0.559, 0.829, 715.352, 668.172)"/>
              </g>
            </g>
          </g>
          <g id="Group_61" data-name="Group 61" transform="translate(-9 9)">
            <path id="Polygon_16" data-name="Polygon 16" class="cls-41" d="M48,0,96,75H0Z" transform="matrix(1, 0, 0, 1, 654.395, 661.67)"/>
            <path id="Polygon_17" data-name="Polygon 17" class="cls-42" d="M46,0,92,71H0Z" transform="translate(654.43 665.671)"/>
            <line id="Line_73" data-name="Line 73" class="cls-43" x2="80" transform="translate(660.5 727.5)"/>
            <line id="Line_74" data-name="Line 74" class="cls-43" x2="1" y2="20" transform="translate(733.5 716.5)"/>
            <line id="Line_75" data-name="Line 75" class="cls-43" y2="20" transform="translate(667.5 716.5)"/>
            <line id="Line_76" data-name="Line 76" class="cls-44" y2="68" transform="translate(700.5 668.5)"/>
            <line id="Line_77" data-name="Line 77" class="cls-43" x2="12" transform="translate(694.5 675.5)"/>
            <line id="Line_78" data-name="Line 78" class="cls-43" x2="22" transform="translate(689.5 682.5)"/>
            <line id="Line_79" data-name="Line 79" class="cls-43" x2="33" transform="translate(683.5 691.5)"/>
            <line id="Line_80" data-name="Line 80" class="cls-43" x2="43" transform="translate(678.5 699.5)"/>
            <line id="Line_81" data-name="Line 81" class="cls-43" x2="56" transform="translate(672.5 708.5)"/>
            <line id="Line_82" data-name="Line 82" class="cls-43" x2="66" transform="translate(667.5 716.5)"/>
            <line id="Line_83" data-name="Line 83" class="cls-43" y2="61" transform="translate(706.5 675.5)"/>
            <line id="Line_84" data-name="Line 84" class="cls-43" x2="1" y2="54" transform="translate(711.5 682.5)"/>
            <line id="Line_85" data-name="Line 85" class="cls-43" x2="1" y2="45" transform="translate(716.5 691.5)"/>
            <line id="Line_86" data-name="Line 86" class="cls-43" x2="1" y2="37" transform="translate(721.5 699.5)"/>
            <line id="Line_87" data-name="Line 87" class="cls-43" x2="1" y2="28" transform="translate(728.5 708.5)"/>
            <line id="Line_88" data-name="Line 88" class="cls-43" y2="9" transform="translate(740.5 727.5)"/>
            <line id="Line_89" data-name="Line 89" class="cls-43" y2="61" transform="translate(694.5 675.5)"/>
            <line id="Line_90" data-name="Line 90" class="cls-43" y2="54" transform="translate(689.5 682.5)"/>
            <line id="Line_91" data-name="Line 91" class="cls-43" y2="45" transform="translate(683.5 691.5)"/>
            <line id="Line_92" data-name="Line 92" class="cls-43" y2="37" transform="translate(678.5 699.5)"/>
            <line id="Line_93" data-name="Line 93" class="cls-43" y2="9" transform="translate(660.5 727.5)"/>
            <line id="Line_94" data-name="Line 94" class="cls-43" y2="28" transform="translate(672.5 708.5)"/>
          </g>
          <path id="Path_126" data-name="Path 126" class="cls-16" d="M88.1,18.483c49.411,0,87.551,19.092,80.5,19.573-15.079,1.03-46.606,0-80.5,0-32.265,0-70.266.411-86.129,0-8.24-.213-3.338,3.981-3.338-.9C-1.367,23.1,38.688,18.483,88.1,18.483Z" transform="translate(613.438 724.588)"/>
          <rect id="Rectangle_84" data-name="Rectangle 84" class="cls-17" width="20" height="3" transform="matrix(0.848, -0.53, 0.53, 0.848, 729.328, 778.655)"/>
          <rect id="Rectangle_85" data-name="Rectangle 85" class="cls-17" width="20" height="3" transform="matrix(0.951, 0.309, -0.309, 0.951, 654.725, 774.555)"/>
          <path id="Path_127" data-name="Path 127" class="cls-45" d="M6.559-27.675c1.176,0,6.165,11.974,6.165,11.974s13.5-3.287,13.5-1.874c0,1.02-8.5,9.891-8.5,9.891S25.223,2.934,24.6,4.5C24.315,5.213,8.578.021,8.578.021S-2.58,9.12-3.648,7.934C-4.592,6.885-.9-5.914-.9-5.914s-9.123-6.193-9.123-7.08c0-1.369,12.372-1.458,12.372-1.458S5.338-27.675,6.559-27.675Z" transform="translate(349.042 747)"/>
          <g id="Ellipse_150" data-name="Ellipse 150" class="cls-46" transform="matrix(0.94, 0.342, -0.342, 0.94, 351.647, 735.459)">
            <ellipse class="cls-90" cx="2.5" cy="0.75" rx="2.5" ry="0.75"/>
            <ellipse class="cls-93" cx="2.5" cy="0.75" rx="2" ry="0.25"/>
          </g>
          <g id="Ellipse_151" data-name="Ellipse 151" class="cls-46" transform="translate(356.953 731.418) rotate(78)">
            <ellipse class="cls-90" cx="2.5" cy="0.75" rx="2.5" ry="0.75"/>
            <ellipse class="cls-93" cx="2.5" cy="0.75" rx="2" ry="0.25"/>
          </g>
          <g id="Ellipse_152" data-name="Ellipse 152" class="cls-46" transform="translate(364.345 735.869) rotate(160)">
            <ellipse class="cls-90" cx="2.5" cy="0.75" rx="2.5" ry="0.75"/>
            <ellipse class="cls-93" cx="2.5" cy="0.75" rx="2" ry="0.25"/>
          </g>
          <g id="Ellipse_153" data-name="Ellipse 153" class="cls-46" transform="translate(352.509 742.375) rotate(-48)">
            <ellipse class="cls-90" cx="2.5" cy="0.75" rx="2.5" ry="0.75"/>
            <ellipse class="cls-93" cx="2.5" cy="0.75" rx="2" ry="0.25"/>
          </g>
          <g id="Path_138" data-name="Path 138" class="cls-47" transform="translate(361.855 743.379) rotate(-132)">
            <path class="cls-90" d="M2.5,0C3.881,0,5,.336,5,.75s-1.119.75-2.5.75S0,1.164,0,.75,1.119,0,2.5,0Z"/>
            <path class="cls-95" d="M 2.500011444091797 1.311302185058594e-06 C 3.880731582641602 1.311302185058594e-06 5.000021457672119 0.3357813358306885 5.000021457672119 0.7499812841415405 C 5.000021457672119 1.164181232452393 3.880731582641602 1.499961256980896 2.500011444091797 1.499961256980896 C 1.119291543960571 1.499961256980896 1.430511474609375e-06 1.164181232452393 1.430511474609375e-06 0.7499812841415405 C 1.430511474609375e-06 0.3357813358306885 1.119291543960571 1.311302185058594e-06 2.500011444091797 1.311302185058594e-06 Z"/>
          </g>
          <path id="Path_56" data-name="Path 56" class="cls-48" d="M76.5-23.3c38.236,0,96.542,38.755,104.393,57.1.708,1.651-19.033-14.353-18.4-5.1-.817,5.581-8.542,7.056-19.6,10.587-13.515,4.314-3.477,18.436-13.538,22.531-.954.392-3.518-.921-6.347-2.368a11.975,11.975,0,0,1-1.8-.947c-.3-.215-.609-.663-1.232-.663-2.963-2.2-18.347-16-24.921-12.892-7.038,3.331-14.024,16.889-22.511,16.18-8.929-.746-7.221-20.149-16.531-22.511-4-1.016-10.351,1.616-17.162,4.819-7.34,3.452-15.218,7.627-20.121,7.491A23.3,23.3,0,0,1,7.066,47.671C5.9,46.977,4.73,44.09,3.019,43.439c-7.525-2.869-23.821,1.145-23.507,0C-15.836,26.311,36.236-23.3,76.5-23.3Z" transform="translate(403 518)"/>
          <line id="Line_109" data-name="Line 109" class="cls-49" y2="15" transform="translate(536.5 558.5)"/>
          <g id="Group_67" data-name="Group 67" transform="translate(-70 -72)">
            <line id="Line_107" data-name="Line 107" class="cls-49" y2="15" transform="translate(593.5 626.5)"/>
            <line id="Line_103" data-name="Line 103" class="cls-50" y2="15" transform="translate(593.5 638.5)"/>
            <line id="Line_104" data-name="Line 104" class="cls-50" y2="14" transform="translate(606.5 641.5)"/>
          </g>
          <path id="Path_141" data-name="Path 141" class="cls-11" d="M18-68.445c9.941,0,18,4.8,18,7.947s-8.059,3.385-18,3.385S0-57.352,0-60.5,8.059-68.445,18-68.445Z" transform="matrix(-0.995, -0.105, 0.105, -0.995, 552.214, 527.407)"/>
          <rect id="Rectangle_86" data-name="Rectangle 86" class="cls-17" width="20" height="3" transform="translate(598.661 693.978) rotate(-8)"/>
          <g id="Rectangle_95" data-name="Rectangle 95" class="cls-51" transform="translate(559 603)">
            <rect class="cls-90" width="15" height="1.5"/>
            <rect class="cls-93" x="0.5" y="0.5" width="14" height="0.5"/>
          </g>
          <g id="Group_71" data-name="Group 71">
            <g id="Path_153" data-name="Path 153" class="cls-52" transform="translate(577.707 594)">
              <path class="cls-90" d="M 0.6545319557189941 10.63969039916992 C 0.6119658350944519 10.40980625152588 0.5687679052352905 10.0616283416748 0.5401438474655151 9.536647796630859 C 0.4924038648605347 8.661077499389648 0.4953438639640808 7.555407524108887 0.4984438717365265 6.384817600250244 C 0.4992238581180573 6.092387676239014 0.5000038743019104 5.796557426452637 0.5000038743019104 5.499997615814209 L 0.4999138712882996 5.146717548370361 C 0.4994538724422455 3.910427570343018 0.4990438520908356 2.842717409133911 0.5503638386726379 2.013607501983643 C 0.5906051993370056 1.363420486450195 0.6565428376197815 1.012280106544495 0.710904598236084 0.8247284889221191 C 0.9210588932037354 1.244615197181702 1.231903910636902 2.465320348739624 1.231903910636902 5.241207599639893 C 1.231903910636902 6.587647438049316 1.14315390586853 7.986937522888184 0.9884138703346252 9.080267906188965 C 0.876539945602417 9.870722770690918 0.7535456418991089 10.35176849365234 0.6545319557189941 10.63969039916992 Z"/>
              <path class="cls-96" d="M 0.6613738536834717 0.1738271713256836 C 1.351733922958374 0.1738271713256836 1.731903910636902 2.203647613525391 1.731903910636902 5.241207599639893 C 1.731903910636902 8.278778076171875 1.298293828964233 11.49804782867432 0.6079438924789429 11.49804782867432 C -0.08241617679595947 11.49804782867432 3.814697265625e-06 8.537567138671875 3.814697265625e-06 5.499997615814209 C 3.814697265625e-06 2.462437629699707 -0.02897608280181885 0.1738271713256836 0.6613738536834717 0.1738271713256836 Z"/>
            </g>
            <path id="Path_152" data-name="Path 152" class="cls-53" d="M2,0H15a2,2,0,0,1,2,2s-.648,1.263-.841,4.927S17,11,17,11a2,2,0,0,1-2,2H2a2,2,0,0,1-2-2V2A2,2,0,0,1,2,0Z" transform="translate(562 593)"/>
            <g id="Path_157" data-name="Path 157" class="cls-54" transform="translate(562 594)">
              <path class="cls-90" d="M 0.4462761282920837 9.224724769592285 C 0.4445567727088928 8.704856872558594 0.4572774171829224 8.097758293151855 0.4686923623085022 7.552929878234863 C 0.4833623468875885 6.852260112762451 0.500002384185791 6.058099746704102 0.500002384185791 5.25 C 0.500002384185791 4.39330005645752 0.4811623692512512 3.627899885177612 0.4660223424434662 3.012879848480225 C 0.455644965171814 2.591461896896362 0.4451020658016205 2.163235664367676 0.4455817639827728 1.807985901832581 C 0.7117594480514526 2.468267202377319 1.000002384185791 3.610075712203979 1.000002384185791 5.25 C 1.000002384185791 6.867327213287354 0.722906231880188 8.293588638305664 0.4462761282920837 9.224724769592285 Z"/>
              <path class="cls-97" d="M 0.2009623050689697 0.6723604202270508 C 0.6151723861694336 0.6723604202270508 1.500002384185791 2.350500106811523 1.500002384185791 5.25 C 1.500002384185791 8.149499893188477 0.6151723861694336 10.75806045532227 0.2009623050689697 10.75806045532227 C -0.2132576704025269 10.75806045532227 2.384185791015625e-06 8.149499893188477 2.384185791015625e-06 5.25 C 2.384185791015625e-06 2.350500106811523 -0.2132576704025269 0.6723604202270508 0.2009623050689697 0.6723604202270508 Z"/>
            </g>
          </g>
          <path id="Path_160" data-name="Path 160" class="cls-55" d="M0,0,25.683,30.57,67,71" transform="translate(536.5 559.5)"/>
          <g id="Group_70" data-name="Group 70" transform="translate(-2 -4)">
            <path id="Path_154" data-name="Path 154" class="cls-56" d="M2,0H15a2,2,0,0,1,2,2v9a2,2,0,0,1-2,2H2a2,2,0,0,1-2-2V2A2,2,0,0,1,2,0Z" transform="translate(574 623)"/>
            <path id="Path_155" data-name="Path 155" class="cls-56" d="M.531-.141c.414,0,.969,2.491.969,5.391s-.476,5.813-.891,5.813S0,8.149,0,5.25.117-.141.531-.141Z" transform="translate(590 624)"/>
            <path id="Path_156" data-name="Path 156" class="cls-57" d="M.25.394C.664.394,1.5,2.351,1.5,5.25S.664,10.792.25,10.792,0,8.149,0,5.25-.164.394.25.394Z" transform="translate(574 624)"/>
          </g>
          <g id="Group_72" data-name="Group 72" transform="translate(-1 1)">
            <rect id="Rectangle_89" data-name="Rectangle 89" class="cls-58" width="17" height="13" rx="2" transform="translate(536 579)"/>
            <path id="Path_158" data-name="Path 158" class="cls-58" d="M.661.174c.69,0,1.071,2.03,1.071,5.067S1.394,11.265.7,11.265,0,8.538,0,5.5-.029.174.661.174Z" transform="translate(551.707 580)"/>
            <path id="Path_159" data-name="Path 159" class="cls-59" d="M.2.672c.414,0,1.3,1.678,1.3,4.578S.615,10.758.2,10.758,0,8.149,0,5.25-.213.672.2.672Z" transform="translate(536 580)"/>
          </g>
          <g id="Rectangle_94" data-name="Rectangle 94" class="cls-60" transform="translate(576 629)">
            <rect class="cls-90" width="15" height="1.5"/>
            <rect class="cls-93" x="0.5" y="0.5" width="14" height="0.5"/>
          </g>
          <g id="Rectangle_93" data-name="Rectangle 93" class="cls-61" transform="translate(539 590)">
            <rect class="cls-90" width="15" height="1.5"/>
            <rect class="cls-93" x="0.5" y="0.5" width="14" height="0.5"/>
          </g>
          <path id="Path_142" data-name="Path 142" class="cls-55" d="M0,0,31.558,37.878,70,77" transform="translate(523.5 556.5)"/>
          <g id="Group_66" data-name="Group 66">
            <line id="Line_107-2" data-name="Line 107" class="cls-49" y2="56" transform="translate(593.5 626.5)"/>
            <line id="Line_108" data-name="Line 108" class="cls-49" y2="56" transform="translate(603.5 622.5)"/>
            <line id="Line_103-2" data-name="Line 103" class="cls-50" y2="51" transform="translate(593.5 638.5)"/>
            <line id="Line_104-2" data-name="Line 104" class="cls-50" y2="51" transform="translate(603.5 634.5)"/>
          </g>
          <path id="Path_140" data-name="Path 140" class="cls-16" d="M13.079,18.483c8.638,0,15.306,7.913,14.073,8.112-2.636.427-8.148,0-14.073,0-5.641,0-12.284.17-15.057,0-1.441-.088-.584,1.65-.584-.372C-2.561,20.4,4.441,18.483,13.079,18.483Z" transform="translate(588.029 664.293)"/>
          <g id="Group_73" data-name="Group 73" transform="translate(-56 -24)">
            <path id="Path_147" data-name="Path 147" class="cls-62" d="M2.386,2.894,18.121,51.446" transform="translate(850.312 662.343)"/>
            <path id="Path_146" data-name="Path 146" class="cls-62" d="M15.8,4.319,0,54.582" transform="translate(881.5 660.918)"/>
            <path id="Path_205" data-name="Path 205" class="cls-63" d="M4,0H16a4,4,0,0,1,4,4,133.838,133.838,0,0,1-4,14H4L0,4A4,4,0,0,1,4,0Z" transform="translate(865 711)"/>
            <g id="Group_68" data-name="Group 68" transform="translate(1778 1379.061) rotate(-180)">
              <path id="Path_144" data-name="Path 144" class="cls-64" d="M26.726-24.276C41.361-24.276,53,7.032,53,20.149S41.361,37.284,26.726,37.284,0,33.265,0,20.149,12.09-24.276,26.726-24.276Z" transform="translate(876 707.214)"/>
              <path id="Path_145" data-name="Path 145" class="cls-65" d="M14.408-24.3C22.692-24.3,30-2.066,30,7.168s-5.783,9.293-14.068,9.293S0,16.4,0,7.168,6.123-24.3,14.408-24.3Z" transform="translate(887.672 722.1)"/>
              <path id="Path_172" data-name="Path 172" class="cls-66" d="M4.8-24.3C7.564-24.3,10-5.208,10,2.722S8.072,10.7,5.311,10.7,0,10.652,0,2.722,2.041-24.3,4.8-24.3Z" transform="translate(897.672 725.1)"/>
            </g>
          </g>
          <g id="Group_78" data-name="Group 78" transform="translate(9 -3)">
            <path id="Path_162" data-name="Path 162" class="cls-67" d="M28.6,0C44.457,0,57.38,3.8,57.38,7.667S44.457,14,28.6,14,.076,10.974.076,7.108,12.75,0,28.6,0Z" transform="translate(887.078 746)"/>
            <path id="Path_163" data-name="Path 163" class="cls-67" d="M9.469,0H48.531C53.76,0,58,1.589,58,6.008V13c0,4.418-4.24,8-9.469,8H9.469C4.24,21,0,17.418,0,13V6.008C0,1.589,4.24,0,9.469,0Z" transform="translate(886.672 749)"/>
            <path id="Path_170" data-name="Path 170" class="cls-68" d="M882.122,751.88c4.937,6.6,36.089,4.737,47.618,3.81,2.225-.179,5.93-.571,7.641-1.461" transform="translate(5.333 2.207)"/>
            <path id="Path_171" data-name="Path 171" class="cls-68" d="M881.818,750.483c1.222,1.927,3.009,4.975,7.019,5.874,13.879,1.25,32.757,1.365,41.5.535a10.905,10.905,0,0,0,5.274-1.816" transform="translate(5 13)"/>
          </g>
          <path id="Path_164" data-name="Path 164" class="cls-69" d="M0-6.553V15.489" transform="translate(920.5 725.5)"/>
          <g id="Group_74" data-name="Group 74" transform="translate(911.126 729.639)">
            <path id="Path_167" data-name="Path 167" class="cls-70" d="M6.84,12.309c2.361.753,5.451-3.328,3.9-7.236S6.12-.422,2.563.095A3.527,3.527,0,0,0,.2,1.605C-1.171,5.926,4.855,5.366,4.855,7.471,4.855,10.85,4.478,11.556,6.84,12.309Z" transform="translate(16.185 10.28) rotate(146)"/>
            <path id="Path_168" data-name="Path 168" class="cls-71" d="M0,0c3.26.15,3,2.344,3,2.344" transform="translate(10.311 9.242) rotate(160)"/>
          </g>
          <line id="Line_112" data-name="Line 112" class="cls-72" y2="34" transform="translate(924.5 715.5)"/>
          <line id="Line_113" data-name="Line 113" class="cls-69" y2="25" transform="translate(907.5 720.5)"/>
          <line id="Line_114" data-name="Line 114" class="cls-69" y2="25" transform="translate(933.5 720.5)"/>
          <line id="Line_115" data-name="Line 115" class="cls-69" y2="20" transform="translate(946.5 721.5)"/>
          <g id="Path_161" data-name="Path 161" class="cls-73" transform="matrix(0.985, -0.174, 0.174, 0.985, 872.674, 693.739)">
            <path class="cls-90" d="M 63.90206146240234 42.60451507568359 C 59.26028060913086 42.60451507568359 50.96256256103516 41.77535629272461 42.88858032226563 39.92296600341797 C 36.16152954101563 38.37959671020508 27.30108070373535 35.58909606933594 23.2921199798584 31.05977630615234 C 21.69674110412598 29.25731658935547 21.01466178894043 27.30662536621094 21.26482009887695 25.26189613342285 L 21.26575088500977 25.2542552947998 L 21.26645088195801 25.24658584594727 C 21.44760131835938 23.26047515869141 23.81855010986328 20.68108558654785 28.31344032287598 17.58005523681641 C 32.17877197265625 14.91337585449219 36.86949157714844 12.38792610168457 39.97344970703125 10.7167854309082 C 43.1150016784668 9.025395393371582 43.80755233764648 8.628385543823242 44.00350189208984 8.266765594482422 C 44.0930290222168 8.102275848388672 44.09408950805664 7.906476020812988 44.00588989257813 7.743825912475586 C 43.83161163330078 7.422455787658691 43.47808074951172 7.394635677337646 42.77376174926758 7.339195728302002 C 42.00884246826172 7.278995990753174 40.58502960205078 7.166945934295654 40.25923156738281 6.61534595489502 C 40.15129470825195 6.432609558105469 40.17131423950195 6.164968967437744 40.31863403320313 5.819236755371094 C 40.4364128112793 5.678932666778564 40.99465560913086 5.070411205291748 42.2752799987793 4.46673583984375 C 43.63401031494141 3.826235771179199 46.10013198852539 3.062735795974731 50.13265991210938 3.062735795974731 C 52.35330200195313 3.062735795974731 55.07955169677734 4.131555557250977 58.01668167114258 6.15363597869873 C 60.80900955200195 8.076035499572754 63.68360137939453 10.77330589294434 66.32970428466797 13.95383548736572 C 68.98454284667969 17.14486503601074 71.23538970947266 20.61418533325195 72.83892059326172 23.98674583435059 C 74.54428100585938 27.57344627380371 75.4456787109375 30.92821502685547 75.4456787109375 33.6883659362793 C 75.4456787109375 36.42850494384766 74.57848358154297 38.57339477539063 72.86817169189453 40.06342697143555 C 70.93276977539063 41.74956512451172 67.91613006591797 42.60451507568359 63.90206146240234 42.60451507568359 Z"/>
            <path class="cls-98" d="M 50.13265228271484 3.562736511230469 C 46.26231384277344 3.562736511230469 43.89138031005859 4.276157379150391 42.58396148681641 4.874645233154297 C 41.46036529541016 5.388980865478516 40.91810607910156 5.905380249023438 40.75008392333984 6.086330413818359 C 40.68354034423828 6.263763427734375 40.68939208984375 6.346767425537109 40.69167327880859 6.363613128662109 C 40.70811462402344 6.384185791015625 40.83546447753906 6.523265838623047 41.34210205078125 6.647216796875 C 41.81072235107422 6.761867523193359 42.36644744873047 6.805595397949219 42.81298065185547 6.840744018554688 C 43.58432769775391 6.901447296142578 44.14163970947266 6.945304870605469 44.44541931152344 7.505474090576172 C 44.61470031738281 7.817646026611328 44.61351013183594 8.19189453125 44.44310760498047 8.504974365234375 C 44.17694091796875 8.996185302734375 43.61154174804688 9.325923919677734 40.21047210693359 11.15703582763672 C 37.11617279052734 12.82297515869141 32.44003295898438 15.340576171875 28.59737396240234 17.99161529541016 C 23.15789031982422 21.74431610107422 21.87921142578125 24.03291511535645 21.76438140869141 25.29200553894043 L 21.7611083984375 25.32261657714844 C 21.52583312988281 27.24574661254883 22.14909362792969 29.01399612426758 23.66651916503906 30.72838592529297 C 25.30943298339844 32.58454513549805 27.97126770019531 34.31117630004883 31.57809448242188 35.86031341552734 C 34.74445343017578 37.22027587890625 38.58746337890625 38.42318725585938 43.00038909912109 39.43562698364258 C 51.03625106811523 41.27927398681641 59.28845977783203 42.10451507568359 63.90206146240234 42.10451507568359 C 67.79188537597656 42.10451507568359 70.69801330566406 41.29095458984375 72.53973388671875 39.68642425537109 C 74.13619995117188 38.29557418823242 74.9456787109375 36.27753448486328 74.9456787109375 33.6883659362793 C 74.9456787109375 28.38578605651855 71.4969482421875 20.94648551940918 65.94532775878906 14.27361488342285 C 63.32806015014648 11.12774658203125 60.48834228515625 8.462314605712891 57.73313903808594 6.565475463867188 C 54.87979125976563 4.601066589355469 52.25157928466797 3.562736511230469 50.13265228271484 3.562736511230469 M 50.13265228271484 2.562736511230469 C 64.39205169677734 2.562736511230469 91.80705261230469 43.10451507568359 63.90206146240234 43.10451507568359 C 52.77664947509766 43.10451507568359 19.17108917236328 38.2580451965332 20.76850891113281 25.20117568969727 C 21.37476348876953 18.55405616760254 43.00067901611328 9.067935943603516 43.56388854980469 8.028556823730469 C 43.79585266113281 7.602375030517578 38.63471221923828 8.324077606201172 39.8863525390625 5.560226440429688 C 39.8863525390625 5.560226440429688 42.01055145263672 2.562736511230469 50.13265228271484 2.562736511230469 Z"/>
          </g>
          <g id="Group_75" data-name="Group 75" transform="translate(938.126 732.639)">
            <path id="Path_167-2" data-name="Path 167" class="cls-74" d="M6.84,12.309c2.361.753,5.451-3.328,3.9-7.236S6.12-.422,2.563.095A3.527,3.527,0,0,0,.2,1.605C-1.171,5.926,4.855,5.366,4.855,7.471,4.855,10.85,4.478,11.556,6.84,12.309Z" transform="translate(16.185 10.28) rotate(146)"/>
            <path id="Path_168-2" data-name="Path 168" class="cls-75" d="M0,0c3.26.15,3,2.344,3,2.344" transform="translate(10.311 9.242) rotate(160)"/>
          </g>
          <g id="Group_77" data-name="Group 77" transform="translate(899.126 733.639)">
            <path id="Path_167-3" data-name="Path 167" class="cls-76" d="M6.84.09c2.361-.753,5.451,3.328,3.9,7.236s-4.62,5.5-8.178,4.979A3.527,3.527,0,0,1,.2,10.794C-1.171,6.474,4.855,7.034,4.855,4.928,4.855,1.549,4.478.843,6.84.09Z" transform="translate(6.934 0) rotate(34)"/>
            <path id="Path_168-3" data-name="Path 168" class="cls-77" d="M0,2.344C3.26,2.193,3,0,3,0" transform="translate(6.676 7.04) rotate(20)"/>
          </g>
          <path id="Path_169" data-name="Path 169" class="cls-78" d="M4.633,2.414c2.286,0,4.037-1.627,4.037-.4S6.919,4.431,4.633,4.431.594,3.234.594,2.01,2.347,2.414,4.633,2.414Z" transform="translate(919.906 747.569)"/>
          <g id="Ellipse_164" data-name="Ellipse 164" class="cls-79" transform="matrix(0.996, 0.087, -0.087, 0.996, 929.014, 750.3)">
            <ellipse class="cls-90" cx="1.75" cy="0.25" rx="1.75" ry="0.25"/>
            <ellipse class="cls-93" cx="1.75" cy="0.25" rx="1.25" ry="0.25"/>
          </g>
          <g id="Group_76" data-name="Group 76" transform="translate(926.126 737.639)">
            <path id="Path_167-4" data-name="Path 167" class="cls-80" d="M6.84.09c2.361-.753,5.451,3.328,3.9,7.236s-4.62,5.5-8.178,4.979A3.527,3.527,0,0,1,.2,10.794C-1.171,6.474,4.855,7.034,4.855,4.928,4.855,1.549,4.478.843,6.84.09Z" transform="translate(6.934 0) rotate(34)"/>
            <path id="Path_168-4" data-name="Path 168" class="cls-81" d="M0,2.344C3.26,2.193,3,0,3,0" transform="translate(6.676 7.04) rotate(20)"/>
          </g>
          <g id="Ellipse_162" data-name="Ellipse 162" class="cls-79" transform="translate(917.039 747.794) rotate(8)">
            <ellipse class="cls-90" cx="2" cy="0.25" rx="2" ry="0.25"/>
            <ellipse class="cls-93" cx="2" cy="0.25" rx="1.5" ry="0.25"/>
          </g>
          <g id="Ellipse_163" data-name="Ellipse 163" class="cls-79" transform="translate(919.048 751.796) rotate(-18)">
            <ellipse class="cls-90" cx="1.5" cy="0.25" rx="1.5" ry="0.25"/>
            <ellipse class="cls-93" cx="1.5" cy="0.25" rx="1" ry="0.25"/>
          </g>
          <g id="Group_79" data-name="Group 79">
            <path id="Path_173" data-name="Path 173" class="cls-82" d="M2,0,4,5H0Z" transform="matrix(0.883, -0.469, 0.469, 0.883, 856.3, 564.348)"/>
            <path id="Polygon_19" data-name="Polygon 19" class="cls-82" d="M2.5,0,5,6H0Z" transform="translate(859.363 562.295) rotate(-5)"/>
            <path id="Path_174" data-name="Path 174" class="cls-82" d="M2,0,4,5H0Z" transform="matrix(0.961, 0.276, -0.276, 0.961, 864.297, 562.663)"/>
            <g id="Group_69" data-name="Group 69" transform="translate(12 -75)">
              <line id="Line_110" data-name="Line 110" class="cls-83" x1="4" y2="17" transform="translate(856.5 659.5)"/>
              <path id="Path_175" data-name="Path 175" class="cls-84" d="M10.983,1.31C17.611,1.31,23.2,5.592,23.2,11.944S18.627,23,12,23A11.758,11.758,0,0,1,0,11.5C0,5.149,4.356,1.31,10.983,1.31Z" transform="translate(840 641)"/>
              <line id="Line_111" data-name="Line 111" class="cls-83" x2="4" y2="17" transform="translate(841.5 659.5)"/>
              <path id="Path_151" data-name="Path 151" class="cls-85" d="M1,0H15c.552,0,1,.276,1,.617L13.931,9.874c0,.341-12.057.341-12.057,0L0,.617C0,.276.448,0,1,0Z" transform="translate(843 673)"/>
              <ellipse id="Ellipse_161" data-name="Ellipse 161" class="cls-86" cx="11.5" cy="10.5" rx="11.5" ry="10.5" transform="translate(839 643)"/>
            </g>
          </g>
          <path id="Path_203" data-name="Path 203" class="cls-13" d="M3.6,0c1.99,0,3.6,4,3.6,8.931,0,1.263.195-.223,0,0-.55.629-2.122.832-3.6.832-1.287,0-3.6.909-3.6-.832C0,4,1.613,0,3.6,0Z" transform="matrix(0.995, -0.105, 0.105, 0.995, 888.497, 756.408)"/>
          <ellipse id="Ellipse_165" data-name="Ellipse 165" class="cls-87" cx="30" cy="11.5" rx="30" ry="11.5" transform="translate(742 526)"/>
          <ellipse id="Ellipse_166" data-name="Ellipse 166" class="cls-87" cx="50" cy="14.5" rx="50" ry="14.5" transform="translate(720 539)"/>
          <ellipse id="Ellipse_167" data-name="Ellipse 167" class="cls-87" cx="42.5" cy="13" rx="42.5" ry="13" transform="translate(728 533)"/>
          <path id="Path_207" data-name="Path 207" class="cls-87" d="M12.026,5.928C9.017-4.6,21.423,1.989,22.771,3.876L32.9,19.775c1.955,2.736.4,7.079-2.528,7.079H7.1c-2.932,0-4.483-4.343-2.528-7.079Z" transform="translate(750 508.146)"/>
          <path id="Path_208" data-name="Path 208" class="cls-88" d="M50,0c27.614,0,50.827,7.482,50.827,15.49S77.614,29,50,29,0,22.508,0,14.5,22.386,0,50,0Z" transform="translate(714 540)"/>
          <ellipse id="Ellipse_168" data-name="Ellipse 168" class="cls-88" cx="42.5" cy="12" rx="42.5" ry="12" transform="translate(724 534)"/>
          <path id="Path_209" data-name="Path 209" class="cls-88" d="M29,0C45.016,0,58,4.7,58,10.5S45.016,21,29,21-5.941,16.3-5.941,10.5,12.984,0,29,0Z" transform="translate(739 527)"/>
          <path id="Path_210" data-name="Path 210" class="cls-88" d="M13,5.54c-3.362-9.826,10.5-3.677,12-1.916L36.323,18.465A3.986,3.986,0,0,1,33.5,25.072H7.5a3.986,3.986,0,0,1-2.824-6.607Z" transform="translate(744 508.927)"/>
          <path id="Path_258" data-name="Path 258" class="cls-2" d="M487.943,74.685A4146.057,4146.057,0,0,0,975.862,45.469c.013,2.322.042,5.737.029,6.531,0,8.7-7.434,94.031-39.209,117.8-67.722,48.487-301.653,72.494-521.045,65.877-160.428-4.838-361.357-27.41-436-67.289-30.964-12.855-43.065-86.029-43.065-94.128,0-2.441-2.46-18.07-2.461-24.609C-32.727,53.107,241.363,74.685,487.943,74.685Z" transform="translate(206.109 781)"/>
        </g>
      </g>
      <path id="Path_263" data-name="Path 263" class="cls-89" d="M0,0V550.94" transform="translate(973.5 720.273)"/>
    </g>
    <path id="Path_264" data-name="Path 264" class="cls-1" d="M73.77,0c39.353,0,71.62,6.954,71.62,12.753a4.5,4.5,0,0,1-1.349,2.16C138.806,20.113,109.424,21,73.77,21,34.418,21,3.4,18.552,3.4,12.753S34.418,0,73.77,0Z" transform="translate(942.87 1051)"/>
  </g>
</svg>
