<svg xmlns="http://www.w3.org/2000/svg" viewBox="0 0 1048.34 552"><defs><style>.cls-1{fill:#9f8e87;}.cls-2{fill:#52414c;}.cls-3{fill:#916451;}.cls-4{fill:#efa458;}.cls-5{fill:#efe68f;}.cls-6{fill:#efbc8f;}.cls-7{fill:#f7f8d2;}.cls-8{fill:#564138;}.cls-9{fill:#e8a594;}.cls-10{fill:#f7af9d;}.cls-11{fill:#63cf73;}.cls-12{fill:#c5efcb;}.cls-13{fill:#372b2b;}.cls-14{fill:#eed17c;}.cls-15{fill:#f7e3af;}.cls-16{fill:#f23f3f;}.cls-17{fill:#d67d23;}.cls-18{fill:#f3eebb;}.cls-19{fill:#fff;}</style></defs><g id="Layer_2" data-name="Layer 2"><g id="Layer_1-2" data-name="Layer 1"><g id="Group_152" data-name="Group 152"><path id="Path_274" data-name="Path 274" class="cls-1" d="M810.05,552H258c-13.86,0-24.5-1-24.5-16s10.64-38.3,24.5-38.3l262.55-10.18,289.54,10.18c13.86,0,23.53,23.29,23.53,38.3S823.91,552,810.05,552Z"/><path id="Path_276" data-name="Path 276" class="cls-1" d="M531.05,357.14c290.77,0,517.29-55.51,517.29-25,0,9.25-4.13,98-36.51,126.06-126.42,89.19-766,107.81-970.28-3.47C8.14,441.09,0,340.77,0,332.17,0,301.63,240.28,357.14,531.05,357.14Z"/></g><g id="Group_151" data-name="Group 151"><path id="Path_275" data-name="Path 275" class="cls-2" d="M812.53,546.83h-550c-13.8,0-24.41-1-24.41-14.77s10.61-35.23,24.41-35.23l259.74,20,290.26-20c13.81,0,23.45,21.43,23.45,35.23S826.34,546.83,812.53,546.83Z"/><path id="Path_73" data-name="Path 73" class="cls-3" d="M324.39,11.6c96.1,0,174,131.2,174,217.1s-77.9,92.5-174,92.5-174-6.6-174-92.5S228.29,11.6,324.39,11.6Z"/><path id="Path_77" data-name="Path 77" class="cls-4" d="M326.89,0c38.2,0,84.5,38.8,92.4,57.2.7,1.7-12.6-2.2-12.7-1.6-.8,5.6-14.3,3.5-25.3,7.1-13.5,4.3-3.5,18.4-13.5,22.5-1,.4-3.5-.9-6.3-2.4l-1.8-.9c-.3-.2-.6-.7-1.2-.7-3-2.2-18.3-16-24.9-12.9-7,3.3-14,16.9-22.5,16.2-8.9-.7-7.2-20.1-16.5-22.5-4-1-10.4,1.6-17.2,4.8-7.3,3.5-15.2,7.6-20.1,7.5a23.24,23.24,0,0,1-11.7-3.3c-1.2-.7-2.3-3.6-4-4.2-7.5-2.9-24.7,2.8-24.4,1.6a24.22,24.22,0,0,1,2.9-5.8C233.39,42.3,290.29,0,326.89,0Z"/><path id="Path_62" data-name="Path 62" class="cls-5" d="M638.49,50.8c96.1,0,176.9,108.1,176.9,187.4s-72.6,82.3-168.7,82.3-179.3-3-179.3-82.3c0-69.3,57.3-160.5,136.1-182.6,1-.3,2-.5,3.1-.8a124.83,124.83,0,0,1,27.2-3.9C635.09,50.8,636.79,50.8,638.49,50.8Z"/><path id="Path_212" data-name="Path 212" class="cls-6" d="M643.19,41.1c38.2.7,114.8,59.7,122.4,78.2.7,1.7-37.8-34-37.3-24.7-.9,5.6,27.5,22.9,15.5,37.5-13.7-23.7-59-17.9-64.5-15.4-7.1,3.2-21.9,78.7-30.4,77.9-8.9-.9-16.5-91.6-25.8-94.2-18.4-5.5-35.5,55.5-42.4,58.6-7.4,3.3,1.5-28.5-3.4-28.7-4.7-.2-1.6-17.4-4.8-19.4-1.1-.7-2.3-3.6-4-4.3-5.1-2.1-8.8-7.4-23.6-7.5-6.3,0-18.4,12.3-28.2,6.6,1.1-4.7,20.9-21.2,33.5-28.8C578.19,60,624.69,40.8,643.19,41.1Z"/><path id="Path_63" data-name="Path 63" class="cls-7" d="M613.39,50.8c94.7,0,174.3,108.1,174.3,187.4s-71.5,82.3-166.2,82.3-200-3-200-82.3c0-69.3,79.7-160.5,157.4-182.6,1-.3,2-.5,3-.8a121.27,121.27,0,0,1,26.8-3.9C610,50.8,611.69,50.8,613.39,50.8Z"/><path id="Path_30" data-name="Path 30" class="cls-8" d="M346.39,12.6c96.1,0,174,131.2,174,217.1s-77.9,92.5-174,92.5-174-6.6-174-92.5S250.29,12.6,346.39,12.6Z"/><path id="Path_72" data-name="Path 72" class="cls-9" d="M837.72,176.4c100.89,0,182.67,77.5,182.67,173,0,10.7-113.91,3.9-189,3.9-47,0-140.26.1-176.38-3.9-13.65-1.5,0,9.4,0,0C655,253.8,736.83,176.4,837.72,176.4Z"/><path id="Path_28" data-name="Path 28" class="cls-10" d="M827.39,180.4c96.1,0,174.2,77.5,174.2,173,0,4.6-116.2,11.2-174.2,11.2-45.8,0-174-11.2-174-11.2h0C653.39,257.8,731.29,180.4,827.39,180.4Z"/><g id="Group_47" data-name="Group 47"><path id="Path_29" data-name="Path 29" class="cls-11" d="M505.83,178.4c102.06,0,184.92,76.8,185.56,172.1v7c0,3.6-9.92,4-16.1,5.3-31.25,7-99.08-5.3-169.46-5.3-67,0-145.79,2.8-178.64,0-17.06-1.5-6.93,27.1-6.93-6.1C320.26,255.8,403.34,178.4,505.83,178.4Z"/></g><g id="Group_34" data-name="Group 34"><path id="Path_29-2" data-name="Path 29-2" class="cls-12" d="M500.39,179.4c96.1,0,173.3,81.2,173.3,176.8v7.5c-12.7,6.5-111.9,7.3-173.3,7.3-62.8,0-174,14.6-174-18.6C326.39,256.8,404.29,179.4,500.39,179.4Z"/></g><rect id="Rectangle_82" data-name="Rectangle 82" class="cls-13" x="348.99" y="282.5" width="20" height="3" transform="translate(-95.95 233.43) rotate(-32.01)"/><path id="Path_75" data-name="Path 75" class="cls-14" d="M196.5,213.4c103.11,0,186.75,57.3,186.75,128,0,25.7,2.81,25.6-16.46,26.2-33.12,1.1-104.67,2.3-170.29,2.3-41.14,0-185.91,12.9-185.91-3.7C10.59,295.5,93.39,213.4,196.5,213.4Z"/><path id="Path_256" data-name="Path 256" class="cls-15" d="M204.09,221.4c99,0,179.3,53.7,179.3,119.9,0,24.1,0,31.1-18.6,31.6-31.8,1-97.7,0-160.7,0-39.5,0-180.5,12-180.5-3.6C23.59,303.2,105.09,221.4,204.09,221.4Z"/><rect id="Rectangle_83" data-name="Rectangle 83" class="cls-13" x="409.63" y="233.42" width="3" height="20" transform="translate(47.11 552.89) rotate(-71)"/><rect id="Rectangle_87" data-name="Rectangle 87" class="cls-13" x="430.83" y="277.9" width="20" height="3" transform="translate(-66.98 158.87) rotate(-19.01)"/><path id="Path_211" data-name="Path 211" class="cls-16" d="M616.89,43.1c38.2,0,115.9,57.7,123.7,76,.7,1.7-38.4-33.3-37.7-24-.8,5.6-16.3-7.5-12.6,26.9,0,0-27.7-4.7-37.5-11.9-21.1-9.2-18.1,47.6-26.6,46.9-8.9-.7-19.1-51.8-28.4-54.1-18.5-5.2-34.5,56.1-41.4,59.3-7.3,3.5,1-28.5-3.9-28.7-4.7-.1-1.9-17.4-5.1-19.3-1.2-.7-2.3-6-5.4-4,0,0-12.1,9.9-16.6,19.9s-10.9,12.7-10.9,12.7c-9.6,5.1,19.7-40.1,5.2-39.9-6.3.1-18.2,12.6-28.1,7.1,1-4.7,20.5-21.5,33-29.3C552.19,63.1,598.39,43.1,616.89,43.1Z"/><rect id="Rectangle_88" data-name="Rectangle 88" class="cls-13" x="625.71" y="242.45" width="3" height="20" transform="translate(184.29 763.28) rotate(-71)"/><rect id="Rectangle_84" data-name="Rectangle 84" class="cls-13" x="586.99" y="278.5" width="20" height="3" transform="translate(-57.66 358.97) rotate(-32.01)"/><rect id="Rectangle_85" data-name="Rectangle 85" class="cls-13" x="520.84" y="274.1" width="3" height="20" transform="matrix(0.31, -0.95, 0.95, 0.31, 90.75, 693.1)"/><path id="Path_56" data-name="Path 56" class="cls-17" d="M337.89.1c38.2,0,96.5,38.8,104.4,57.1.7,1.7-19-14.4-18.4-5.1-.8,5.6-8.5,7.1-19.6,10.6-13.5,4.3-3.5,18.4-13.5,22.5-1,.4-3.5-.9-6.3-2.4l-1.8-.9c-.3-.2-.6-.7-1.2-.7-3-2.2-18.3-16-24.9-12.9-7,3.3-14,16.9-22.5,16.2-8.9-.7-7.2-20.1-16.5-22.5-4-1-10.4,1.6-17.2,4.8-7.3,3.5-15.2,7.6-20.1,7.5a23.24,23.24,0,0,1-11.7-3.3c-1.2-.7-2.3-3.6-4-4.2-7.5-2.9-23.8,1.1-23.5,0C245.59,49.7,297.59.1,337.89.1Z"/><rect id="Rectangle_86" data-name="Rectangle 86" class="cls-13" x="457.55" y="197.91" width="20" height="3" transform="translate(-23.21 67.02) rotate(-8)"/><ellipse id="Ellipse_165" data-name="Ellipse 165" class="cls-18" cx="630.39" cy="42.9" rx="30" ry="11.5"/><ellipse id="Ellipse_166" data-name="Ellipse 166" class="cls-18" cx="628.39" cy="58.9" rx="50" ry="14.5"/><ellipse id="Ellipse_167" data-name="Ellipse 167" class="cls-18" cx="628.89" cy="51.4" rx="42.5" ry="13"/><path id="Path_207" data-name="Path 207" class="cls-18" d="M620.39,19.4c-3-10.5,9.4-3.9,10.7-2.1l10.1,15.9c2,2.7.4,7.1-2.5,7.1h-23.3c-2.9,0-4.5-4.3-2.5-7.1Z"/><path id="Path_208" data-name="Path 208" class="cls-19" d="M622.39,45.4c27.6,0,50.8,7.5,50.8,15.5S650,74.4,622.39,74.4s-50-6.5-50-14.5S594.79,45.4,622.39,45.4Z"/><ellipse id="Ellipse_168" data-name="Ellipse 168" class="cls-19" cx="624.89" cy="51.4" rx="42.5" ry="12"/><path id="Path_209" data-name="Path 209" class="cls-19" d="M626.39,32.4c16,0,29,4.7,29,10.5s-13,10.5-29,10.5-34.9-4.7-34.9-10.5S610.39,32.4,626.39,32.4Z"/><path id="Path_210" data-name="Path 210" class="cls-19" d="M615.39,19.8c-3.4-9.8,10.5-3.7,12-1.9l11.3,14.8a4,4,0,0,1-.4,5.6,4.29,4.29,0,0,1-2.4,1h-26a4,4,0,0,1-3.8-4.2,3.49,3.49,0,0,1,1-2.4Z"/><path id="Path_278" data-name="Path 278" class="cls-1" d="M527.7,386.55c290.77,0,477.92,19.1,484.32,64.44-58.13,68.42-483.4,98.44-752.77,63.14-96.87-12.69-153.8-56.8-205.71-80.81C137.3,437.72,236.93,386.55,527.7,386.55Z"/><path id="Path_277" data-name="Path 277" class="cls-2" d="M557.88,361.62a4061.76,4061.76,0,0,0,486.66-29.68c0,2.36,0,5.83,0,6.64,0,8.84-7.42,95.51-39.11,119.65-67.55,49.25-283.06,65.4-447.58,68.08-159.17-.67-384.09-2.71-509.81-72.94C17.18,440.31,7,353.1,5.47,344.17c-.2-2.66,0-1.34,0-8C38.55,339.7,311.94,361.62,557.88,361.62Z"/><rect id="Rectangle_84-2" data-name="Rectangle 84" class="cls-13" x="527.05" y="205.33" width="20" height="3" transform="translate(3.18 421.74) rotate(-42.99)"/><rect id="Rectangle_88-2" data-name="Rectangle 88" class="cls-13" x="482.43" y="233.42" width="3" height="20" transform="translate(-57.02 272.02) rotate(-29.73)"/><rect id="Rectangle_84-3" data-name="Rectangle 84" class="cls-13" x="555.82" y="237.25" width="20" height="3" transform="translate(-24.98 406.4) rotate(-38.72)"/></g></g></g></svg>