<?xml version="1.0" standalone="no"?>
<!DOCTYPE svg PUBLIC "-//W3C//DTD SVG 20010904//EN"
 "http://www.w3.org/TR/2001/REC-SVG-20010904/DTD/svg10.dtd">
<svg version="1.0" xmlns="http://www.w3.org/2000/svg"
 width="1048.000000pt" height="1048.000000pt" viewBox="0 0 1048.000000 1048.000000"
 preserveAspectRatio="xMidYMid meet">
<metadata>
Created by potrace 1.11, written by Peter Selinger 2001-2013
</metadata>
<g transform="translate(0.000000,1048.000000) scale(0.100000,-0.100000)"
fill="#000000" stroke="none">
<path d="M4746 9342 c-3 -2 -47 -6 -98 -8 -51 -2 -120 -6 -153 -9 -33 -3 -91
-7 -130 -9 -38 -3 -84 -8 -100 -11 -17 -3 -59 -7 -95 -10 -59 -5 -97 -10 -110
-15 -3 -1 -9 -2 -14 -1 -7 2 -57 -5 -191 -25 -16 -3 -43 -7 -60 -9 -51 -7 -99
-15 -125 -21 -14 -3 -36 -8 -50 -10 -14 -2 -36 -7 -50 -11 -14 -3 -28 -6 -32
-5 -4 1 -47 -8 -95 -19 -48 -12 -97 -23 -108 -25 -11 -2 -72 -17 -135 -34 -63
-17 -124 -33 -135 -35 -11 -2 -54 -16 -95 -30 -41 -14 -77 -25 -80 -25 -8 0
-74 -22 -85 -29 -5 -3 -16 -6 -22 -7 -22 -4 -257 -96 -270 -107 -7 -5 -13 -6
-13 -2 0 4 -11 0 -25 -9 -13 -9 -31 -16 -40 -16 -8 0 -15 -5 -15 -10 0 -6 -3
-9 -7 -8 -5 1 -30 -9 -58 -22 -27 -13 -53 -23 -57 -22 -5 1 -8 -3 -8 -10 0 -6
-3 -8 -6 -5 -4 4 -19 -2 -34 -13 -16 -11 -35 -20 -43 -20 -8 0 -20 -7 -27 -15
-7 -8 -21 -15 -30 -15 -10 0 -20 -4 -22 -8 -1 -4 -34 -25 -73 -47 -145 -80
-443 -282 -507 -344 -9 -9 -33 -29 -53 -46 -180 -147 -439 -426 -566 -610 -19
-27 -38 -54 -42 -60 -4 -5 -30 -44 -57 -85 -28 -41 -54 -80 -60 -87 -5 -7 -10
-15 -10 -19 0 -3 -19 -39 -43 -78 -23 -39 -56 -98 -72 -131 -17 -33 -36 -65
-42 -73 -7 -7 -13 -17 -13 -22 0 -5 -18 -47 -39 -94 -42 -89 -152 -359 -155
-379 -1 -7 -4 -16 -7 -22 -7 -12 -21 -68 -19 -74 1 -2 -2 -7 -7 -10 -5 -3 -22
-51 -37 -106 -15 -55 -31 -111 -37 -125 -5 -14 -11 -35 -14 -48 -2 -12 -13
-55 -24 -95 -10 -40 -29 -117 -41 -172 -12 -55 -24 -109 -26 -120 -3 -11 -7
-33 -9 -49 -2 -15 -7 -38 -11 -50 -4 -11 -8 -34 -9 -51 -1 -16 -5 -41 -9 -55
-3 -14 -8 -41 -11 -60 -2 -19 -6 -46 -9 -60 -8 -40 -28 -195 -41 -305 -3 -33
-8 -74 -11 -92 -3 -17 -7 -58 -9 -90 -2 -32 -5 -58 -5 -58 -4 0 -27 -314 -35
-470 -2 -49 -5 -90 -5 -90 -5 0 -11 -334 -14 -845 -5 -604 -4 -629 29 -815 4
-22 8 -49 10 -60 10 -65 34 -174 69 -326 24 -99 114 -317 141 -339 8 -7 15
-18 15 -24 0 -7 21 -35 48 -62 36 -38 78 -65 182 -116 74 -37 160 -76 190 -88
30 -12 69 -27 85 -35 17 -7 55 -22 85 -33 30 -11 73 -27 95 -35 22 -8 45 -16
50 -17 6 -1 21 -7 35 -12 14 -5 39 -12 55 -15 17 -3 35 -9 40 -13 6 -4 26 -11
45 -16 45 -10 38 -8 90 -24 25 -7 50 -14 55 -16 13 -3 209 -52 255 -64 58 -15
213 -49 254 -56 22 -3 50 -10 64 -15 14 -5 27 -7 29 -5 3 3 15 1 28 -4 13 -5
43 -11 66 -15 24 -3 58 -8 74 -12 17 -4 37 -7 45 -8 8 -2 47 -8 85 -14 39 -7
86 -14 105 -17 19 -2 42 -6 50 -9 8 -2 35 -7 60 -10 75 -9 103 -13 140 -19 34
-6 75 -11 150 -21 19 -3 55 -7 80 -9 25 -3 45 -5 45 -6 0 -1 18 -3 40 -5 22
-2 58 -6 80 -9 22 -4 65 -9 95 -12 30 -2 71 -6 90 -9 36 -5 146 -15 215 -21
22 -1 67 -5 100 -8 33 -3 96 -8 140 -11 44 -3 103 -8 130 -10 28 -2 97 -7 155
-10 58 -3 132 -8 165 -10 506 -36 1688 -41 2365 -10 176 8 297 15 370 20 41 3
102 7 135 10 80 5 207 14 275 21 30 3 75 7 100 9 70 5 182 15 216 20 17 2 64
7 105 10 41 4 85 9 99 10 38 5 119 15 175 21 28 4 61 8 75 9 14 2 40 6 57 9
18 3 54 8 80 11 27 3 59 7 73 10 14 2 45 7 70 10 25 3 70 10 100 15 30 5 73
12 95 15 61 9 95 15 150 25 28 5 68 13 90 16 22 3 43 8 46 9 3 2 28 7 55 11
27 3 53 8 57 11 5 3 23 7 40 10 18 2 70 14 117 25 47 11 95 21 106 24 44 8
220 55 244 64 14 5 34 11 45 13 11 2 27 6 35 9 8 3 56 18 105 33 50 16 96 33
104 39 8 6 16 10 18 8 14 -13 324 131 411 190 81 55 148 142 205 267 36 81 78
201 69 201 -3 0 -1 5 6 12 7 7 12 22 12 33 0 12 3 25 7 29 4 4 8 13 8 19 0 7
7 39 14 72 7 33 15 67 16 75 2 8 4 15 5 15 1 0 3 14 5 30 2 17 7 48 10 70 4
22 8 54 10 70 3 17 7 44 9 60 7 38 14 123 22 250 5 95 4 101 -18 125 -23 24
-23 28 -25 285 -2 365 -15 843 -28 1040 -10 151 -14 212 -20 270 -3 33 -7 94
-10 135 -3 41 -8 82 -10 90 -2 8 -7 44 -11 80 -11 106 -11 112 -19 175 -4 33
-9 69 -12 80 -6 28 -12 74 -17 120 -3 22 -7 47 -10 55 -3 8 -8 33 -11 55 -23
160 -76 396 -151 670 -3 11 -6 25 -8 30 -1 6 -9 30 -16 55 -7 25 -14 51 -16
57 -1 7 -10 34 -19 60 -18 49 -22 62 -24 76 0 4 -8 21 -16 37 -8 16 -15 31
-15 32 2 5 -11 41 -36 103 -13 33 -24 63 -24 66 0 4 -12 33 -27 65 -14 33 -27
64 -29 69 -3 16 -130 273 -174 354 -46 84 -141 244 -149 251 -13 11 -71 101
-71 109 0 5 -4 11 -8 13 -5 2 -22 23 -39 48 -17 25 -39 55 -49 67 -11 12 -28
34 -39 50 -11 15 -29 37 -40 48 -11 12 -33 39 -49 61 -29 38 -343 354 -382
384 -11 8 -44 35 -74 60 -30 25 -59 48 -65 53 -5 4 -32 24 -60 46 -75 57 -292
201 -304 201 -6 0 -11 5 -11 10 0 6 -4 10 -10 10 -5 0 -40 18 -76 41 -66 40
-338 174 -444 219 -30 13 -70 29 -89 37 -18 8 -65 26 -105 39 -39 14 -80 29
-91 33 -25 11 -144 52 -159 55 -6 2 -31 9 -56 16 -25 7 -49 14 -55 16 -5 1
-41 11 -80 23 -38 11 -79 22 -90 24 -11 2 -27 7 -35 10 -8 3 -28 8 -45 11 -42
9 -73 16 -120 27 -43 10 -72 16 -120 24 -16 3 -52 9 -80 15 -80 17 -98 20
-135 25 -58 8 -94 14 -120 19 -14 3 -46 8 -70 11 -100 12 -136 16 -160 19 -59
8 -199 20 -247 20 -29 1 -53 3 -53 6 0 3 -30 7 -67 9 -38 1 -90 5 -118 7 -68
7 -1013 12 -1019 6z"/>
</g>
</svg>
