<svg xmlns="http://www.w3.org/2000/svg" width="348.162" height="225.242" viewBox="0 0 348.162 225.242">
  <g id="Group_193" data-name="Group 193" transform="translate(-8158 -499)">
    <path id="Path_307" data-name="Path 307" d="M174,0c96.1,0,174.163,77.455,174.163,173,0,4.647-116.25,16.242-174.163,16.242C128.24,189.242,0,173,0,173H0C0,77.455,77.9,0,174,0Z" transform="translate(8158 535)" fill="#f7af9d"/>
    <g id="Group_187" data-name="Group 187" transform="translate(7382 -107)">
      <path id="Path_95" data-name="Path 95" d="M28,0,56,58H0Z" transform="translate(994 651)" fill="#ff7272"/>
      <g id="Group_49" data-name="Group 49" transform="translate(0 9)">
        <g id="Ellipse_139" data-name="Ellipse 139" transform="translate(977 597)" fill="#fff" stroke="#f7df03" stroke-linejoin="bevel" stroke-width="5">
          <circle cx="45" cy="45" r="45" stroke="none"/>
          <circle cx="45" cy="45" r="42.5" fill="none"/>
        </g>
        <path id="Path_80" data-name="Path 80" d="M10.592,5.155c.451-1.189,3.789-1.189,4.24,0L25.172,32.4c.258.68-.763,1.311-2.12,1.311L12.943,35.263,2.372,33.708c-1.357,0-2.378-.631-2.12-1.311Z" transform="translate(1009.954 638.59) rotate(24)" fill="#fdf564"/>
        <path id="Path_83" data-name="Path 83" d="M10.592,5.155c.451-1.189,3.789-1.189,4.24,0L25.172,32.4c.258.68-.763,1.311-2.12,1.311L12.943,35.263,2.372,33.708c-1.357,0-2.378-.631-2.12-1.311Z" transform="translate(1011.155 648.225) rotate(-23)" fill="#fdf564"/>
        <path id="Path_84" data-name="Path 84" d="M10.592,5.155c.451-1.189,3.789-1.189,4.24,0L25.172,32.4c.258.68-.763,1.311-2.12,1.311L12.943,35.263,2.372,33.708c-1.357,0-2.378-.631-2.12-1.311Z" transform="matrix(0.358, 0.934, -0.934, 0.358, 1015.349, 630.186)" fill="#fdf564"/>
        <path id="Path_85" data-name="Path 85" d="M10.592,5.155c.451-1.189,3.789-1.189,4.24,0L25.172,32.4c.258.68-.763,1.311-2.12,1.311L12.943,35.263,2.372,33.708c-1.357,0-2.378-.631-2.12-1.311Z" transform="matrix(0.342, -0.94, 0.94, 0.342, 1020.161, 654.49)" fill="#fdf564"/>
        <path id="Path_88" data-name="Path 88" d="M10.592,5.155c.451-1.189,3.789-1.189,4.24,0L25.172,32.4c.258.68-.763,1.311-2.12,1.311L12.943,35.263,2.372,33.708c-1.357,0-2.378-.631-2.12-1.311Z" transform="matrix(-0.921, 0.391, -0.391, -0.921, 1033.795, 634.857)" fill="#fdf564"/>
        <path id="Path_91" data-name="Path 91" d="M10.592,5.155c.451-1.189,3.789-1.189,4.24,0L25.172,32.4c.258.68-.763,1.311-2.12,1.311L12.943,35.263,2.372,33.708c-1.357,0-2.378-.631-2.12-1.311Z" transform="matrix(-0.358, -0.934, 0.934, -0.358, 1028.864, 652.537)" fill="#fdf564"/>
        <path id="Path_92" data-name="Path 92" d="M10.592,5.155c.451-1.189,3.789-1.189,4.24,0L25.172,32.4c.258.68-.763,1.311-2.12,1.311L12.943,35.263,2.372,33.708c-1.357,0-2.378-.631-2.12-1.311Z" transform="matrix(-0.342, 0.94, -0.94, -0.342, 1024.61, 627.866)" fill="#fdf564"/>
        <path id="Path_93" data-name="Path 93" d="M10.592,5.155c.451-1.189,3.789-1.189,4.24,0L25.172,32.4c.258.68-.763,1.311-2.12,1.311L12.943,35.263,2.372,33.708c-1.357,0-2.378-.631-2.12-1.311Z" transform="translate(1034.537 645.327) rotate(-155)" fill="#fdf564"/>
      </g>
      <g id="Path_128" data-name="Path 128" transform="translate(1059.748 671.599)" fill="#e8d36c" stroke-linejoin="bevel">
        <path d="M 4.625885009765625 -7.848874092102051 C 2.213015079498291 -7.848874092102051 0.2500050067901611 -9.688774108886719 0.2500050067901611 -11.95031356811523 C 0.2500050067901611 -13.11360359191895 0.7514950037002563 -15.74152374267578 1.590705037117004 -18.12563323974609 C 2.5501549243927 -20.85130310058594 3.656435012817383 -22.41455459594727 4.625885009765625 -22.41455459594727 C 5.595335006713867 -22.41455459594727 6.701624870300293 -20.85130310058594 7.661065101623535 -18.12563323974609 C 8.500285148620605 -15.74152374267578 9.001774787902832 -13.11360359191895 9.001774787902832 -11.95031356811523 C 9.001774787902832 -9.688774108886719 7.038754940032959 -7.848874092102051 4.625885009765625 -7.848874092102051 Z" stroke="none"/>
        <path d="M 4.625885009765625 -22.16455459594727 C 3.794145107269287 -22.16455459594727 2.721485137939453 -20.58512496948242 1.826515197753906 -18.04262351989746 C 1.00716495513916 -15.71493339538574 0.499995231628418 -13.06790351867676 0.499995231628418 -11.95031356811523 C 0.499995231628418 -9.826623916625977 2.350864887237549 -8.098873138427734 4.625885009765625 -8.098873138427734 C 6.900904655456543 -8.098873138427734 8.751765251159668 -9.826623916625977 8.751765251159668 -11.95031356811523 C 8.751765251159668 -13.06790351867676 8.24460506439209 -15.71493339538574 7.42524528503418 -18.04262351989746 C 6.530275344848633 -20.58512496948242 5.457624912261963 -22.16455459594727 4.625885009765625 -22.16455459594727 M 4.625885009765625 -22.66455459594727 C 7.180695056915283 -22.66455459594727 9.251765251159668 -14.35354423522949 9.251765251159668 -11.95031356811523 C 9.251765251159668 -9.547084808349609 7.180695056915283 -7.598873138427734 4.625885009765625 -7.598873138427734 C 2.071074962615967 -7.598873138427734 -4.76837158203125e-06 -9.547084808349609 -4.76837158203125e-06 -11.95031356811523 C -4.76837158203125e-06 -14.35354423522949 2.071074962615967 -22.66455459594727 4.625885009765625 -22.66455459594727 Z" stroke="none" fill="#be720e"/>
      </g>
      <g id="Path_129" data-name="Path 129" transform="translate(1049.748 643.599)" fill="#e8d36c" stroke-linejoin="bevel">
        <path d="M 4.625885009765625 -7.848874092102051 C 2.213015079498291 -7.848874092102051 0.2500050067901611 -9.688774108886719 0.2500050067901611 -11.95031356811523 C 0.2500050067901611 -13.11360359191895 0.7514950037002563 -15.74152374267578 1.590705037117004 -18.12563323974609 C 2.5501549243927 -20.85130310058594 3.656435012817383 -22.41455459594727 4.625885009765625 -22.41455459594727 C 5.595335006713867 -22.41455459594727 6.701624870300293 -20.85130310058594 7.661065101623535 -18.12563323974609 C 8.500285148620605 -15.74152374267578 9.001774787902832 -13.11360359191895 9.001774787902832 -11.95031356811523 C 9.001774787902832 -9.688774108886719 7.038754940032959 -7.848874092102051 4.625885009765625 -7.848874092102051 Z" stroke="none"/>
        <path d="M 4.625885009765625 -22.16455459594727 C 3.794145107269287 -22.16455459594727 2.721485137939453 -20.58512496948242 1.826515197753906 -18.04262351989746 C 1.00716495513916 -15.71493339538574 0.499995231628418 -13.06790351867676 0.499995231628418 -11.95031356811523 C 0.499995231628418 -9.826623916625977 2.350864887237549 -8.098873138427734 4.625885009765625 -8.098873138427734 C 6.900904655456543 -8.098873138427734 8.751765251159668 -9.826623916625977 8.751765251159668 -11.95031356811523 C 8.751765251159668 -13.06790351867676 8.24460506439209 -15.71493339538574 7.42524528503418 -18.04262351989746 C 6.530275344848633 -20.58512496948242 5.457624912261963 -22.16455459594727 4.625885009765625 -22.16455459594727 M 4.625885009765625 -22.66455459594727 C 7.180695056915283 -22.66455459594727 9.251765251159668 -14.35354423522949 9.251765251159668 -11.95031356811523 C 9.251765251159668 -9.547084808349609 7.180695056915283 -7.598873138427734 4.625885009765625 -7.598873138427734 C 2.071074962615967 -7.598873138427734 -4.76837158203125e-06 -9.547084808349609 -4.76837158203125e-06 -11.95031356811523 C -4.76837158203125e-06 -14.35354423522949 2.071074962615967 -22.66455459594727 4.625885009765625 -22.66455459594727 Z" stroke="none" fill="#be720e"/>
      </g>
      <g id="Path_130" data-name="Path 130" transform="translate(1018.748 630.599)" fill="#e8d36c" stroke-linejoin="bevel">
        <path d="M 4.625885009765625 -7.848874092102051 C 2.213015079498291 -7.848874092102051 0.2500050067901611 -9.688774108886719 0.2500050067901611 -11.95031356811523 C 0.2500050067901611 -13.11360359191895 0.7514950037002563 -15.74152374267578 1.590705037117004 -18.12563323974609 C 2.5501549243927 -20.85130310058594 3.656435012817383 -22.41455459594727 4.625885009765625 -22.41455459594727 C 5.595335006713867 -22.41455459594727 6.701624870300293 -20.85130310058594 7.661065101623535 -18.12563323974609 C 8.500285148620605 -15.74152374267578 9.001774787902832 -13.11360359191895 9.001774787902832 -11.95031356811523 C 9.001774787902832 -9.688774108886719 7.038754940032959 -7.848874092102051 4.625885009765625 -7.848874092102051 Z" stroke="none"/>
        <path d="M 4.625885009765625 -22.16455459594727 C 3.794145107269287 -22.16455459594727 2.721485137939453 -20.58512496948242 1.826515197753906 -18.04262351989746 C 1.00716495513916 -15.71493339538574 0.499995231628418 -13.06790351867676 0.499995231628418 -11.95031356811523 C 0.499995231628418 -9.826623916625977 2.350864887237549 -8.098873138427734 4.625885009765625 -8.098873138427734 C 6.900904655456543 -8.098873138427734 8.751765251159668 -9.826623916625977 8.751765251159668 -11.95031356811523 C 8.751765251159668 -13.06790351867676 8.24460506439209 -15.71493339538574 7.42524528503418 -18.04262351989746 C 6.530275344848633 -20.58512496948242 5.457624912261963 -22.16455459594727 4.625885009765625 -22.16455459594727 M 4.625885009765625 -22.66455459594727 C 7.180695056915283 -22.66455459594727 9.251765251159668 -14.35354423522949 9.251765251159668 -11.95031356811523 C 9.251765251159668 -9.547084808349609 7.180695056915283 -7.598873138427734 4.625885009765625 -7.598873138427734 C 2.071074962615967 -7.598873138427734 -4.76837158203125e-06 -9.547084808349609 -4.76837158203125e-06 -11.95031356811523 C -4.76837158203125e-06 -14.35354423522949 2.071074962615967 -22.66455459594727 4.625885009765625 -22.66455459594727 Z" stroke="none" fill="#be720e"/>
      </g>
      <g id="Path_131" data-name="Path 131" transform="translate(987.748 641.599)" fill="#e8d36c" stroke-linejoin="bevel">
        <path d="M 4.625885009765625 -7.848874092102051 C 2.213015079498291 -7.848874092102051 0.2500050067901611 -9.688774108886719 0.2500050067901611 -11.95031356811523 C 0.2500050067901611 -13.11360359191895 0.7514950037002563 -15.74152374267578 1.590705037117004 -18.12563323974609 C 2.5501549243927 -20.85130310058594 3.656435012817383 -22.41455459594727 4.625885009765625 -22.41455459594727 C 5.595335006713867 -22.41455459594727 6.701624870300293 -20.85130310058594 7.661065101623535 -18.12563323974609 C 8.500285148620605 -15.74152374267578 9.001774787902832 -13.11360359191895 9.001774787902832 -11.95031356811523 C 9.001774787902832 -9.688774108886719 7.038754940032959 -7.848874092102051 4.625885009765625 -7.848874092102051 Z" stroke="none"/>
        <path d="M 4.625885009765625 -22.16455459594727 C 3.794145107269287 -22.16455459594727 2.721485137939453 -20.58512496948242 1.826515197753906 -18.04262351989746 C 1.00716495513916 -15.71493339538574 0.499995231628418 -13.06790351867676 0.499995231628418 -11.95031356811523 C 0.499995231628418 -9.826623916625977 2.350864887237549 -8.098873138427734 4.625885009765625 -8.098873138427734 C 6.900904655456543 -8.098873138427734 8.751765251159668 -9.826623916625977 8.751765251159668 -11.95031356811523 C 8.751765251159668 -13.06790351867676 8.24460506439209 -15.71493339538574 7.42524528503418 -18.04262351989746 C 6.530275344848633 -20.58512496948242 5.457624912261963 -22.16455459594727 4.625885009765625 -22.16455459594727 M 4.625885009765625 -22.66455459594727 C 7.180695056915283 -22.66455459594727 9.251765251159668 -14.35354423522949 9.251765251159668 -11.95031356811523 C 9.251765251159668 -9.547084808349609 7.180695056915283 -7.598873138427734 4.625885009765625 -7.598873138427734 C 2.071074962615967 -7.598873138427734 -4.76837158203125e-06 -9.547084808349609 -4.76837158203125e-06 -11.95031356811523 C -4.76837158203125e-06 -14.35354423522949 2.071074962615967 -22.66455459594727 4.625885009765625 -22.66455459594727 Z" stroke="none" fill="#be720e"/>
      </g>
      <g id="Path_132" data-name="Path 132" transform="translate(974.748 669.599)" fill="#e8d36c" stroke-linejoin="bevel">
        <path d="M 4.625885009765625 -7.848874092102051 C 2.213015079498291 -7.848874092102051 0.2500050067901611 -9.688774108886719 0.2500050067901611 -11.95031356811523 C 0.2500050067901611 -13.11360359191895 0.7514950037002563 -15.74152374267578 1.590705037117004 -18.12563323974609 C 2.5501549243927 -20.85130310058594 3.656435012817383 -22.41455459594727 4.625885009765625 -22.41455459594727 C 5.595335006713867 -22.41455459594727 6.701624870300293 -20.85130310058594 7.661065101623535 -18.12563323974609 C 8.500285148620605 -15.74152374267578 9.001774787902832 -13.11360359191895 9.001774787902832 -11.95031356811523 C 9.001774787902832 -9.688774108886719 7.038754940032959 -7.848874092102051 4.625885009765625 -7.848874092102051 Z" stroke="none"/>
        <path d="M 4.625885009765625 -22.16455459594727 C 3.794145107269287 -22.16455459594727 2.721485137939453 -20.58512496948242 1.826515197753906 -18.04262351989746 C 1.00716495513916 -15.71493339538574 0.499995231628418 -13.06790351867676 0.499995231628418 -11.95031356811523 C 0.499995231628418 -9.826623916625977 2.350864887237549 -8.098873138427734 4.625885009765625 -8.098873138427734 C 6.900904655456543 -8.098873138427734 8.751765251159668 -9.826623916625977 8.751765251159668 -11.95031356811523 C 8.751765251159668 -13.06790351867676 8.24460506439209 -15.71493339538574 7.42524528503418 -18.04262351989746 C 6.530275344848633 -20.58512496948242 5.457624912261963 -22.16455459594727 4.625885009765625 -22.16455459594727 M 4.625885009765625 -22.66455459594727 C 7.180695056915283 -22.66455459594727 9.251765251159668 -14.35354423522949 9.251765251159668 -11.95031356811523 C 9.251765251159668 -9.547084808349609 7.180695056915283 -7.598873138427734 4.625885009765625 -7.598873138427734 C 2.071074962615967 -7.598873138427734 -4.76837158203125e-06 -9.547084808349609 -4.76837158203125e-06 -11.95031356811523 C -4.76837158203125e-06 -14.35354423522949 2.071074962615967 -22.66455459594727 4.625885009765625 -22.66455459594727 Z" stroke="none" fill="#be720e"/>
      </g>
      <g id="Path_133" data-name="Path 133" transform="translate(987.748 698.599)" fill="#e8d36c" stroke-linejoin="bevel">
        <path d="M 4.625885009765625 -7.848874092102051 C 2.213015079498291 -7.848874092102051 0.2500050067901611 -9.688774108886719 0.2500050067901611 -11.95031356811523 C 0.2500050067901611 -13.11360359191895 0.7514950037002563 -15.74152374267578 1.590705037117004 -18.12563323974609 C 2.5501549243927 -20.85130310058594 3.656435012817383 -22.41455459594727 4.625885009765625 -22.41455459594727 C 5.595335006713867 -22.41455459594727 6.701624870300293 -20.85130310058594 7.661065101623535 -18.12563323974609 C 8.500285148620605 -15.74152374267578 9.001774787902832 -13.11360359191895 9.001774787902832 -11.95031356811523 C 9.001774787902832 -9.688774108886719 7.038754940032959 -7.848874092102051 4.625885009765625 -7.848874092102051 Z" stroke="none"/>
        <path d="M 4.625885009765625 -22.16455459594727 C 3.794145107269287 -22.16455459594727 2.721485137939453 -20.58512496948242 1.826515197753906 -18.04262351989746 C 1.00716495513916 -15.71493339538574 0.499995231628418 -13.06790351867676 0.499995231628418 -11.95031356811523 C 0.499995231628418 -9.826623916625977 2.350864887237549 -8.098873138427734 4.625885009765625 -8.098873138427734 C 6.900904655456543 -8.098873138427734 8.751765251159668 -9.826623916625977 8.751765251159668 -11.95031356811523 C 8.751765251159668 -13.06790351867676 8.24460506439209 -15.71493339538574 7.42524528503418 -18.04262351989746 C 6.530275344848633 -20.58512496948242 5.457624912261963 -22.16455459594727 4.625885009765625 -22.16455459594727 M 4.625885009765625 -22.66455459594727 C 7.180695056915283 -22.66455459594727 9.251765251159668 -14.35354423522949 9.251765251159668 -11.95031356811523 C 9.251765251159668 -9.547084808349609 7.180695056915283 -7.598873138427734 4.625885009765625 -7.598873138427734 C 2.071074962615967 -7.598873138427734 -4.76837158203125e-06 -9.547084808349609 -4.76837158203125e-06 -11.95031356811523 C -4.76837158203125e-06 -14.35354423522949 2.071074962615967 -22.66455459594727 4.625885009765625 -22.66455459594727 Z" stroke="none" fill="#be720e"/>
      </g>
      <g id="Path_134" data-name="Path 134" transform="translate(1017.748 707.599)" fill="#e8d36c" stroke-linejoin="bevel">
        <path d="M 4.625885009765625 -7.848874092102051 C 2.213015079498291 -7.848874092102051 0.2500050067901611 -9.688774108886719 0.2500050067901611 -11.95031356811523 C 0.2500050067901611 -13.11360359191895 0.7514950037002563 -15.74152374267578 1.590705037117004 -18.12563323974609 C 2.5501549243927 -20.85130310058594 3.656435012817383 -22.41455459594727 4.625885009765625 -22.41455459594727 C 5.595335006713867 -22.41455459594727 6.701624870300293 -20.85130310058594 7.661065101623535 -18.12563323974609 C 8.500285148620605 -15.74152374267578 9.001774787902832 -13.11360359191895 9.001774787902832 -11.95031356811523 C 9.001774787902832 -9.688774108886719 7.038754940032959 -7.848874092102051 4.625885009765625 -7.848874092102051 Z" stroke="none"/>
        <path d="M 4.625885009765625 -22.16455459594727 C 3.794145107269287 -22.16455459594727 2.721485137939453 -20.58512496948242 1.826515197753906 -18.04262351989746 C 1.00716495513916 -15.71493339538574 0.499995231628418 -13.06790351867676 0.499995231628418 -11.95031356811523 C 0.499995231628418 -9.826623916625977 2.350864887237549 -8.098873138427734 4.625885009765625 -8.098873138427734 C 6.900904655456543 -8.098873138427734 8.751765251159668 -9.826623916625977 8.751765251159668 -11.95031356811523 C 8.751765251159668 -13.06790351867676 8.24460506439209 -15.71493339538574 7.42524528503418 -18.04262351989746 C 6.530275344848633 -20.58512496948242 5.457624912261963 -22.16455459594727 4.625885009765625 -22.16455459594727 M 4.625885009765625 -22.66455459594727 C 7.180695056915283 -22.66455459594727 9.251765251159668 -14.35354423522949 9.251765251159668 -11.95031356811523 C 9.251765251159668 -9.547084808349609 7.180695056915283 -7.598873138427734 4.625885009765625 -7.598873138427734 C 2.071074962615967 -7.598873138427734 -4.76837158203125e-06 -9.547084808349609 -4.76837158203125e-06 -11.95031356811523 C -4.76837158203125e-06 -14.35354423522949 2.071074962615967 -22.66455459594727 4.625885009765625 -22.66455459594727 Z" stroke="none" fill="#be720e"/>
      </g>
      <g id="Path_135" data-name="Path 135" transform="translate(1047.748 698.599)" fill="#e8d36c" stroke-linejoin="bevel">
        <path d="M 4.625885009765625 -7.848874092102051 C 2.213015079498291 -7.848874092102051 0.2500050067901611 -9.688774108886719 0.2500050067901611 -11.95031356811523 C 0.2500050067901611 -13.11360359191895 0.7514950037002563 -15.74152374267578 1.590705037117004 -18.12563323974609 C 2.5501549243927 -20.85130310058594 3.656435012817383 -22.41455459594727 4.625885009765625 -22.41455459594727 C 5.595335006713867 -22.41455459594727 6.701624870300293 -20.85130310058594 7.661065101623535 -18.12563323974609 C 8.500285148620605 -15.74152374267578 9.001774787902832 -13.11360359191895 9.001774787902832 -11.95031356811523 C 9.001774787902832 -9.688774108886719 7.038754940032959 -7.848874092102051 4.625885009765625 -7.848874092102051 Z" stroke="none"/>
        <path d="M 4.625885009765625 -22.16455459594727 C 3.794145107269287 -22.16455459594727 2.721485137939453 -20.58512496948242 1.826515197753906 -18.04262351989746 C 1.00716495513916 -15.71493339538574 0.499995231628418 -13.06790351867676 0.499995231628418 -11.95031356811523 C 0.499995231628418 -9.826623916625977 2.350864887237549 -8.098873138427734 4.625885009765625 -8.098873138427734 C 6.900904655456543 -8.098873138427734 8.751765251159668 -9.826623916625977 8.751765251159668 -11.95031356811523 C 8.751765251159668 -13.06790351867676 8.24460506439209 -15.71493339538574 7.42524528503418 -18.04262351989746 C 6.530275344848633 -20.58512496948242 5.457624912261963 -22.16455459594727 4.625885009765625 -22.16455459594727 M 4.625885009765625 -22.66455459594727 C 7.180695056915283 -22.66455459594727 9.251765251159668 -14.35354423522949 9.251765251159668 -11.95031356811523 C 9.251765251159668 -9.547084808349609 7.180695056915283 -7.598873138427734 4.625885009765625 -7.598873138427734 C 2.071074962615967 -7.598873138427734 -4.76837158203125e-06 -9.547084808349609 -4.76837158203125e-06 -11.95031356811523 C -4.76837158203125e-06 -14.35354423522949 2.071074962615967 -22.66455459594727 4.625885009765625 -22.66455459594727 Z" stroke="none" fill="#be720e"/>
      </g>
    </g>
    <g id="Group_188" data-name="Group 188" transform="translate(7363 -140)">
      <g id="Group_153" data-name="Group 153" transform="translate(9 -3)">
        <path id="Path_162" data-name="Path 162" d="M28.6,0C44.457,0,57.38,3.8,57.38,7.667S44.457,14,28.6,14,.076,10.974.076,7.108,12.75,0,28.6,0Z" transform="translate(887.078 746)" fill="#fffab5"/>
        <path id="Path_163" data-name="Path 163" d="M9.469,0H48.531C53.76,0,58,1.589,58,6.008V13c0,4.418-4.24,8-9.469,8H9.469C4.24,21,0,17.418,0,13V6.008C0,1.589,4.24,0,9.469,0Z" transform="translate(886.672 749)" fill="#fffab5"/>
        <path id="Path_170" data-name="Path 170" d="M882.122,751.88c4.937,6.6,36.089,4.737,47.618,3.81,2.225-.179,5.93-.571,7.641-1.461" transform="translate(5.333 2.207)" fill="none" stroke="#dfd792" stroke-linecap="round" stroke-linejoin="bevel" stroke-width="1"/>
        <path id="Path_171" data-name="Path 171" d="M881.818,750.483c1.222,1.927,3.009,4.975,7.019,5.874,13.879,1.25,32.757,1.365,41.5.535a10.905,10.905,0,0,0,5.274-1.816" transform="translate(5 13)" fill="none" stroke="#dfd792" stroke-linecap="round" stroke-linejoin="bevel" stroke-width="1"/>
        <path id="Path_280" data-name="Path 280" d="M881.664,756.159c.268-3.035,8.566-6.245,20.3-6.8,3.591-.17,7.714-.784,11.992-.679a98.7,98.7,0,0,1,14.857,1.885,24.881,24.881,0,0,1,8.372,3.017" transform="translate(5.333 -2.793)" fill="none" stroke="#dfd792" stroke-linecap="round" stroke-linejoin="bevel" stroke-width="0.5"/>
      </g>
      <path id="Path_279" data-name="Path 279" d="M0-6.553V15.489" transform="translate(920.5 725.5)" fill="none" stroke="#5b0c0c" stroke-width="1"/>
      <path id="Path_280-2" data-name="Path 280" d="M4.63,3.47C2.344,3.47.594,5.016.594,3.854S2.344,2.282,4.63,2.282s4.039.41,4.039,1.572S6.916,3.47,4.63,3.47Z" transform="translate(919.906 745.713)" fill="#fffcd1"/>
      <g id="Group_154" data-name="Group 154" transform="translate(911.126 729.639)">
        <path id="Path_167" data-name="Path 167" d="M6.84,12.309c2.361.753,5.451-3.328,3.9-7.236S6.12-.422,2.563.095A3.527,3.527,0,0,0,.2,1.605C-1.171,5.926,4.855,5.366,4.855,7.471,4.855,10.85,4.478,11.556,6.84,12.309Z" transform="translate(16.185 10.28) rotate(146)" fill="#89f889"/>
        <path id="Path_168" data-name="Path 168" d="M0,0c3.26.15,3,2.344,3,2.344" transform="translate(10.311 9.242) rotate(160)" fill="none" stroke="#79d979" stroke-width="0.5"/>
      </g>
      <line id="Line_120" data-name="Line 120" y2="34" transform="translate(924.5 715.5)" fill="none" stroke="#580a0a" stroke-linecap="round" stroke-width="4"/>
      <line id="Line_121" data-name="Line 121" y2="25" transform="translate(907.5 720.5)" fill="none" stroke="#5b0c0c" stroke-width="1"/>
      <line id="Line_122" data-name="Line 122" y2="25" transform="translate(933.5 720.5)" fill="none" stroke="#5b0c0c" stroke-width="1"/>
      <line id="Line_123" data-name="Line 123" y2="20" transform="translate(946.5 721.5)" fill="none" stroke="#5b0c0c" stroke-width="1"/>
      <g id="Path_281" data-name="Path 281" transform="matrix(0.985, -0.174, 0.174, 0.985, 872.674, 693.739)" fill="#4e3004" stroke-linejoin="bevel">
        <path d="M 63.90206146240234 42.60451507568359 C 59.26028060913086 42.60451507568359 50.96256256103516 41.77535629272461 42.88858032226563 39.92296600341797 C 36.16152954101563 38.37959671020508 27.30108070373535 35.58909606933594 23.2921199798584 31.05977630615234 C 21.69674110412598 29.25731658935547 21.01466178894043 27.30662536621094 21.26482009887695 25.26189613342285 L 21.26575088500977 25.2542552947998 L 21.26645088195801 25.24658584594727 C 21.44760131835938 23.26047515869141 23.81855010986328 20.68108558654785 28.31344032287598 17.58005523681641 C 32.17877197265625 14.91337585449219 36.86949157714844 12.38792610168457 39.97344970703125 10.7167854309082 C 43.1150016784668 9.025395393371582 43.80755233764648 8.628385543823242 44.00350189208984 8.266765594482422 C 44.0930290222168 8.102275848388672 44.09408950805664 7.906476020812988 44.00588989257813 7.743825912475586 C 43.83161163330078 7.422455787658691 43.47808074951172 7.394635677337646 42.77376174926758 7.339195728302002 C 42.00884246826172 7.278995990753174 40.58502960205078 7.166945934295654 40.25923156738281 6.61534595489502 C 40.15129470825195 6.432609558105469 40.17131423950195 6.164968967437744 40.31863403320313 5.819236755371094 C 40.4364128112793 5.678932666778564 40.99465560913086 5.070411205291748 42.2752799987793 4.46673583984375 C 43.63401031494141 3.826235771179199 46.10013198852539 3.062735795974731 50.13265991210938 3.062735795974731 C 52.35330200195313 3.062735795974731 55.07955169677734 4.131555557250977 58.01668167114258 6.15363597869873 C 60.80900955200195 8.076035499572754 63.68360137939453 10.77330589294434 66.32970428466797 13.95383548736572 C 68.98454284667969 17.14486503601074 71.23538970947266 20.61418533325195 72.83892059326172 23.98674583435059 C 74.54428100585938 27.57344627380371 75.4456787109375 30.92821502685547 75.4456787109375 33.6883659362793 C 75.4456787109375 36.42850494384766 74.57848358154297 38.57339477539063 72.86817169189453 40.06342697143555 C 70.93276977539063 41.74956512451172 67.91613006591797 42.60451507568359 63.90206146240234 42.60451507568359 Z" stroke="none"/>
        <path d="M 50.13265228271484 3.562736511230469 C 46.26231384277344 3.562736511230469 43.89138031005859 4.276157379150391 42.58396148681641 4.874645233154297 C 41.46036529541016 5.388980865478516 40.91810607910156 5.905380249023438 40.75008392333984 6.086330413818359 C 40.68354034423828 6.263763427734375 40.68939208984375 6.346767425537109 40.69167327880859 6.363613128662109 C 40.70811462402344 6.384185791015625 40.83546447753906 6.523265838623047 41.34210205078125 6.647216796875 C 41.81072235107422 6.761867523193359 42.36644744873047 6.805595397949219 42.81298065185547 6.840744018554688 C 43.58432769775391 6.901447296142578 44.14163970947266 6.945304870605469 44.44541931152344 7.505474090576172 C 44.61470031738281 7.817646026611328 44.61351013183594 8.19189453125 44.44310760498047 8.504974365234375 C 44.17694091796875 8.996185302734375 43.61154174804688 9.325923919677734 40.21047210693359 11.15703582763672 C 37.11617279052734 12.82297515869141 32.44003295898438 15.340576171875 28.59737396240234 17.99161529541016 C 23.15789031982422 21.74431610107422 21.87921142578125 24.03291511535645 21.76438140869141 25.29200553894043 L 21.7611083984375 25.32261657714844 C 21.52583312988281 27.24574661254883 22.14909362792969 29.01399612426758 23.66651916503906 30.72838592529297 C 25.30943298339844 32.58454513549805 27.97126770019531 34.31117630004883 31.57809448242188 35.86031341552734 C 34.74445343017578 37.22027587890625 38.58746337890625 38.42318725585938 43.00038909912109 39.43562698364258 C 51.03625106811523 41.27927398681641 59.28845977783203 42.10451507568359 63.90206146240234 42.10451507568359 C 67.79188537597656 42.10451507568359 70.69801330566406 41.29095458984375 72.53973388671875 39.68642425537109 C 74.13619995117188 38.29557418823242 74.9456787109375 36.27753448486328 74.9456787109375 33.6883659362793 C 74.9456787109375 28.38578605651855 71.4969482421875 20.94648551940918 65.94532775878906 14.27361488342285 C 63.32806015014648 11.12774658203125 60.48834228515625 8.462314605712891 57.73313903808594 6.565475463867188 C 54.87979125976563 4.601066589355469 52.25157928466797 3.562736511230469 50.13265228271484 3.562736511230469 M 50.13265228271484 2.562736511230469 C 64.39205169677734 2.562736511230469 91.80705261230469 43.10451507568359 63.90206146240234 43.10451507568359 C 52.77664947509766 43.10451507568359 19.17108917236328 38.2580451965332 20.76850891113281 25.20117568969727 C 21.37476348876953 18.55405616760254 43.00067901611328 9.067935943603516 43.56388854980469 8.028556823730469 C 43.79585266113281 7.602375030517578 38.63471221923828 8.324077606201172 39.8863525390625 5.560226440429688 C 39.8863525390625 5.560226440429688 42.01055145263672 2.562736511230469 50.13265228271484 2.562736511230469 Z" stroke="none" fill="#5b3701"/>
      </g>
      <g id="Group_155" data-name="Group 155" transform="translate(938.126 732.639)">
        <path id="Path_167-2" data-name="Path 167" d="M6.84,12.309c2.361.753,5.451-3.328,3.9-7.236S6.12-.422,2.563.095A3.527,3.527,0,0,0,.2,1.605C-1.171,5.926,4.855,5.366,4.855,7.471,4.855,10.85,4.478,11.556,6.84,12.309Z" transform="translate(16.185 10.28) rotate(146)" fill="#a1cdff"/>
        <path id="Path_168-2" data-name="Path 168" d="M0,0c3.26.15,3,2.344,3,2.344" transform="translate(10.311 9.242) rotate(160)" fill="none" stroke="#84acd9" stroke-width="0.5"/>
      </g>
      <g id="Group_156" data-name="Group 156" transform="translate(899.126 733.639)">
        <path id="Path_167-3" data-name="Path 167" d="M6.84.09c2.361-.753,5.451,3.328,3.9,7.236s-4.62,5.5-8.178,4.979A3.527,3.527,0,0,1,.2,10.794C-1.171,6.474,4.855,7.034,4.855,4.928,4.855,1.549,4.478.843,6.84.09Z" transform="translate(6.934 0) rotate(34)" fill="#c0a1ff"/>
        <path id="Path_168-3" data-name="Path 168" d="M0,2.344C3.26,2.193,3,0,3,0" transform="translate(6.676 7.04) rotate(20)" fill="none" stroke="#9e83d4" stroke-width="0.5"/>
      </g>
      <path id="Path_282" data-name="Path 282" d="M4.633,2.414c2.286,0,4.037-1.627,4.037-.4S6.919,4.431,4.633,4.431.594,3.234.594,2.01,2.347,2.414,4.633,2.414Z" transform="translate(919.906 747.569)" fill="#fffcd1"/>
      <g id="Ellipse_191" data-name="Ellipse 191" transform="matrix(0.996, 0.087, -0.087, 0.996, 929.015, 750.3)" fill="none" stroke="#927502" stroke-linejoin="bevel" stroke-width="1">
        <ellipse cx="1.75" cy="0.25" rx="1.75" ry="0.25" stroke="none"/>
        <ellipse cx="1.75" cy="0.25" rx="1.25" ry="0.25" fill="none"/>
      </g>
      <g id="Group_157" data-name="Group 157" transform="translate(926.126 737.639)">
        <path id="Path_167-4" data-name="Path 167" d="M6.84.09c2.361-.753,5.451,3.328,3.9,7.236s-4.62,5.5-8.178,4.979A3.527,3.527,0,0,1,.2,10.794C-1.171,6.474,4.855,7.034,4.855,4.928,4.855,1.549,4.478.843,6.84.09Z" transform="translate(6.934 0) rotate(34)" fill="#f6b471"/>
        <path id="Path_168-4" data-name="Path 168" d="M0,2.344C3.26,2.193,3,0,3,0" transform="translate(6.676 7.04) rotate(20)" fill="none" stroke="#d29c64" stroke-width="0.5"/>
      </g>
      <g id="Ellipse_192" data-name="Ellipse 192" transform="translate(917.039 747.794) rotate(8)" fill="none" stroke="#927502" stroke-linejoin="bevel" stroke-width="1">
        <ellipse cx="2" cy="0.25" rx="2" ry="0.25" stroke="none"/>
        <ellipse cx="2" cy="0.25" rx="1.5" ry="0.25" fill="none"/>
      </g>
      <g id="Ellipse_193" data-name="Ellipse 193" transform="translate(919.048 751.796) rotate(-18)" fill="none" stroke="#927502" stroke-linejoin="bevel" stroke-width="1">
        <ellipse cx="1.5" cy="0.25" rx="1.5" ry="0.25" stroke="none"/>
        <ellipse cx="1.5" cy="0.25" rx="1" ry="0.25" fill="none"/>
      </g>
    </g>
  </g>
</svg>
