<svg xmlns="http://www.w3.org/2000/svg" width="372.826" height="231.119" viewBox="0 0 372.826 231.119">
  <g id="Group_194" data-name="Group 194" transform="translate(-6980.174 -481.853)">
    <g id="Group_189" data-name="Group 189" transform="translate(6826 331)">
      <path id="Path_287" data-name="Path 287" d="M179.3,0c99.024,0,179.3,57.314,179.3,128.014,0,25.735,2.719,25.6-15.805,26.222-31.764,1.072-100.514,2.316-163.494,2.316-39.51,0-178.527,12.9-178.527-3.712C.772,82.14,80.275,0,179.3,0Z" transform="translate(153.402 218)" fill="#eed17c"/>
      <path id="Path_288" data-name="Path 288" d="M179.3,0c99.024,0,179.3,53.662,179.3,119.858,0,24.1-.047,31.062-18.571,31.647-31.764,1-97.748,0-160.728,0-39.51,0-180.482,12-180.482-3.558C-1.183,81.751,80.275,0,179.3,0Z" transform="translate(168.402 226.051)" fill="#f7e3af"/>
    </g>
    <g id="Group_190" data-name="Group 190" transform="translate(6846 334)">
      <path id="Path_289" data-name="Path 289" d="M2.5,0A2.5,2.5,0,0,1,5,2.5v95a2.5,2.5,0,0,1-5,0V2.5A2.5,2.5,0,0,1,2.5,0Z" transform="matrix(0.966, 0.259, -0.259, 0.966, 441.657, 179.613)" fill="#583b08"/>
      <line id="Line_124" data-name="Line 124" x1="4" y2="14" transform="translate(439.5 182.5)" fill="none" stroke="#ffd771" stroke-linecap="round" stroke-width="5"/>
      <g id="Group_159" data-name="Group 159" transform="translate(-42.792 -458.53) rotate(-4)">
        <path id="Path_61" data-name="Path 61" d="M51.257,2.111C75.808-.059,94.1,17.041,92.1,40.306c-.62,7.235-29.644-1.782-46.56-.286C27.965,41.574,10.464,49.331,3.2,48.166c-1.977-.312-1.993-.529-1.859-2.1C3.329,22.8,26.706,4.281,51.257,2.111Z" transform="matrix(0.946, 0.326, -0.326, 0.946, 391.335, 662.034)" fill="#ae3603"/>
        <path id="Path_59" data-name="Path 59" d="M51.39,2.1C76.1.133,94.58,15.086,92.669,35.5c-.594,6.349-29.852-1.485-46.876-.128-17.691,1.41-30.856,5.879-39.3,6.155-1.992-.269-3.769,0-3.64-1.382C4.765,19.731,26.682,4.07,51.39,2.1Z" transform="matrix(0.946, 0.326, -0.326, 0.946, 387.538, 667.876)" fill="#f2aa4d"/>
        <path id="Path_60" data-name="Path 60" d="M25.909-.572c17.247,0,34.3,5.822,34.3,14.08a4.4,4.4,0,0,1-3.164,4.073c-2.819-.431-7.652-1.774-13.931-3.342-5.125-1.28-11.493-2.82-17.938-2.82-5.965,0-11.1.107-15.442.128-4.051.02-6.941.512-8.684.016C.553,11.44,6.776-.572,25.909-.572Z" transform="translate(395.4 700.172) rotate(11)" fill="#cf4949"/>
      </g>
    </g>
    <g id="Group_191" data-name="Group 191" transform="translate(6898 -155)">
      <path id="Path_67" data-name="Path 67" d="M63.257,3670.317c19.305-11.109,28.389,19.777,28.389,19.777Z" transform="translate(1613.544 -2730.351) rotate(23)" fill="#116508"/>
      <path id="Path_64" data-name="Path 64" d="M8.929,3673.523c-51.724-14.5-55.01-46.511-55.01-46.511" transform="matrix(0.559, 0.829, -0.829, 0.559, 3271.029, -1318.082)" fill="none" stroke="#430808" stroke-width="5"/>
      <path id="Path_68" data-name="Path 68" d="M63.257,3670.233c43.234-9.3,51.046,32.865,51.046,32.865Z" transform="matrix(0.961, -0.276, 0.276, 0.961, -845.76, -2839.708)" fill="#116508"/>
      <path id="Path_57" data-name="Path 57" d="M21.2,10.3c1.285,1.17.925.806,2.812,1.389,1.62-.744,5.032-3.709,8.209-5.557a11.618,11.618,0,0,1,7.335-1.191c2.3.506,6.811,5.026,6.811,11.71,0,6.121-2.66,13.091-6.811,18.26C35.5,39.984,27.525,42.961,21.2,42.961,9.492,42.961,0,32.173,0,18.866S11.613,1.569,21.2,10.3Z" transform="translate(203.552 730.921) rotate(-9)" fill="#9e1313"/>
      <path id="Path_69" data-name="Path 69" d="M119.285,3661.393c-32.826-5.169-37.6,32.452-37.6,32.452Z" transform="translate(1567.882 -2743.934) rotate(23)" fill="#116508"/>
      <path id="Path_70" data-name="Path 70" d="M108.025,3670.395c-37.917-10.426-44.769,36.833-44.769,36.833Z" transform="matrix(0.454, 0.891, -0.891, 0.454, 3467.577, -1085.151)" fill="#116508"/>
    </g>
    <g id="Group_192" data-name="Group 192" transform="translate(6846 334)">
      <path id="Path_290" data-name="Path 290" d="M6.559-27.675c1.176,0,6.165,11.974,6.165,11.974s13.5-3.287,13.5-1.874c0,1.02-8.5,9.891-8.5,9.891S25.223,2.934,24.6,4.5C24.315,5.213,8.578.021,8.578.021S-2.58,9.12-3.648,7.934C-4.592,6.885-.9-5.914-.9-5.914s-9.123-6.193-9.123-7.08c0-1.369,12.372-1.458,12.372-1.458S5.338-27.675,6.559-27.675Z" transform="translate(351.042 257)" fill="#efd344"/>
      <g id="Ellipse_194" data-name="Ellipse 194" transform="matrix(0.94, 0.342, -0.342, 0.94, 353.646, 245.459)" fill="none" stroke="#aba179" stroke-linejoin="bevel" stroke-width="1">
        <ellipse cx="2.5" cy="0.75" rx="2.5" ry="0.75" stroke="none"/>
        <ellipse cx="2.5" cy="0.75" rx="2" ry="0.25" fill="none"/>
      </g>
      <g id="Ellipse_195" data-name="Ellipse 195" transform="translate(358.953 241.418) rotate(78)" fill="none" stroke="#aba179" stroke-linejoin="bevel" stroke-width="1">
        <ellipse cx="2.5" cy="0.75" rx="2.5" ry="0.75" stroke="none"/>
        <ellipse cx="2.5" cy="0.75" rx="2" ry="0.25" fill="none"/>
      </g>
      <g id="Ellipse_196" data-name="Ellipse 196" transform="translate(366.345 245.869) rotate(160)" fill="none" stroke="#aba179" stroke-linejoin="bevel" stroke-width="1">
        <ellipse cx="2.5" cy="0.75" rx="2.5" ry="0.75" stroke="none"/>
        <ellipse cx="2.5" cy="0.75" rx="2" ry="0.25" fill="none"/>
      </g>
      <g id="Ellipse_197" data-name="Ellipse 197" transform="translate(354.509 252.375) rotate(-48)" fill="none" stroke="#aba179" stroke-linejoin="bevel" stroke-width="1">
        <ellipse cx="2.5" cy="0.75" rx="2.5" ry="0.75" stroke="none"/>
        <ellipse cx="2.5" cy="0.75" rx="2" ry="0.25" fill="none"/>
      </g>
      <g id="Path_291" data-name="Path 291" transform="translate(363.854 253.379) rotate(-132)" fill="none" stroke-linejoin="bevel">
        <path d="M2.5,0C3.881,0,5,.336,5,.75s-1.119.75-2.5.75S0,1.164,0,.75,1.119,0,2.5,0Z" stroke="none"/>
        <path d="M 2.500011444091797 1.311302185058594e-06 C 3.880731582641602 1.311302185058594e-06 5.000021457672119 0.3357813358306885 5.000021457672119 0.7499812841415405 C 5.000021457672119 1.164181232452393 3.880731582641602 1.499961256980896 2.500011444091797 1.499961256980896 C 1.119291543960571 1.499961256980896 1.430511474609375e-06 1.164181232452393 1.430511474609375e-06 0.7499812841415405 C 1.430511474609375e-06 0.3357813358306885 1.119291543960571 1.311302185058594e-06 2.500011444091797 1.311302185058594e-06 Z" stroke="none" fill="#aba179"/>
      </g>
    </g>
  </g>
</svg>
